<svg width="37" height="29" viewBox="0 0 37 29" fill="none" xmlns="http://www.w3.org/2000/svg">
<path d="M36.9265 14.0518C35.4759 10.0414 32.9575 6.57327 29.6827 4.07593C26.4079 1.5786 22.5201 0.161573 18.5 0C14.4799 0.161573 10.5921 1.5786 7.3173 4.07593C4.04248 6.57327 1.52412 10.0414 0.0734774 14.0518C-0.0244925 14.3414 -0.0244925 14.6586 0.0734774 14.9482C1.52412 18.9586 4.04248 22.4267 7.3173 24.9241C10.5921 27.4214 14.4799 28.8384 18.5 29C22.5201 28.8384 26.4079 27.4214 29.6827 24.9241C32.9575 22.4267 35.4759 18.9586 36.9265 14.9482C37.0245 14.6586 37.0245 14.3414 36.9265 14.0518V14.0518ZM18.5 26.3636C11.9631 26.3636 5.05629 21.1832 2.55255 14.5C5.05629 7.81682 11.9631 2.63636 18.5 2.63636C25.0369 2.63636 31.9437 7.81682 34.4475 14.5C31.9437 21.1832 25.0369 26.3636 18.5 26.3636Z" fill="#193766"/>
<path d="M18.5 7C17.0166 7 15.5666 7.43987 14.3332 8.26398C13.0999 9.08809 12.1386 10.2594 11.5709 11.6299C11.0032 13.0003 10.8547 14.5083 11.1441 15.9632C11.4335 17.418 12.1478 18.7544 13.1967 19.8033C14.2456 20.8522 15.582 21.5665 17.0368 21.8559C18.4917 22.1453 19.9997 21.9968 21.3701 21.4291C22.7406 20.8614 23.9119 19.9001 24.736 18.6668C25.5601 17.4334 26 15.9834 26 14.5C26 12.5109 25.2098 10.6032 23.8033 9.1967C22.3968 7.79018 20.4891 7 18.5 7ZM18.5 19.5C17.5111 19.5 16.5444 19.2068 15.7222 18.6573C14.8999 18.1079 14.259 17.327 13.8806 16.4134C13.5022 15.4998 13.4031 14.4945 13.5961 13.5245C13.789 12.5546 14.2652 11.6637 14.9645 10.9645C15.6637 10.2652 16.5546 9.789 17.5246 9.59607C18.4945 9.40315 19.4998 9.50216 20.4134 9.8806C21.327 10.259 22.1079 10.8999 22.6573 11.7221C23.2068 12.5444 23.5 13.5111 23.5 14.5C23.5 15.8261 22.9732 17.0978 22.0355 18.0355C21.0979 18.9732 19.8261 19.5 18.5 19.5Z" fill="#193766"/>
</svg>
