<svg xmlns="http://www.w3.org/2000/svg" xmlns:xlink="http://www.w3.org/1999/xlink" viewBox="0 0 2739.41 2426.61"><defs><style>.cls-1{isolation:isolate;}.cls-2{fill:#97a6b7;}.cls-3{fill:url(#linear-gradient);}.cls-4{fill:url(#linear-gradient-2);}.cls-5{fill:url(#linear-gradient-3);}.cls-6{fill:#d8dee8;}.cls-18,.cls-24,.cls-26,.cls-6{mix-blend-mode:multiply;}.cls-24,.cls-26,.cls-6{opacity:0.3;}.cls-7{fill:url(#linear-gradient-4);}.cls-23,.cls-29,.cls-8{fill:#fff;}.cls-10,.cls-8,.cls-9{mix-blend-mode:soft-light;}.cls-8{opacity:0.6;}.cls-12,.cls-9{fill:#f4f7fa;}.cls-11{opacity:0.7;}.cls-13{fill:url(#linear-gradient-5);}.cls-14{fill:url(#linear-gradient-6);}.cls-15{fill:url(#linear-gradient-7);}.cls-16{fill:url(#linear-gradient-8);}.cls-17{fill:url(#linear-gradient-9);}.cls-18{opacity:0.25;fill:url(#linear-gradient-10);}.cls-19{fill:url(#linear-gradient-11);}.cls-20{fill:url(#linear-gradient-12);}.cls-21{fill:url(#linear-gradient-13);}.cls-22{fill:url(#linear-gradient-14);}.cls-24{fill:url(#linear-gradient-15);}.cls-25{fill:url(#linear-gradient-16);}.cls-26{fill:url(#linear-gradient-17);}.cls-27{fill:url(#linear-gradient-18);}.cls-28{fill:url(#linear-gradient-19);}.cls-29{opacity:0.56;}.cls-30{fill:url(#linear-gradient-20);}.cls-31{fill:url(#linear-gradient-21);}</style><linearGradient id="linear-gradient" x1="1465.3" y1="2599.41" x2="1528.54" y2="1988.09" gradientUnits="userSpaceOnUse"><stop offset="0" stop-color="#444b8c"/><stop offset="1" stop-color="#26264f"/></linearGradient><linearGradient id="linear-gradient-2" x1="1026.42" y1="893.7" x2="358.88" y2="971" gradientUnits="userSpaceOnUse"><stop offset="0" stop-color="#444b8c"/><stop offset="0.39" stop-color="#383c74"/><stop offset="1" stop-color="#26264f"/></linearGradient><linearGradient id="linear-gradient-3" x1="2162.52" y1="-332.17" x2="370.71" y2="2394.19" xlink:href="#linear-gradient"/><linearGradient id="linear-gradient-4" x1="1933.18" y1="15.73" x2="-160.77" y2="3086.4" gradientUnits="userSpaceOnUse"><stop offset="0" stop-color="#ffc444"/><stop offset="1" stop-color="#f36f56"/></linearGradient><linearGradient id="linear-gradient-5" x1="2738.6" y1="2179.99" x2="2765.97" y2="2528.4" gradientTransform="matrix(-1, 0, 0, 1, 3809.88, 2.22)" gradientUnits="userSpaceOnUse"><stop offset="0" stop-color="#311944"/><stop offset="1" stop-color="#a03976"/></linearGradient><linearGradient id="linear-gradient-6" x1="2809.27" y1="2373.96" x2="2804.29" y2="2013.12" gradientTransform="matrix(-1, 0, 0, 1, 3809.88, 2.22)" xlink:href="#linear-gradient-4"/><linearGradient id="linear-gradient-7" x1="3255.92" y1="2139.35" x2="3283.29" y2="2487.75" xlink:href="#linear-gradient-5"/><linearGradient id="linear-gradient-8" x1="3283.37" y1="2367.42" x2="3278.39" y2="2006.57" gradientTransform="matrix(-1, 0, 0, 1, 3809.88, 2.22)" xlink:href="#linear-gradient-4"/><linearGradient id="linear-gradient-9" x1="691.01" y1="768.69" x2="1073.96" y2="1970.26" gradientTransform="matrix(1, 0, 0, 1, 0, 0)" xlink:href="#linear-gradient-5"/><linearGradient id="linear-gradient-10" x1="2723.15" y1="1789.41" x2="2989.95" y2="1789.41" gradientTransform="matrix(-1, 0, 0, 1, 3809.88, 2.22)" xlink:href="#linear-gradient"/><linearGradient id="linear-gradient-11" x1="236.29" y1="1431.28" x2="710.59" y2="1765.05" gradientTransform="matrix(1, 0, 0, 1, 0, 0)" xlink:href="#linear-gradient-5"/><linearGradient id="linear-gradient-12" x1="2455.47" y1="544.01" x2="1850.32" y2="1537.55" gradientTransform="matrix(-1, 0, 0, 1, 3017.01, 0)" gradientUnits="userSpaceOnUse"><stop offset="0" stop-color="#aa80f9"/><stop offset="1" stop-color="#6165d7"/></linearGradient><linearGradient id="linear-gradient-13" x1="726.91" y1="322.04" x2="691.77" y2="662.83" gradientUnits="userSpaceOnUse"><stop offset="0" stop-color="#d8dee8"/><stop offset="0.56" stop-color="#eef0f5"/><stop offset="1" stop-color="#fff"/></linearGradient><linearGradient id="linear-gradient-14" x1="4181.1" y1="1336.95" x2="4089.56" y2="1104.45" gradientTransform="matrix(-1, 0.05, 0.05, 1, 4781.86, -885.48)" gradientUnits="userSpaceOnUse"><stop offset="0" stop-color="#444b8c"/><stop offset="1" stop-color="#3e4177"/></linearGradient><linearGradient id="linear-gradient-15" x1="1628.23" y1="1057.23" x2="2060.32" y2="1057.23" xlink:href="#linear-gradient-12"/><linearGradient id="linear-gradient-16" x1="2782.89" y1="743.44" x2="2177.73" y2="1736.98" xlink:href="#linear-gradient-12"/><linearGradient id="linear-gradient-17" x1="1902.97" y1="1194.28" x2="2789.46" y2="1194.28" xlink:href="#linear-gradient-12"/><linearGradient id="linear-gradient-18" x1="1453.48" y1="1259.38" x2="2553.93" y2="1259.38" gradientTransform="matrix(-1, 0, 0, 1, 3017.01, 0)" xlink:href="#linear-gradient"/><linearGradient id="linear-gradient-19" x1="438.56" y1="912.02" x2="1574.03" y2="912.02" gradientTransform="matrix(-1, 0, 0, 1, 3017.01, 0)" xlink:href="#linear-gradient"/><linearGradient id="linear-gradient-20" x1="-7142.62" y1="2512.72" x2="-7714.34" y2="1872.59" gradientTransform="translate(9618.4 2878.46) rotate(29.48)" xlink:href="#linear-gradient"/><linearGradient id="linear-gradient-21" x1="-7983.06" y1="1578.09" x2="-7207.66" y2="2431.68" gradientTransform="translate(9618.4 2878.46) rotate(29.48)" xlink:href="#linear-gradient"/></defs><g class="cls-1"><g id="Layer_2" data-name="Layer 2"><g id="Illustration"><path class="cls-2" d="M1782.55,2049.29a120.3,120.3,0,0,1-79.77-90.57l-59.29-293.44-507.17,18L1073.91,1989c-8.75,42.81,26.25,85.76,66.55,101.53l212.19,83a275.81,275.81,0,0,0,124,18l448.43-38.36a27.81,27.81,0,0,0,25.15-24.64c1.53-13.22,10.71-28.07-1.79-32.21Z"/><path class="cls-3" d="M1787.57,2031.45a119.27,119.27,0,0,1-79.69-89.44l-59.23-289.75-494.8,17.8-62.36,301.86a88.31,88.31,0,0,0,54.63,100.23l212,82A278.51,278.51,0,0,0,1482,2171.89L1930,2134a27.64,27.64,0,0,0,6.28-53.81Z"/><path class="cls-4" d="M100,1860.31c-55,3.28-100-32.4-100-79.55V81.29C0,34.14,45-2.27,100,.11L2643.48,110.32c40.37,1.75,73.07,35.79,73.07,75.89V1631.6c0,40.1-32.7,74.68-73.07,77.08Z"/><path class="cls-5" d="M122.85,1860.31c-55,3.28-100-32.4-100-79.55V81.29c0-47.15,45-83.56,100-81.18L2666.33,110.32c40.38,1.75,73.08,35.79,73.08,75.89V1631.6c0,40.1-32.7,74.68-73.08,77.08Z"/><path class="cls-6" d="M2666.34,144.33,122.85,39.7c-29.4-1.21-53.31,18.22-53.31,43.4V1778.2c0,25.18,23.91,44.21,53.31,42.52l2543.49-146c21.64-1.25,39.14-19.69,39.14-41.21V184.9C2705.48,163.39,2688,145.22,2666.34,144.33Z"/><path class="cls-7" d="M122.85,1676.35c-11.44.57-20.77-6.94-20.77-16.74V84.35c0-9.79,9.33-17.39,20.77-16.94L2666.33,168.15A16,16,0,0,1,2681.64,184V1534.63a16.23,16.23,0,0,1-15.31,16Z"/><path class="cls-8" d="M2400.81,1603.49c-214-132.36-64.53-508.71-304.83-697.8-242.28-190.64-583.19,43.18-752.9-154.25-126.36-147,21.5-324.51-99.16-462.76-189.21-216.8-673.59,81.38-896.13-132.21C316.2,126.14,284.31,80.13,266.17,6.32L122.85.11c-55-2.38-100,34-100,81.18V1780.76c0,47.15,45,82.83,100,79.55l2543.48-151.63c40.38-2.4,73.08-37,73.08-77.08v-25.7C2570.52,1663.21,2467.28,1644.61,2400.81,1603.49Z"/><polygon class="cls-9" points="264.07 1547.87 876.27 1522.33 876.27 1201.37 264.07 1216.22 264.07 1547.87"/><g class="cls-10"><g class="cls-11"><polygon class="cls-12" points="1904.1 995.22 1997.11 993.94 1997.11 313.92 1904.1 311.54 1904.1 995.22"/><polygon class="cls-12" points="1736.25 997.53 1831.06 996.23 1831.06 652.95 1736.25 652.38 1736.25 997.53"/><polygon class="cls-12" points="1565.12 999.9 1661.79 998.56 1661.79 239.64 1565.12 236.81 1565.12 999.9"/><polygon class="cls-12" points="1390.61 1002.3 1489.19 1000.94 1489.19 348.26 1390.61 345.99 1390.61 1002.3"/><polygon class="cls-12" points="1212.62 1004.76 1313.17 1003.37 1313.17 826.63 1212.62 827.02 1212.62 1004.76"/><polygon class="cls-12" points="1031.04 1007.26 1133.63 1005.85 1133.63 586.26 1031.04 585.3 1031.04 1007.26"/><polygon class="cls-12" points="845.77 1009.82 950.45 1008.38 950.45 397.53 845.77 395.48 845.77 1009.82"/><polygon class="cls-12" points="656.7 1012.43 763.53 1010.96 763.53 560.93 656.7 559.81 656.7 1012.43"/><polygon class="cls-12" points="463.69 1015.09 572.75 1013.59 572.75 308.33 463.69 305.72 463.69 1015.09"/><polygon class="cls-12" points="266.63 1017.81 377.98 1016.28 377.98 224.19 266.63 221.05 266.63 1017.81"/></g></g><polygon class="cls-9" points="2082.52 1472 2540.04 1452.91 2540.04 1406.61 2082.52 1424.43 2082.52 1472"/><polygon class="cls-9" points="2082.52 857.93 2540.04 855.22 2540.04 808.91 2082.52 810.36 2082.52 857.93"/><polygon class="cls-9" points="2082.52 776.5 2540.04 775.96 2540.04 729.65 2082.52 728.93 2082.52 776.5"/><polygon class="cls-9" points="2082.52 1406.24 2157.08 1403.41 2157.08 1330.46 2082.52 1332.96 2082.52 1406.24"/><g class="cls-10"><path class="cls-12" d="M432.21,1345.85c38.88,1.46,44.66-21.06,82.95-23.24,64.94-3.69,80.85,59.51,143.42,58.54,51.09-.78,63.94-43.46,114.51-38.73,37.59,3.52,45,28.54,81.64,32.14a89.39,89.39,0,0,0,21.54-.59v148.36l-612.2,25.54V1285.38c32.82,2.36,56.77,9.78,73.93,17.31C379.27,1320.78,393,1344.37,432.21,1345.85Z"/></g><polygon class="cls-9" points="2082.52 664.41 2540.04 666.85 2540.04 265.44 2082.52 252 2082.52 664.41"/><polygon class="cls-9" points="266.63 1179.81 1997.11 1141.16 1997.11 1068.61 266.63 1099.98 266.63 1179.81"/><polygon class="cls-9" points="950.45 1519.23 1997.11 1475.56 1997.11 1169.22 950.45 1194.3 950.45 1519.23"/><path class="cls-13" d="M1012.24,2349.27s110.08,50.35,111.86,58.35-70.86-2.85-100.53-1.77-54.05-7.75-51.34-20.31,13.18-44.13,13.18-44.13Z"/><path class="cls-14" d="M1016.37,2308.63l-6.82,49.6s-17.46,6.17-29.16-1.2l-4.87-54.43Z"/><path class="cls-15" d="M497.42,2308.58l-12.86,20.54a24.57,24.57,0,0,0-3,19.24c4.45,17.12,13.32,50.49,17.2,59.19,5.29,11.86,76.58,19.06,76.58,19.06s6.38-8.93-8.4-19.77-24.29-12.57-29.48-28.53-8.56-61.09-8.56-61.09Z"/><path class="cls-16" d="M550.9,2256.42c-4.69,3.72-27.76,73.18-27.76,73.18s-7.44,9.46-21.49-4.56-6.36-6.29-6.36-6.29l2.81-68.37Z"/><path class="cls-17" d="M1079.4,1312c5.45,148,5.3,308.8-3.63,480.56-10,193.4-29.74,372.14-54.41,534.14-9,.27-18.52.29-28.42,0q-10-.3-19.44-1A1230.8,1230.8,0,0,1,933,2195a1255.33,1255.33,0,0,1-28.14-153C884,1874.39,908.93,1859.82,892,1735.55c-15-110.06-36.66-114.4-61.75-270.67-27.22-169.56-6.59-194.93,3.43-204.1C876.35,1221.78,976.3,1248.64,1079.4,1312Z"/><path class="cls-18" d="M833.68,1260.79c40.7-37.21,133.51-14.4,231.46,42.76-113.13,121.64-125.62,200.7-112.22,252,15.15,58,61.59,74.85,61.26,138.27-.4,77.93-70.79,98.41-69.49,180.88.86,54.53,31.77,54,38.9,121.41,8.45,79.71-32,107.08-19.06,166.07,5.56,25.38,21.54,58.56,67.2,92.82-3.36,24.2-6.8,48.16-10.38,71.67-9,.27-18.51.29-28.41,0q-10-.3-19.44-1A1230.8,1230.8,0,0,1,933,2195a1255.33,1255.33,0,0,1-28.14-153C884,1874.39,908.93,1859.82,892,1735.55c-15-110.06-36.66-114.41-61.75-270.67C803,1295.32,823.66,1269.94,833.68,1260.79Z"/><path class="cls-19" d="M1009.51,1309.36a3323.26,3323.26,0,0,0-457.92,974,59.38,59.38,0,0,1-32.54,5c-21-2.83-33.52-16.25-36.8-20a957.53,957.53,0,0,1-7.88-236c3.43-37.56,9.48-100.12,33.62-177.3,27-86.45,45.48-91.27,80.69-182.71,36.55-94.92,27.81-118.65,62.88-237.47a1569.69,1569.69,0,0,1,78.18-208.28Z"/><path class="cls-20" d="M1405.57,1109.1c-.92,34.53-57.68,65-103.39,74.28-106.86,21.81-230.75-55.83-289.55-141.72-11.55-16.87-24.38-37.32-27.47-35.73-7,3.58,57.25,109.13,85.1,229.18,14.25,61.41,10.52,90.17,37.16,131.06,6,9.26,13.48,18.9,10.86,29.86-6.54,27.44-69.3,34.57-112.83,39.51-46,5.22-88.83,4.72-131.2,4.1-67.83-1-73.17-4.52-88.65,3.08-47.18,23.16-44,78.63-79.49,86-29.81,6.22-60.05-27.08-69.64-37.63-49.85-54.87-47.19-121-56-187.75-20.55-155.13-104.83-325.09-187.27-432.68-25-32.63-42.39-49.8-43.48-80.12C346.5,701.55,487.53,603.28,605,592c32.19-3.1,89.82-2.12,143.85,3,21.59,2,44.58,5,69.29,9.35C878,614.8,919.73,622.09,962.25,641.54c171.43,78.44,134,253.05,319.57,373.77C1345.63,1056.82,1406.54,1072.93,1405.57,1109.1Z"/><path class="cls-21" d="M703.14,499.64s-7.36,41.09-24.31,70.34c-15.32,26.43-78.65,35.91-91.84,40.51s19.9,27.58,55.1,35.91,138.17,13.78,158.33,2.7-13.09-14.47-37.32-27.2-32.32-64.5-24.82-86.51S703.14,499.64,703.14,499.64Z"/><path class="cls-22" d="M770.06,487.74c25.55-18.25,32.62-67.62,18.43-78.7-4-3.17-7.92-1.71-65.57,21.41-28.63,11.49-42.71,17.6-47.35,30.24-2.83,7.72-2.37,18.15.76,26.36,1.61,4.23,4.75,9.49,11.72,19.53,6.2,8.92,5.78,8.62,7.68,11.21,4.56,6.22,13.36,16.7,29.47,28.84a98.8,98.8,0,0,1,4.69-16.33,86.29,86.29,0,0,1,10.44-19.41C750.37,497.49,761.77,493.67,770.06,487.74Z"/><path class="cls-23" d="M704.6,534.69s16.71,24.9,47.67,21.52c27.72-3,29.06-65.53,10.73-78-6.12-4.15-18.06-5.46-27.59-2.34-5.63,1.85-7.45,4.3-16.71,7.14-8.53,2.61-11,1.76-13.52,4.07-3.14,2.89-5.23,9.72,1,27.7-5.54-5.13-12-6.92-16.41-4.59a9.44,9.44,0,0,0-3.55,3.77C682.66,521.26,689.56,530.07,704.6,534.69Z"/><path class="cls-24" d="M1255.67,1103.79c-77.47-17.45-108.35-16.89-146.66-47.76-63.79-51.39-73.37-129.62-110.44-128.67-17.52.46-31.75,18.35-41.88,35.87l28,43.84c0-.55.16-1,.47-1.14,3.09-1.59,15.92,18.86,27.47,35.73,58.8,85.89,182.69,163.53,289.55,141.72,30.64-6.25,66.18-22,86.6-42.1A1322.21,1322.21,0,0,0,1255.67,1103.79Z"/><path class="cls-25" d="M440.28,1401.66c-46.93,4.19-152.59,6.1-227.32-63-124.41-115.09-62.69-334.16-19.39-428.38,49.65-108,128.67-168.49,176.7-205.24,59.58-45.59,95.94-73.41,139.69-67.18,113.16,16.11,191.52,248,129.4,314.42C619,974,598.89,961.66,540,980.41c-19.16,6.1-162.21,51.66-187.11,157-17.43,73.74,26.95,160.08,105.94,218.06Q449.57,1378.56,440.28,1401.66Z"/><path class="cls-26" d="M966.41,1363.46c-53.14-33.58-61-67.62-120.51-90.62-77.3-29.88-114.45,8.08-152.78-22.57-45.61-36.46-5.23-100-39.36-210.24C648,1021.32,604,879.19,503,861.08c-47.08-8.45-109.27,9.59-133.23,49.49-18.75,31.22-1.28,54.5-24.08,89s-50,26-79.08,54.75c-46.12,45.62-53.19,141.82-11.55,196.23,19.42,25.37,44.65,35.41,92.14,54.29a447.14,447.14,0,0,0,79.19,23.26c-58.15-55.81-88.32-127.78-73.46-190.65,15.52-65.67,76.95-108.1,125.66-132.23,48.75,91.73,88.59,198,101.85,298.18,8.84,66.72,6.18,132.88,56,187.75,9.59,10.55,39.83,43.85,69.64,37.63,35.51-7.4,32.31-62.87,79.49-86,15.48-7.6,20.82-4.07,88.65-3.08,42.37.62,85.23,1.12,131.2-4.1,38.71-4.39,92.53-10.55,108.6-31.16C1044.15,1402.48,997.51,1383.11,966.41,1363.46Z"/><path class="cls-27" d="M471.1,1438.55l-5.47-16.09c-8.71-25.64,5.62-53,32-61L1532,1046.34l31.52,106.83-1029.15,317C508.13,1478.24,479.79,1464.11,471.1,1438.55Z"/><path class="cls-28" d="M2174.93,1474.43c-296.33,96-613.9-71.89-706.5-383.19-94.83-318.78,83.86-657,396-746.83,306.49-88.24,616.41,100,695.49,412.5C2637.18,1062.24,2466.15,1380,2174.93,1474.43Zm-23.91-87c245.9-79,390-347.2,324-604.51-67.3-262.33-328.1-419.08-584.79-344.4-260.64,75.82-410.18,358.39-331.8,625.17C1635.29,1325.19,1901.48,1467.58,2151,1387.4Z"/><path class="cls-6" d="M1532,1046.34l-131.88,40.17c-9.05,42.07-26.65,66.17-44.36,80.84-66.62,55.23-155.57-5-279.68,59.75-62.27,32.5-50.44,53.17-108.81,75.85-96.51,37.48-140.68-14.44-226.09,19.68-86.39,34.51-94.91,109.08-143.9,106.41-21-1.15-47.94-16.4-78-74.2l-21.64,6.59c-26.38,8-40.71,35.38-32,61l5.47,16.09c8.69,25.56,37,39.69,63.28,31.61l1029.15-317Z"/><path class="cls-29" d="M2175.44,1430.16c-258.11,83.06-533.69-64-613.38-334.67-81.35-276.27,73.51-569,343.52-647.36,265.78-77.18,535.58,85.3,605.05,356.8C2578.73,1071,2429.66,1348.35,2175.44,1430.16Z"/><path class="cls-30" d="M2195,1501.22c-296.33,96-613.9-71.89-706.51-383.19-94.83-318.78,83.86-656.95,396-746.82,306.49-88.25,616.4,100.05,695.49,412.49C2657.21,1089,2486.18,1406.84,2195,1501.22Zm-23.92-87c245.9-79,390-347.21,324-604.51-67.3-262.33-328.09-419.08-584.79-344.4-260.63,75.82-410.17,358.38-331.8,625.17C1655.32,1352,1921.52,1494.37,2171.05,1414.2Z"/><path class="cls-31" d="M2186.53,1470.51c-279.81,90.41-579.19-68.54-666.17-362.24-89-300.35,79.4-618.8,373.24-703.71C2182.45,321.08,2475,498.16,2550,792.88,2623.31,1081.26,2461.77,1381.58,2186.53,1470.51Zm-15.48-56.31c245.9-79,390-347.21,324-604.51-67.3-262.33-328.09-419.08-584.79-344.4-260.63,75.82-410.17,358.38-331.8,625.17C1655.32,1352,1921.52,1494.37,2171.05,1414.2Z"/><path class="cls-23" d="M444.27,1391.76l10.45-26s17.07,1,31.07-9c7.63-5.47,21.18-7.1,25.11-6s18.8.44,1.86,8.53S496,1373.38,503,1380s33.93,20.9,43.61,21.59-7.82,15.65-17.57,17.56-25.75,4.32-45.54-7.33C476.29,1407.58,444.27,1391.76,444.27,1391.76Z"/><path class="cls-23" d="M1381.86,1170.41s43.72-4.35,69.77-15.49,42.88,4.85,40.49,15.94-45.25,26.5-62.38,27.05S1381.86,1170.41,1381.86,1170.41Z"/></g></g></g></svg>