<svg xmlns="http://www.w3.org/2000/svg" xmlns:xlink="http://www.w3.org/1999/xlink" viewBox="0 0 1859.87 1458"><defs><style>.cls-1{fill:none;}.cls-2{fill:#bdd0fb;}.cls-3{fill:#dce5fe;}.cls-4{fill:#91b3fa;}.cls-5{fill:#7d97f4;}.cls-6{fill:url(#linear-gradient);}.cls-7{fill:url(#linear-gradient-2);}.cls-8{fill:url(#linear-gradient-3);}.cls-9{fill:url(#linear-gradient-4);}.cls-10{fill:url(#linear-gradient-5);}.cls-11{fill:url(#linear-gradient-6);}.cls-12{fill:url(#linear-gradient-7);}.cls-13{fill:url(#linear-gradient-8);}.cls-14{fill:url(#linear-gradient-9);}.cls-15{fill:url(#linear-gradient-10);}.cls-16{fill:url(#linear-gradient-11);}.cls-17{fill:url(#linear-gradient-12);}.cls-18{fill:url(#linear-gradient-13);}.cls-19{fill:url(#linear-gradient-14);}.cls-20{clip-path:url(#clip-path);}.cls-21{fill:url(#linear-gradient-15);}.cls-22{fill:url(#linear-gradient-16);}.cls-23{fill:url(#linear-gradient-17);}.cls-24{fill:url(#linear-gradient-18);}.cls-25{fill:url(#linear-gradient-19);}.cls-26{fill:url(#linear-gradient-20);}.cls-27{fill:url(#linear-gradient-21);}.cls-28{fill:url(#linear-gradient-22);}.cls-29{fill:url(#linear-gradient-23);}.cls-30{fill:url(#linear-gradient-24);}.cls-31{fill:url(#linear-gradient-25);}.cls-32{fill:url(#linear-gradient-26);}.cls-33{fill:url(#linear-gradient-27);}.cls-34{fill:url(#linear-gradient-28);}.cls-35{fill:url(#linear-gradient-29);}.cls-36{fill:url(#linear-gradient-30);}.cls-37{fill:url(#linear-gradient-31);}.cls-38{fill:url(#linear-gradient-32);}.cls-39{fill:url(#linear-gradient-33);}.cls-40{fill:url(#linear-gradient-34);}.cls-41{fill:url(#linear-gradient-35);}.cls-42{fill:url(#linear-gradient-36);}.cls-43{fill:url(#linear-gradient-37);}.cls-44{fill:url(#linear-gradient-38);}.cls-45{fill:url(#linear-gradient-39);}.cls-46{fill:url(#linear-gradient-40);}.cls-47{fill:url(#linear-gradient-41);}.cls-48{fill:url(#linear-gradient-42);}.cls-49{fill:url(#linear-gradient-43);}.cls-50{fill:url(#linear-gradient-44);}.cls-51{fill:url(#linear-gradient-45);}.cls-52{fill:url(#linear-gradient-46);}.cls-53{fill:url(#linear-gradient-47);}.cls-54{fill:url(#linear-gradient-48);}.cls-55{fill:url(#linear-gradient-49);}.cls-56{fill:url(#linear-gradient-50);}.cls-57{fill:url(#linear-gradient-51);}.cls-58{fill:url(#linear-gradient-52);}.cls-59{fill:url(#linear-gradient-53);}.cls-60{fill:url(#linear-gradient-54);}.cls-61{fill:url(#linear-gradient-55);}.cls-62{fill:url(#linear-gradient-56);}.cls-63{fill:url(#linear-gradient-57);}.cls-64{fill:url(#linear-gradient-58);}.cls-65{fill:url(#linear-gradient-59);}.cls-66{fill:url(#linear-gradient-60);}.cls-67{fill:url(#linear-gradient-61);}.cls-68{fill:url(#linear-gradient-62);}.cls-69{fill:url(#linear-gradient-63);}.cls-70{fill:url(#linear-gradient-64);}.cls-71{fill:url(#linear-gradient-65);}.cls-72{fill:url(#linear-gradient-66);}.cls-73{fill:url(#linear-gradient-67);}.cls-74{fill:url(#linear-gradient-68);}.cls-75{fill:url(#linear-gradient-69);}.cls-76{fill:url(#linear-gradient-70);}.cls-77{fill:url(#linear-gradient-71);}.cls-78{fill:url(#linear-gradient-72);}.cls-79{fill:url(#linear-gradient-73);}.cls-80{fill:url(#linear-gradient-74);}.cls-81{fill:url(#linear-gradient-75);}.cls-82{fill:url(#linear-gradient-76);}.cls-83{fill:url(#linear-gradient-77);}.cls-84{fill:url(#linear-gradient-78);}.cls-85{fill:url(#linear-gradient-79);}.cls-86{fill:url(#linear-gradient-80);}.cls-87{fill:url(#linear-gradient-81);}.cls-88{fill:url(#linear-gradient-82);}.cls-89{fill:url(#linear-gradient-83);}.cls-90{fill:url(#linear-gradient-84);}.cls-91{fill:url(#linear-gradient-85);}.cls-92{fill:url(#linear-gradient-86);}.cls-93{fill:url(#linear-gradient-87);}.cls-94{fill:url(#linear-gradient-88);}.cls-95{opacity:0.28;fill:url(#linear-gradient-89);}.cls-96{fill:url(#linear-gradient-90);}</style><linearGradient id="linear-gradient" x1="632.62" y1="286.5" x2="807.02" y2="680.31" gradientTransform="matrix(-1, 0, 0, 1, 2036.52, 0)" gradientUnits="userSpaceOnUse"><stop offset="0" stop-color="#ff928e"/><stop offset="1" stop-color="#feb3b1"/></linearGradient><linearGradient id="linear-gradient-2" x1="630.16" y1="287.59" x2="804.56" y2="681.4" xlink:href="#linear-gradient"/><linearGradient id="linear-gradient-3" x1="637.18" y1="284.48" x2="811.59" y2="678.29" xlink:href="#linear-gradient"/><linearGradient id="linear-gradient-4" x1="635.08" y1="285.41" x2="809.48" y2="679.22" xlink:href="#linear-gradient"/><linearGradient id="linear-gradient-5" x1="627.75" y1="288.66" x2="802.15" y2="682.47" xlink:href="#linear-gradient"/><linearGradient id="linear-gradient-6" x1="399.92" y1="481.54" x2="768.42" y2="689.69" gradientTransform="matrix(-1, 0, 0, 1, 2036.52, 0)" gradientUnits="userSpaceOnUse"><stop offset="0" stop-color="#fe7062"/><stop offset="1" stop-color="#ff928e"/></linearGradient><linearGradient id="linear-gradient-7" x1="392.3" y1="495.03" x2="760.79" y2="703.19" xlink:href="#linear-gradient-6"/><linearGradient id="linear-gradient-8" x1="414.46" y1="455.8" x2="782.95" y2="663.96" xlink:href="#linear-gradient-6"/><linearGradient id="linear-gradient-9" x1="407.54" y1="468.04" x2="776.04" y2="676.2" xlink:href="#linear-gradient-6"/><linearGradient id="linear-gradient-10" x1="385.28" y1="507.46" x2="753.77" y2="715.62" xlink:href="#linear-gradient-6"/><linearGradient id="linear-gradient-11" x1="424.89" y1="1446.86" x2="713.89" y2="1059.17" gradientTransform="matrix(-1, 0, 0, 1, 2036.52, 0)" gradientUnits="userSpaceOnUse"><stop offset="0" stop-color="#09005d"/><stop offset="1" stop-color="#1a0f91"/></linearGradient><linearGradient id="linear-gradient-12" x1="911.6" y1="509.32" x2="1437.64" y2="1446.21" gradientTransform="matrix(-1, 0, 0, 1, 2036.52, 0)" gradientUnits="userSpaceOnUse"><stop offset="0" stop-color="#4042e2"/><stop offset="1" stop-color="#4f52ff"/></linearGradient><linearGradient id="linear-gradient-13" x1="1904.23" y1="629.19" x2="1368.5" y2="852.42" xlink:href="#linear-gradient-11"/><linearGradient id="linear-gradient-14" x1="1364.43" y1="823.34" x2="1577.01" y2="804.02" xlink:href="#linear-gradient-12"/><clipPath id="clip-path"><path class="cls-1" d="M576.68,1186.17c7.3-7.42,23.2-36.06,36.83-110.12,13.18-71.56,20.43-164.39,20.43-261.38s-7.25-189.81-20.43-261.38c-13.63-74.06-29.53-102.7-36.83-110.12-7.3,7.42-23.2,36.06-36.84,110.12C526.67,624.86,422.7,717.68,422.7,814.67s104,189.82,117.14,261.38C553.48,1150.11,569.38,1178.75,576.68,1186.17Z"/></clipPath><linearGradient id="linear-gradient-15" x1="1632.64" y1="801.54" x2="1059.31" y2="834.44" gradientTransform="matrix(-1, 0, 0, 1, 2036.52, 0)" gradientUnits="userSpaceOnUse"><stop offset="0" stop-color="#020039"/><stop offset="1" stop-color="#090056"/></linearGradient><linearGradient id="linear-gradient-16" x1="546.6" y1="1005.24" x2="525.45" y2="473.06" xlink:href="#linear-gradient-11"/><linearGradient id="linear-gradient-17" x1="746.96" y1="590.71" x2="1376.34" y2="590.71" gradientTransform="matrix(-1, 0, 0, 1, 2036.52, 0)" gradientUnits="userSpaceOnUse"><stop offset="0" stop-color="#dae3fe"/><stop offset="1" stop-color="#e9effd"/></linearGradient><linearGradient id="linear-gradient-18" x1="662.77" y1="717.64" x2="701.59" y2="717.64" xlink:href="#linear-gradient-17"/><linearGradient id="linear-gradient-19" x1="1417.36" y1="757.08" x2="1547.5" y2="757.08" xlink:href="#linear-gradient-17"/><linearGradient id="linear-gradient-20" x1="6012.8" y1="1374.11" x2="5798.03" y2="1607.71" gradientTransform="matrix(-1, 0.01, 0.01, 1, 7021.17, -55.55)" xlink:href="#linear-gradient-11"/><linearGradient id="linear-gradient-21" x1="5943.09" y1="1391.45" x2="5962.17" y2="1391.45" gradientTransform="matrix(-1, 0.01, 0.01, 1, 7021.17, -55.55)" gradientUnits="userSpaceOnUse"><stop offset="0" stop-color="#8b4513"/><stop offset="1" stop-color="#feb3b1"/></linearGradient><linearGradient id="linear-gradient-22" x1="6029.72" y1="1109.9" x2="5846.96" y2="1357.61" gradientTransform="matrix(-1, 0.01, 0.01, 1, 7021.17, -55.55)" xlink:href="#linear-gradient-11"/><linearGradient id="linear-gradient-23" x1="5964.62" y1="1329.8" x2="5749.84" y2="1563.42" gradientTransform="matrix(-1, 0.01, 0.01, 1, 7021.17, -55.55)" xlink:href="#linear-gradient-11"/><linearGradient id="linear-gradient-24" x1="5874.33" y1="1390.47" x2="5890.8" y2="1390.47" xlink:href="#linear-gradient-21"/><linearGradient id="linear-gradient-25" x1="5997.15" y1="1085.87" x2="5814.39" y2="1333.57" gradientTransform="matrix(-1, 0.01, 0.01, 1, 7021.17, -55.55)" xlink:href="#linear-gradient-11"/><linearGradient id="linear-gradient-26" x1="1033.74" y1="940.64" x2="1134.99" y2="834.39" gradientTransform="matrix(-1, 0, 0, 1, 2036.52, 0)" xlink:href="#linear-gradient-21"/><linearGradient id="linear-gradient-27" x1="1026.66" y1="933.9" x2="1127.91" y2="827.64" gradientTransform="matrix(-1, 0, 0, 1, 2036.52, 0)" gradientUnits="userSpaceOnUse"><stop offset="0" stop-color="#8b4513"/><stop offset="0.32" stop-color="#8d4715"/><stop offset="0.47" stop-color="#924c1d"/><stop offset="0.59" stop-color="#9c552a"/><stop offset="0.7" stop-color="#a9623d"/><stop offset="0.79" stop-color="#bb7355"/><stop offset="0.87" stop-color="#d18873"/><stop offset="0.95" stop-color="#eaa096"/><stop offset="1" stop-color="#feb3b1"/></linearGradient><linearGradient id="linear-gradient-28" x1="6118.61" y1="827.86" x2="6145.9" y2="785.9" xlink:href="#linear-gradient-21"/><linearGradient id="linear-gradient-29" x1="5808.34" y1="1031.79" x2="5931.68" y2="1031.79" xlink:href="#linear-gradient-21"/><linearGradient id="linear-gradient-30" x1="939.6" y1="887.3" x2="915.22" y2="979.18" gradientTransform="matrix(-1, 0, 0, 1, 2036.52, 0)" xlink:href="#linear-gradient-21"/><linearGradient id="linear-gradient-31" x1="935.96" y1="819.83" x2="958.47" y2="885.46" gradientTransform="matrix(-1, 0, 0, 1, 2036.52, 0)" xlink:href="#linear-gradient-21"/><linearGradient id="linear-gradient-32" x1="-1466.92" y1="1970.39" x2="-1451.67" y2="2057.34" gradientTransform="matrix(-0.75, -0.66, -0.66, 0.75, 1341.9, -1646.67)" xlink:href="#linear-gradient-15"/><linearGradient id="linear-gradient-33" x1="917.32" y1="826.23" x2="939.83" y2="891.85" gradientTransform="matrix(-1, 0, 0, 1, 2036.52, 0)" xlink:href="#linear-gradient-21"/><linearGradient id="linear-gradient-34" x1="5675.96" y1="953.05" x2="5744.02" y2="1236.63" gradientTransform="matrix(-1, 0, 0, 1, 6742.18, 0)" xlink:href="#linear-gradient-11"/><linearGradient id="linear-gradient-35" x1="5629.33" y1="1028.07" x2="5667.89" y2="1028.07" gradientTransform="matrix(-1, 0, 0, 1, 6742.18, 0)" xlink:href="#linear-gradient-21"/><linearGradient id="linear-gradient-36" x1="4903.45" y1="983.3" x2="4913.62" y2="1025.68" gradientTransform="translate(-3864.66)" xlink:href="#linear-gradient-12"/><linearGradient id="linear-gradient-37" x1="949.52" y1="982.52" x2="1032.26" y2="982.52" xlink:href="#linear-gradient-17"/><linearGradient id="linear-gradient-38" x1="646.22" y1="1261.65" x2="539.79" y2="1502.52" xlink:href="#linear-gradient-12"/><linearGradient id="linear-gradient-39" x1="734.07" y1="1300.46" x2="627.64" y2="1541.34" xlink:href="#linear-gradient-12"/><linearGradient id="linear-gradient-40" x1="658.39" y1="1298.34" x2="658.39" y2="1204.12" xlink:href="#linear-gradient-12"/><linearGradient id="linear-gradient-41" x1="836.66" y1="1278.76" x2="816.12" y2="1420.67" xlink:href="#linear-gradient-11"/><linearGradient id="linear-gradient-42" x1="782.5" y1="1400.65" x2="802.84" y2="1400.65" xlink:href="#linear-gradient"/><linearGradient id="linear-gradient-43" x1="938.4" y1="1293.48" x2="917.86" y2="1435.39" xlink:href="#linear-gradient-11"/><linearGradient id="linear-gradient-44" x1="729.99" y1="1402.78" x2="714.52" y2="1511.06" gradientTransform="matrix(-1, 0, 0, 1, 2036.52, 0)" gradientUnits="userSpaceOnUse"><stop offset="0" stop-color="#e1473d"/><stop offset="1" stop-color="#e9605a"/></linearGradient><linearGradient id="linear-gradient-45" x1="878.84" y1="1402.37" x2="903.12" y2="1402.37" xlink:href="#linear-gradient"/><linearGradient id="linear-gradient-46" x1="722.13" y1="1435.75" x2="784.01" y2="1224.8" xlink:href="#linear-gradient-44"/><linearGradient id="linear-gradient-47" x1="757.74" y1="1032.65" x2="721.18" y2="1088.43" xlink:href="#linear-gradient"/><linearGradient id="linear-gradient-48" x1="694.44" y1="1128.79" x2="826.29" y2="1345.26" xlink:href="#linear-gradient-12"/><linearGradient id="linear-gradient-49" x1="884.72" y1="1011.55" x2="732.84" y2="1129.69" xlink:href="#linear-gradient-11"/><linearGradient id="linear-gradient-50" x1="846.24" y1="1177.59" x2="902.33" y2="1177.59" xlink:href="#linear-gradient"/><linearGradient id="linear-gradient-51" x1="790.35" y1="990.79" x2="751.91" y2="1026.41" xlink:href="#linear-gradient"/><linearGradient id="linear-gradient-52" x1="2619.21" y1="1503.32" x2="2673.64" y2="1573.4" gradientTransform="matrix(-0.99, -0.13, -0.13, 0.99, 4095.64, -180.02)" xlink:href="#linear-gradient-15"/><linearGradient id="linear-gradient-53" x1="782.38" y1="982.19" x2="743.94" y2="1017.82" xlink:href="#linear-gradient"/><linearGradient id="linear-gradient-54" x1="3579.84" y1="-8094.27" x2="3429.82" y2="-7949.24" gradientTransform="matrix(1.39, -0.07, 0.07, 1.39, 8795.99, -193.77)" xlink:href="#linear-gradient-15"/><linearGradient id="linear-gradient-55" x1="1019" y1="-8088.43" x2="869" y2="-7943.41" gradientTransform="matrix(-0.65, -1.23, 1.23, -0.65, -5063.33, -8351.8)" xlink:href="#linear-gradient-15"/><linearGradient id="linear-gradient-56" x1="1259.72" y1="1418.69" x2="1285.27" y2="1257.99" gradientTransform="matrix(1, 0, 0, -1, -501.38, 2721.29)" xlink:href="#linear-gradient-12"/><linearGradient id="linear-gradient-57" x1="1269.97" y1="1420.31" x2="1295.51" y2="1259.61" xlink:href="#linear-gradient-12"/><linearGradient id="linear-gradient-58" x1="1250.23" y1="1417.18" x2="1275.77" y2="1256.48" xlink:href="#linear-gradient-12"/><linearGradient id="linear-gradient-59" x1="1149.22" y1="1338.09" x2="1081.09" y2="1382.47" xlink:href="#linear-gradient"/><linearGradient id="linear-gradient-60" x1="1191.38" y1="1371.13" x2="1179.02" y2="1560.67" xlink:href="#linear-gradient-12"/><linearGradient id="linear-gradient-61" x1="1241.56" y1="1299.96" x2="1114.68" y2="1326.84" xlink:href="#linear-gradient"/><linearGradient id="linear-gradient-62" x1="1251.07" y1="1251.48" x2="1266.07" y2="1521.5" xlink:href="#linear-gradient-6"/><linearGradient id="linear-gradient-63" x1="1072.09" y1="1363.35" x2="1059.73" y2="1552.9" xlink:href="#linear-gradient-12"/><linearGradient id="linear-gradient-64" x1="1290.66" y1="897.75" x2="1261.4" y2="1051.44" xlink:href="#linear-gradient-15"/><linearGradient id="linear-gradient-65" x1="1277.86" y1="1250" x2="1292.86" y2="1520.01" xlink:href="#linear-gradient-6"/><linearGradient id="linear-gradient-66" x1="1221.95" y1="1014.16" x2="1252.58" y2="1067.29" xlink:href="#linear-gradient"/><linearGradient id="linear-gradient-67" x1="1251.65" y1="973.51" x2="1197.27" y2="1002.26" xlink:href="#linear-gradient"/><linearGradient id="linear-gradient-68" x1="-1183.98" y1="4748.71" x2="-1213.23" y2="4902.4" gradientTransform="matrix(-0.6, -0.8, -0.8, 0.6, 3946.92, -2884.07)" xlink:href="#linear-gradient-15"/><linearGradient id="linear-gradient-69" x1="1253.32" y1="977.26" x2="1198.94" y2="1006.01" xlink:href="#linear-gradient"/><linearGradient id="linear-gradient-70" x1="1291.4" y1="1177.26" x2="1458" y2="1177.26" xlink:href="#linear-gradient"/><linearGradient id="linear-gradient-71" x1="1217.69" y1="1319.43" x2="1112.82" y2="1348.18" gradientTransform="matrix(-1, -0.05, -0.05, 1, 2023.37, -97.6)" xlink:href="#linear-gradient-11"/><linearGradient id="linear-gradient-72" x1="1152.62" y1="1092.35" x2="1078.21" y2="1171" xlink:href="#linear-gradient-11"/><linearGradient id="linear-gradient-73" x1="-9773.3" y1="1548.28" x2="-9772.2" y2="1664.75" gradientTransform="translate(10424.28)" xlink:href="#linear-gradient-11"/><linearGradient id="linear-gradient-74" x1="-9801.38" y1="1418.2" x2="-9807.42" y2="1370.96" gradientTransform="translate(10424.28)" xlink:href="#linear-gradient-21"/><linearGradient id="linear-gradient-75" x1="-9930.67" y1="1549.76" x2="-9929.57" y2="1666.23" gradientTransform="translate(10424.28)" xlink:href="#linear-gradient-11"/><linearGradient id="linear-gradient-76" x1="-9933.47" y1="1434.4" x2="-9939.35" y2="1388.36" gradientTransform="translate(10424.28)" xlink:href="#linear-gradient-21"/><linearGradient id="linear-gradient-77" x1="-9974.62" y1="1259.44" x2="-9793.35" y2="1259.44" gradientTransform="translate(10424.28)" xlink:href="#linear-gradient-11"/><linearGradient id="linear-gradient-78" x1="-9937.02" y1="1231.63" x2="-9930.43" y2="1218.45" gradientTransform="translate(10424.28)" xlink:href="#linear-gradient-12"/><linearGradient id="linear-gradient-79" x1="-9888.96" y1="1132" x2="-9806.42" y2="1132" gradientTransform="translate(10424.28)" xlink:href="#linear-gradient-21"/><linearGradient id="linear-gradient-80" x1="-9812.89" y1="1028.53" x2="-9658.75" y2="1028.53" gradientTransform="translate(10424.28)" xlink:href="#linear-gradient-21"/><linearGradient id="linear-gradient-81" x1="-9868.39" y1="942.08" x2="-9814.74" y2="887.04" gradientTransform="translate(10424.28)" xlink:href="#linear-gradient-21"/><linearGradient id="linear-gradient-82" x1="-9790.59" y1="852.36" x2="-9857.47" y2="940.84" gradientTransform="translate(10424.28)" xlink:href="#linear-gradient-21"/><linearGradient id="linear-gradient-83" x1="-9841.67" y1="873.71" x2="-9761.78" y2="873.71" gradientTransform="translate(10424.28)" gradientUnits="userSpaceOnUse"><stop offset="0"/><stop offset="1" stop-color="#8b4513"/></linearGradient><linearGradient id="linear-gradient-84" x1="-9888.54" y1="922.43" x2="-9834.9" y2="867.4" gradientTransform="translate(10424.28)" gradientUnits="userSpaceOnUse"><stop offset="0" stop-color="#8b4513"/><stop offset="0.31" stop-color="#8b4513"/><stop offset="0.37" stop-color="#8b4513"/><stop offset="0.62" stop-color="#8c4615"/><stop offset="0.71" stop-color="#914b1c"/><stop offset="0.78" stop-color="#9a5328"/><stop offset="0.84" stop-color="#a75f39"/><stop offset="0.88" stop-color="#b76f4f"/><stop offset="0.93" stop-color="#cb826b"/><stop offset="0.96" stop-color="#e2988a"/><stop offset="1" stop-color="#fdb2af"/><stop offset="1" stop-color="#feb3b1"/></linearGradient><linearGradient id="linear-gradient-85" x1="-9791.43" y1="1172.94" x2="-9903.3" y2="1245.46" gradientTransform="translate(10424.28)" xlink:href="#linear-gradient"/><linearGradient id="linear-gradient-86" x1="-5985.59" y1="1256.85" x2="-5986.14" y2="1223.91" gradientTransform="translate(6598.28)" xlink:href="#linear-gradient-44"/><linearGradient id="linear-gradient-87" x1="786.8" y1="225.87" x2="1386.71" y2="225.87" xlink:href="#linear-gradient-12"/><linearGradient id="linear-gradient-88" x1="778.43" y1="263.68" x2="834.07" y2="263.68" xlink:href="#linear-gradient-6"/><linearGradient id="linear-gradient-89" x1="2258.09" y1="1267.76" x2="2325.38" y2="1267.76" gradientTransform="matrix(-0.9, -0.43, -0.43, 0.9, 3798.24, 49.2)" xlink:href="#linear-gradient-17"/><linearGradient id="linear-gradient-90" x1="815.28" y1="206.3" x2="889.92" y2="206.3" xlink:href="#linear-gradient-6"/></defs><g id="Layer_2" data-name="Layer 2"><g id="Illustration"><path class="cls-2" d="M1705.13,354.63a4.41,4.41,0,0,1,8.7.13c3.66,24.75,10.66,56.33,23.77,76.95,24.31,38.26,68.48,177.59-52.79,247.06S1533.71,785,1534.61,918.4c.82,121.92-6.52,382.1-7.78,426a6.54,6.54,0,0,1-6.55,6.34h0a6.54,6.54,0,0,1-6.54-6.51c-.16-57.06-1-471.82,9.43-572.32C1539.66,612.63,1673.94,531.05,1705.13,354.63Z"/><path class="cls-3" d="M1703.06,460a80.41,80.41,0,0,1,2.82,12.46c.39,2.12.59,4.27.8,6.42s.29,4.3.39,6.45a114.09,114.09,0,0,1-2,25.64c-3.32,16.85-10.73,32.67-20.67,46.66-1.26,1.74-2.41,3.56-3.76,5.23l-4.2,4.92-4.2,4.92-4.5,4.73c-6.11,6.23-12.57,12.16-19.2,18-13.25,11.63-27.15,22.82-40.26,35.11a254.08,254.08,0,0,0-35.79,40.52,237.07,237.07,0,0,0-14,23.24l-3,6.08q-1.53,3-2.85,6.14l-2.7,6.21-2.43,6.32c-1.7,4.18-3,8.5-4.46,12.75s-2.55,8.63-3.77,13c-1,4.37-2.19,8.72-3.08,13.11s-1.87,8.78-2.52,13.22a414.36,414.36,0,0,0-5.37,53.34,2.38,2.38,0,0,0,4.75.26c2.63-35.2,8.35-70.41,21.27-103l2.45-6.08,2.71-6c.87-2,1.83-4,2.84-5.89l3-5.83a228,228,0,0,1,13.83-22.16,256.18,256.18,0,0,1,16.43-20.34c5.83-6.5,12.09-12.63,18.52-18.61,12.88-12,26.74-23,40.26-34.71,6.75-5.86,13.42-11.91,19.79-18.33l4.71-4.89,4.43-5.24,4.42-5.24c1.42-1.79,2.65-3.73,4-5.6,10.5-15,18.2-32.24,21-50.43l.93-6.83c.25-2.28.3-4.58.45-6.86a102.5,102.5,0,0,0-.3-13.73c-.23-2.28-.38-4.56-.8-6.82s-.69-4.52-1.23-6.74a74.56,74.56,0,0,0-4-13.26,2.52,2.52,0,0,0-4.74,1.71Z"/><path class="cls-4" d="M1749.3,735.17a5.69,5.69,0,0,1,10.65.9c12.48,46.43,38.26,185-75.67,250.62-138.06,79.48-141.39,43.53-158.61,183.47-14.82,120.45-19.87,193.69-21,211.76a4.71,4.71,0,0,1-4.7,4.41h0a4.7,4.7,0,0,1-4.7-4.86c1.3-37.92,10.79-288.52,37.89-411.1C1581.38,752.35,1694.26,856.16,1749.3,735.17Z"/><path class="cls-3" d="M1746.55,760.56a85.94,85.94,0,0,1-7.58,22.79,123.13,123.13,0,0,1-12.71,20.39c-9.8,12.7-22.06,23.33-35.44,32.2-6.62,4.61-13.76,8.22-20.92,12.15l-11.05,5.9c-3.64,2-7.21,4.21-10.82,6.31a293,293,0,0,0-40.68,29.43,247.85,247.85,0,0,0-34,37.09l-7.13,10.38c-1.24,1.69-2.21,3.56-3.29,5.36l-3.17,5.43-3.17,5.44-2.77,5.64c-1.8,3.78-3.73,7.5-5.43,11.32-3,7.8-6.51,15.42-8.79,23.47-1.25,4-2.57,7.94-3.66,12l-2.87,12.17-1.43,6.07-1,6.15-2,12.3c-.75,4.09-1,8.25-1.41,12.37l-1.2,12.38a1.63,1.63,0,0,0,3.23.41l0-.11c1.27-8.12,2.31-16.27,3.76-24.33l2.49-12,1.26-6,1.64-5.91,3.27-11.81c1.21-3.9,2.7-7.7,4-11.57,2.4-7.81,6-15.14,9.08-22.66,1.74-3.68,3.7-7.24,5.54-10.86L1563,957l3.19-5.18,3.19-5.19c1.08-1.71,2.06-3.5,3.3-5.1l7.11-9.86a249.8,249.8,0,0,1,33.24-35.34A303.21,303.21,0,0,1,1652.64,868c3.53-2,7-4.15,10.57-6.13l10.81-5.72c7.28-4,14.83-8,21.72-12.91,13.93-9.56,26.56-21.33,36.23-35.33a111.62,111.62,0,0,0,11.84-22.46,97.49,97.49,0,0,0,3.74-12.12,59.26,59.26,0,0,0,1.77-12.62,1.38,1.38,0,0,0-2.74-.28Z"/><path class="cls-2" d="M1517.8,1386.33a4.74,4.74,0,0,1-4.69-5.53c4.88-28.83,33.44-160.68,148.46-161.73,101.9-.93,163.74,50,185.29,71.49a7.11,7.11,0,0,1-3.1,11.88c-13.92,3.83-37.08,13.14-51.94,34.71-22.41,32.52-80.5,27.42-116.69-17.29-35.86-44.3-125.18-70.83-152.67,62.64a4.76,4.76,0,0,1-4.66,3.83Z"/><path class="cls-3" d="M1799.4,1275.65a174.23,174.23,0,0,0-25.18-17.62c-4.42-2.59-8.94-5-13.55-7.3s-9.27-4.43-14-6.35a213.24,213.24,0,0,0-29.36-9.67,198.81,198.81,0,0,0-30.61-4.94,158.14,158.14,0,0,0-31.07.39,146.41,146.41,0,0,0-30.38,6.47l-3.7,1.18-3.61,1.43c-2.39,1-4.82,1.86-7.18,2.91a140.29,140.29,0,0,0-13.73,7.11,162.17,162.17,0,0,0-25,17.83,1.44,1.44,0,0,0,1.71,2.3l.07-.05c8.36-5.58,16.67-11.18,25.73-15.36,4.4-2.33,9.09-4,13.63-6,2.32-.88,4.69-1.6,7-2.42l3.51-1.18,3.59-.94a147.53,147.53,0,0,1,29.1-5.13c2.46-.14,4.91-.46,7.37-.46l7.4-.12c4.93.17,9.86.3,14.77.81,19.69,1.73,39,6.84,57.69,13.63a328,328,0,0,1,54.08,25.75l.06,0a1.43,1.43,0,0,0,1.67-2.32Z"/><path class="cls-2" d="M1290.18,57.52A5.64,5.64,0,0,1,1300.73,55c13.46,23.85,43.77,64.52,104.42,94,91,44.16,254.23,135.5,156.87,335-101.21,207.45-65.28,352.36-72.26,424.9-6.45,67.19-13.25,413.34-14.23,464.16a6.35,6.35,0,0,1-6.36,6.24h0a6.37,6.37,0,0,1-6.37-6.53c1.41-56.06,11.42-455.73,11.6-519.72.2-68.84,17.23-304.41-44.3-390.32C1370.57,379.66,1280.71,273,1290.18,57.52Z"/><path class="cls-3" d="M1325,118.69c6.34,8.89,13.18,17.33,20.3,25.56s14.53,16.2,22.12,24l5.76,5.79,5.88,5.66c3.9,3.81,7.91,7.5,12,11.15q12.16,10.91,24.91,21.19c4.27,3.39,8.65,6.65,13,10s8.84,6.41,13.25,9.62c8.83,6.2,17.39,12.38,25.48,19.27,16.2,13.62,30.37,29.51,41,47.6A158.4,158.4,0,0,1,1521.79,327a195.28,195.28,0,0,1,7.7,30.65,227.55,227.55,0,0,1,3,31.67l.12,8c0,2.66-.12,5.33-.16,8-.06,5.33-.49,10.67-.8,16-3.36,42.73-13.8,84.88-26.39,126.17a1.13,1.13,0,0,0,2.14.73q11.37-30.46,19.73-62a421.15,421.15,0,0,0,12.13-64.2c2.24-21.74,2.49-43.87-.7-65.77a194.57,194.57,0,0,0-7.6-32.35,168.16,168.16,0,0,0-13.6-30.47c-11-19.44-26.15-36.26-42.94-50.55-8.37-7.18-17.31-13.76-26.2-20-4.36-3.11-8.79-6.13-13.1-9.32s-8.61-6.39-12.84-9.69-8.5-6.54-12.66-9.94-8.37-6.72-12.42-10.24c-8.21-6.92-16.39-13.91-24.28-21.21s-15.81-14.62-23.53-22.13-15.32-15.2-22.62-23.11l0,0a1.13,1.13,0,0,0-1.76,1.42Z"/><path class="cls-4" d="M1145.7,784.81h125.64a13.28,13.28,0,0,0,13.28-13l11.32-551.28A13.28,13.28,0,0,0,1281.7,207l-137,9.88a13.28,13.28,0,0,0-12.33,13.25V771.52A13.29,13.29,0,0,0,1145.7,784.81Z"/><path class="cls-5" d="M1265.06,431.7l-2.72,65.3a11.6,11.6,0,0,1-11.42,11.11l-87.74,1.22a11.59,11.59,0,0,1-11.76-11.59V432.48a11.6,11.6,0,0,1,11.43-11.59l90.47-1.26A11.59,11.59,0,0,1,1265.06,431.7Z"/><path class="cls-5" d="M1162.85,519.26l86.37-1.2A11.58,11.58,0,0,1,1261,530.13l-2.72,65.3a11.59,11.59,0,0,1-11.42,11.1l-83.64,1.17a11.59,11.59,0,0,1-11.76-11.59V530.85A11.6,11.6,0,0,1,1162.85,519.26Z"/><path class="cls-5" d="M1151.42,301V251.86a11.59,11.59,0,0,1,10.1-11.49l98.48-12.8a11.59,11.59,0,0,1,13.08,12l-2.53,60.6a11.6,11.6,0,0,1-11.42,11.11l-96,1.34A11.59,11.59,0,0,1,1151.42,301Z"/><path class="cls-5" d="M1269.17,333.27l-2.73,65.3A11.58,11.58,0,0,1,1255,409.68L1163.18,411a11.59,11.59,0,0,1-11.76-11.59V334.11a11.6,11.6,0,0,1,11.43-11.59l94.58-1.32A11.59,11.59,0,0,1,1269.17,333.27Z"/><path class="cls-5" d="M1256.85,628.56l-2,47.51a11.59,11.59,0,0,1-11.58,11.11H1163a11.59,11.59,0,0,1-11.59-11.59V629.22a11.6,11.6,0,0,1,11.43-11.59l82.26-1.14A11.58,11.58,0,0,1,1256.85,628.56Z"/><path class="cls-4" d="M1136.49,777.54l117.19,45.28a13.29,13.29,0,0,0,17.08-7.35L1480,305.32a13.28,13.28,0,0,0-8.41-17.75l-131.3-40.14a13.28,13.28,0,0,0-16.28,7.92l-195.12,505A13.28,13.28,0,0,0,1136.49,777.54Z"/><path class="cls-6" d="M1375.08,491.18,1349,551.11a11.58,11.58,0,0,1-14.65,6.24l-82.29-30.48a11.58,11.58,0,0,1-6.79-15L1268.8,451a11.59,11.59,0,0,1,14.84-6.69l84.84,31.43A11.58,11.58,0,0,1,1375.08,491.18Z"/><path class="cls-7" d="M1248.18,536l81,30a11.58,11.58,0,0,1,6.6,15.49l-26.07,59.93a11.6,11.6,0,0,1-14.65,6.25l-78.45-29.06a11.58,11.58,0,0,1-6.78-15l23.52-60.88A11.58,11.58,0,0,1,1248.18,536Z"/><path class="cls-8" d="M1316.18,328.31l17.71-45.84a11.6,11.6,0,0,1,13.56-7.08l96.48,23.55a11.58,11.58,0,0,1,7.88,15.88l-24.2,55.62a11.58,11.58,0,0,1-14.65,6.24l-90-33.33A11.59,11.59,0,0,1,1316.18,328.31Z"/><path class="cls-9" d="M1414.38,400.85l-26.07,59.92a11.59,11.59,0,0,1-14.65,6.25l-86.14-31.91a11.59,11.59,0,0,1-6.79-15l23.52-60.87a11.59,11.59,0,0,1,14.84-6.7l88.69,32.85A11.59,11.59,0,0,1,1414.38,400.85Z"/><path class="cls-10" d="M1296.48,671.85l-19,43.6a11.59,11.59,0,0,1-14.81,6.19l-74.88-28.93a11.59,11.59,0,0,1-6.63-15l16.7-43.25a11.6,11.6,0,0,1,14.84-6.69l77.15,28.58A11.59,11.59,0,0,1,1296.48,671.85Z"/><path class="cls-4" d="M1129.17,764.52l80.27,96.64a13.29,13.29,0,0,0,18.5,1.9l431.29-343.55a13.28,13.28,0,0,0,1.31-19.59l-95.11-99a13.29,13.29,0,0,0-18.08-1L1130.9,745.81A13.29,13.29,0,0,0,1129.17,764.52Z"/><path class="cls-11" d="M1477.06,630.7l-52,39.63a11.6,11.6,0,0,1-15.84-1.68l-57-66.72a11.59,11.59,0,0,1,1.4-16.44l50.2-41.7a11.6,11.6,0,0,1,16.22,1.38L1478.84,614A11.59,11.59,0,0,1,1477.06,630.7Z"/><path class="cls-12" d="M1344.39,608l56.11,65.66a11.59,11.59,0,0,1-1.78,16.75l-52,39.63a11.59,11.59,0,0,1-15.84-1.69l-54.34-63.59a11.59,11.59,0,0,1,1.41-16.45l50.19-41.69A11.59,11.59,0,0,1,1344.39,608Z"/><path class="cls-13" d="M1505,459.77l37.8-31.4a11.58,11.58,0,0,1,15.29.43l72.78,67.57a11.59,11.59,0,0,1-.86,17.71l-48.23,36.78a11.59,11.59,0,0,1-15.84-1.69l-62.34-72.95A11.6,11.6,0,0,1,1505,459.77Z"/><path class="cls-14" d="M1555.39,571l-52,39.63a11.59,11.59,0,0,1-15.84-1.69l-59.68-69.83a11.6,11.6,0,0,1,1.4-16.45l50.2-41.7a11.59,11.59,0,0,1,16.22,1.39l61.45,71.9A11.59,11.59,0,0,1,1555.39,571Z"/><path class="cls-15" d="M1320.39,750.18,1282.57,779a11.58,11.58,0,0,1-15.94-1.81l-51.3-61.75a11.59,11.59,0,0,1,1.51-16.32l35.66-29.63a11.59,11.59,0,0,1,16.22,1.39l53.45,62.54A11.6,11.6,0,0,1,1320.39,750.18Z"/><path class="cls-2" d="M444.07,1356.88a6,6,0,0,0,4.95-5.31c3-28.8,16.8-188.09-27.1-272.66C373.53,985.7,295.48,899,333.61,676.9c21.61-125.8,8.05-194.38,1.17-218.16a4,4,0,0,0-7.55-.61C307.42,500.57,224.77,679.3,211.88,734.6c-14.66,62.91-24.35,185.29,74.78,241.2,97.56,55,185.66,194.8,150.44,374a6,6,0,0,0,7,7.07Z"/><path class="cls-2" d="M612,2.41a3.81,3.81,0,0,1,7.31.85c8.68,60.87,32.45,279.12-55.24,378.27C461.62,497.38,387.08,524.15,411,717.46c23.69,191.29,87.59,530.48,60.12,631.65a5.09,5.09,0,0,1-4,3.69h0a5.06,5.06,0,0,1-5.94-5.27c1.72-29.84,7.54-158.93-12.52-276.57C425.8,936.92,327,603.15,373,342.74,416,98.71,575,93.24,612,2.41Z"/><path class="cls-3" d="M571,107.13a320.2,320.2,0,0,0-24.7,21.51C538.42,136.15,530.8,144,523.42,152S509,168.41,502,176.83c-3.47,4.22-6.75,8.59-10.14,12.89s-6.53,8.77-9.8,13.15a579.58,579.58,0,0,0-35.18,55.41l-4,7.16L439,272.72c-2.48,4.88-5.16,9.65-7.45,14.63l-7.08,14.83L418,317.25a568.39,568.39,0,0,0-21.7,62c-1.57,5.25-2.72,10.61-4.1,15.91l-2,8c-.62,2.66-1.12,5.36-1.68,8-1.08,5.37-2.22,10.72-3.24,16.1l-2.5,16.23c-.92,5.4-1.42,10.86-2,16.3s-1.25,10.87-1.56,16.33c-.57,10.93-1.31,21.84-1.06,32.77-.31,21.86,1.67,43.66,4.36,65.26a1.77,1.77,0,0,0,3.53-.35v-.05c-3.29-43.12-1.89-86.5,5.48-128.89L394.38,429l3.51-15.74c.6-2.62,1.14-5.25,1.8-7.85l2.12-7.78c1.46-5.17,2.7-10.4,4.35-15.52a563.13,563.13,0,0,1,22-60.54c16.89-39.54,38.34-77,62.7-112.5,3.08-4.41,6.1-8.87,9.25-13.24s6.31-8.72,9.57-13q9.66-13,19.88-25.5c13.58-16.74,27.83-33,43-48.45l0,0a1.16,1.16,0,0,0-1.54-1.73Z"/><path class="cls-4" d="M422.68,1360.66a7.23,7.23,0,0,0,5.81-5.6c5.44-25.55,26.15-148-57.67-223.12-87.41-78.33-151.26-83.51-168.33-132.57a3.12,3.12,0,0,0-6,.28c-9.77,44-33.9,195.92,82.35,254.5,115.35,58.13,133.5,84.8,135.43,100.39a7.19,7.19,0,0,0,8.42,6.12Z"/><path class="cls-3" d="M208.53,1040.87c3.93,16.16,11,31.33,19.93,45.41a160.27,160.27,0,0,0,15,20,158.92,158.92,0,0,0,38.63,32.2,173.09,173.09,0,0,0,22.77,11l5.93,2.22,5.61,2c1.87.64,3.69,1.4,5.51,2.16s3.67,1.47,5.43,2.35a142.22,142.22,0,0,1,20.62,11.4c26.43,17.11,46,43.61,57,73.5,11.28,29.89,15.2,62.49,15.31,95a1.47,1.47,0,0,0,1.47,1.47,1.49,1.49,0,0,0,1.47-1.36c.64-8.17,1.09-16.38,1.06-24.61s-.37-16.46-1.06-24.7a222.7,222.7,0,0,0-3.51-24.58,193.63,193.63,0,0,0-6.36-24.14c-5.32-15.81-12.71-31.15-22.77-44.75a142.86,142.86,0,0,0-36.41-35A153.89,153.89,0,0,0,332,1148.1c-1.89-.95-3.86-1.71-5.79-2.54s-3.89-1.64-5.87-2.34l-11.44-4.16A161.16,161.16,0,0,1,267.87,1116a180.17,180.17,0,0,1-17.7-15.82A196.57,196.57,0,0,1,234.66,1082a190,190,0,0,1-23.82-41.78l0-.08a1.2,1.2,0,0,0-2.28.73Z"/><path class="cls-16" d="M1584.32,968.13s-132.26,348.8-174,421.37c-48.51,84.23-190.17,30.55-183.12-39.94s172.56-361.85,172.56-361.85Z"/><polygon class="cls-17" points="1405.61 714.04 583.58 429.03 592.21 1200.31 1428.08 1013.81 1405.61 714.04"/><ellipse class="cls-18" cx="582.81" cy="816.91" rx="80.76" ry="396.37"/><path class="cls-19" d="M576.68,1186.17c7.3-7.42,23.2-36.06,36.83-110.12,13.18-71.56,20.43-164.39,20.43-261.38s-7.25-189.81-20.43-261.38c-13.63-74.06-29.53-102.7-36.83-110.12-7.3,7.42-23.2,36.06-36.84,110.12-13.17,71.57-20.43,164.39-20.43,261.38s7.26,189.82,20.43,261.38C553.48,1150.11,569.38,1178.75,576.68,1186.17Z"/><g class="cls-20"><path class="cls-21" d="M473.16,811.72c0,67.35,36.28,121.94,108.09,121.94s130-54.59,130-121.94-58.21-121.94-130-121.94S473.16,744.37,473.16,811.72Z"/></g><path class="cls-22" d="M1538.2,697.46c-38.67-4.49-94.13-6.11-154.08,7.62,19.75,103.19,16.77,210.74-6.07,322.1h169.1A54.81,54.81,0,0,0,1601.31,981c8.42-53.38,18.73-143.11,7.74-215.17A81.09,81.09,0,0,0,1538.2,697.46Z"/><path class="cls-2" d="M1436.71,776.49h131.75a12,12,0,0,0,10.09-18.55,3.39,3.39,0,1,0-5.69,3.69,5.24,5.24,0,0,1-4.4,8.08H1436.71a5.25,5.25,0,0,1-5.24-5.24V755.1a5.25,5.25,0,0,1,5.24-5.24h132.73a3.39,3.39,0,0,0,0-6.78H1436.71a12,12,0,0,0-12,12v9.37A12,12,0,0,0,1436.71,776.49Z"/><path class="cls-2" d="M1448.46,834.84h131.75a12,12,0,0,0,10.09-18.55,3.39,3.39,0,1,0-5.69,3.69,5.24,5.24,0,0,1-4.4,8.08H1448.46a5.25,5.25,0,0,1-5.24-5.24v-9.37a5.25,5.25,0,0,1,5.24-5.24h132.73a3.39,3.39,0,0,0,0-6.78H1448.46a12,12,0,0,0-12,12v9.37A12,12,0,0,0,1448.46,834.84Z"/><path class="cls-23" d="M1286.17,693.16a3.38,3.38,0,0,0,1-6.61L664.6,488.42a3.39,3.39,0,0,0-2.06,6.46L1285.14,693A3.35,3.35,0,0,0,1286.17,693.16Z"/><path class="cls-24" d="M1370.36,727.58a3.38,3.38,0,0,0,1.28-6.52l-32-13.1a3.39,3.39,0,1,0-2.56,6.27l32,13.1A3.39,3.39,0,0,0,1370.36,727.58Z"/><path class="cls-2" d="M1436.71,903.18h131.75a12,12,0,0,0,10.09-18.55,3.39,3.39,0,0,0-5.69,3.68,5.25,5.25,0,0,1-4.4,8.09H1436.71a5.25,5.25,0,0,1-5.24-5.24v-9.38a5.24,5.24,0,0,1,5.24-5.23h132.73a3.39,3.39,0,0,0,0-6.78H1436.71a12,12,0,0,0-12,12v9.38A12,12,0,0,0,1436.71,903.18Z"/><path class="cls-2" d="M1424.37,979h131.75a12,12,0,0,0,10.09-18.54,3.39,3.39,0,0,0-5.69,3.67,5.23,5.23,0,0,1-4.4,8.09H1424.37a5.25,5.25,0,0,1-5.24-5.24v-9.37a5.25,5.25,0,0,1,5.24-5.24H1557.1a3.39,3.39,0,1,0,0-6.78H1424.37a12,12,0,0,0-12,12V967A12,12,0,0,0,1424.37,979Z"/><path class="cls-2" d="M1306.7,1391.44a85.72,85.72,0,0,0,18.33-2,84.82,84.82,0,0,0,59.83-48.46l105.26-233.85a3.39,3.39,0,0,0-6.18-2.78l-105.26,233.85a78.08,78.08,0,0,1-55.1,44.62,76.48,76.48,0,0,1-67.31-17.21c-1-.87-2-1.76-3-2.68a3.39,3.39,0,0,0-4.57,5c1,1,2.07,1.87,3.1,2.77A83,83,0,0,0,1306.7,1391.44Z"/><path class="cls-2" d="M1502.59,1074.56a3.38,3.38,0,0,0,3.09-2l11.75-26.09a3.39,3.39,0,0,0-6.18-2.78l-11.74,26.09a3.39,3.39,0,0,0,1.69,4.48A3.48,3.48,0,0,0,1502.59,1074.56Z"/><path class="cls-25" d="M492.41,808.21a3.4,3.4,0,0,0,3.38-3.15c2.34-33,13.77-57.6,34-73.12,35-26.84,84.85-17.62,85.35-17.52a3.39,3.39,0,0,0,1.28-6.65c-2.16-.42-53.4-9.88-90.76,18.79-21.82,16.76-34.14,43-36.62,78a3.38,3.38,0,0,0,3.14,3.62Z"/><path class="cls-5" d="M215.29,595.11a2.26,2.26,0,0,0,.86-4.35c-2.77-1.13-5.52-2.34-8.17-3.58a2.26,2.26,0,1,0-1.92,4.1c2.73,1.27,5.54,2.5,8.38,3.66A2.15,2.15,0,0,0,215.29,595.11Z"/><path class="cls-5" d="M287.19,607.07a2.26,2.26,0,0,1,2.24-2.27c5.87,0,11.8-.38,17.63-1a2.26,2.26,0,0,1,.46,4.5c-6,.61-12,.94-18,1h0A2.26,2.26,0,0,1,287.19,607.07Zm-27,.28c-5.94-.85-11.92-2-17.76-3.39a2.26,2.26,0,0,1,1-4.39c5.71,1.37,11.54,2.48,17.35,3.31a2.26,2.26,0,0,1-.32,4.49A1.77,1.77,0,0,1,260.16,607.35Zm73.53-5.88a2.24,2.24,0,0,1,1.61-2.75c5.66-1.48,11.34-3.25,16.86-5.27a2.26,2.26,0,0,1,1.54,4.24c-5.65,2.07-11.46,3.88-17.26,5.4a2.22,2.22,0,0,1-.57.07A2.25,2.25,0,0,1,333.69,601.47Zm43.69-16.82a2.27,2.27,0,0,1,.89-3.07c5.14-2.82,10.21-5.92,15.07-9.22a2.26,2.26,0,0,1,2.53,3.74c-5,3.37-10.16,6.55-15.42,9.44a2.26,2.26,0,0,1-3.07-.89Zm38.28-27a2.27,2.27,0,0,1,.12-3.19c4.31-4,8.47-8.23,12.38-12.6a2.26,2.26,0,1,1,3.37,3c-4,4.48-8.27,8.82-12.67,12.9a2.28,2.28,0,0,1-1.54.6A2.26,2.26,0,0,1,415.66,557.69Zm30.6-35.42a2.26,2.26,0,0,1-.66-3.13c3.21-4.92,6.21-10.05,8.93-15.23a2.26,2.26,0,0,1,4,2.1c-2.78,5.31-5.86,10.56-9.15,15.6a2.25,2.25,0,0,1-1.89,1A2.31,2.31,0,0,1,446.26,522.27Zm21-41.83a2.26,2.26,0,0,1-1.4-2.87c1.9-5.54,3.55-11.25,4.92-16.95a2.26,2.26,0,0,1,4.4,1.05c-1.41,5.85-3.11,11.69-5.05,17.36a2.26,2.26,0,0,1-2.14,1.53A2.37,2.37,0,0,1,467.28,480.44Zm10.14-45.7a2.26,2.26,0,0,1-2.05-2.45l0-.48c.43-5.2.64-10.46.64-15.63v-1.54a2.26,2.26,0,0,1,2.23-2.28h0a2.26,2.26,0,0,1,2.26,2.24v1.58c0,5.29-.22,10.68-.66,16l0,.51a2.26,2.26,0,0,1-2.25,2.06Zm-3.79-48.68c-.94-5.8-2.17-11.62-3.65-17.28a2.26,2.26,0,1,1,4.37-1.15c1.52,5.81,2.77,11.76,3.74,17.7a2.27,2.27,0,0,1-1.87,2.6,2.17,2.17,0,0,1-.36,0A2.25,2.25,0,0,1,473.63,386.06Z"/><path class="cls-5" d="M462.65,342.91a2.37,2.37,0,0,0,.9-.18,2.26,2.26,0,0,0,1.18-3c-1.2-2.76-2.49-5.55-3.84-8.3a2.26,2.26,0,1,0-4.05,2c1.32,2.69,2.58,5.41,3.74,8.1A2.26,2.26,0,0,0,462.65,342.91Z"/><path class="cls-5" d="M353.36,239.62a2.26,2.26,0,0,0,.78-4.38c-2.85-1.05-5.77-2-8.66-2.94a2.26,2.26,0,1,0-1.35,4.31c2.83.88,5.67,1.85,8.45,2.87A2.38,2.38,0,0,0,353.36,239.62Z"/><path class="cls-5" d="M103.52,474.18c-1.77-5.64-3.3-11.43-4.54-17.21a2.25,2.25,0,0,1,1.73-2.68A2.28,2.28,0,0,1,103.4,456c1.21,5.65,2.7,11.3,4.43,16.81a2.26,2.26,0,0,1-1.48,2.83,2.27,2.27,0,0,1-2.83-1.48Zm-8.46-45.85c-.24-3.88-.36-7.82-.36-11.73,0-2,0-4,.1-6.06a2.24,2.24,0,0,1,2.33-2.19,2.26,2.26,0,0,1,2.18,2.33q-.09,3-.09,5.92c0,3.82.12,7.67.35,11.46a2.26,2.26,0,0,1-2.12,2.39h-.14A2.26,2.26,0,0,1,95.06,428.33Zm4.58-43.9a2.25,2.25,0,0,1-1.82-2.62c1.06-5.83,2.39-11.66,4-17.34a2.26,2.26,0,0,1,4.36,1.21c-1.55,5.54-2.85,11.24-3.88,16.93a2.27,2.27,0,0,1-2.22,1.86A1.9,1.9,0,0,1,99.64,384.43Zm13.11-44.15a2.26,2.26,0,0,1-1.14-3c2.42-5.38,5.13-10.72,8-15.87a2.26,2.26,0,1,1,3.93,2.23c-2.84,5-5.48,10.24-7.85,15.5a2.25,2.25,0,0,1-2.06,1.33A2.31,2.31,0,0,1,112.75,340.28Zm23.37-39.68a2.25,2.25,0,0,1-.39-3.17c3.65-4.65,7.56-9.19,11.62-13.48a2.26,2.26,0,1,1,3.28,3.1c-4,4.19-7.78,8.62-11.34,13.16a2.25,2.25,0,0,1-3.17.39Zm32.2-32.94a2.26,2.26,0,0,1,.38-3.17c4.65-3.64,9.53-7.12,14.5-10.32a2.26,2.26,0,0,1,2.45,3.8c-4.86,3.13-9.62,6.52-14.16,10.07a2.22,2.22,0,0,1-1.39.48A2.24,2.24,0,0,1,168.32,267.66Zm39.14-24.3a2.25,2.25,0,0,1,1.13-3c5.38-2.43,10.95-4.63,16.55-6.55a2.26,2.26,0,0,1,1.46,4.27c-5.47,1.88-10.9,4-16.16,6.4a2.31,2.31,0,0,1-.92.2A2.26,2.26,0,0,1,207.46,243.36Zm43.84-14.2a2.26,2.26,0,0,1,1.82-2.63c5.81-1.05,11.74-1.84,17.63-2.35a2.24,2.24,0,0,1,2.45,2,2.28,2.28,0,0,1-2.06,2.45c-5.75.49-11.54,1.27-17.22,2.3a2.69,2.69,0,0,1-.4,0A2.24,2.24,0,0,1,251.3,229.16Zm65.34,1.06c-4.5-.69-9.07-1.23-13.58-1.61-1.24-.1-2.47-.18-3.7-.26a2.26,2.26,0,0,1,.28-4.51c1.26.08,2.53.17,3.79.27,4.62.38,9.3.93,13.9,1.65a2.26,2.26,0,0,1-.34,4.49A2.07,2.07,0,0,1,316.64,230.22Z"/><path class="cls-5" d="M120.49,510.42a2.26,2.26,0,0,0,2-3.35c-1.44-2.6-2.82-5.27-4.12-7.92a2.26,2.26,0,0,0-4.06,2c1.33,2.72,2.75,5.44,4.22,8.11A2.27,2.27,0,0,0,120.49,510.42Z"/><path class="cls-4" d="M191.56,527.28a2.31,2.31,0,0,0,2.6.57l25.62-10.93a121.31,121.31,0,0,0,35.51,16.85L263,560.51a2.29,2.29,0,0,0,2.09,1.64l33.36,1.68a2.28,2.28,0,0,0,2.24-1.44l10.38-25.82a121.55,121.55,0,0,0,37-13.22l24.4,13.43a2.28,2.28,0,0,0,2.64-.3l24.77-22.41a2.28,2.28,0,0,0,.57-2.6l-10.93-25.62a121.31,121.31,0,0,0,16.85-35.51l26.74-7.74a2.3,2.3,0,0,0,1.65-2.09l1.67-33.36a2.29,2.29,0,0,0-1.43-2.24l-25.83-10.38a121.29,121.29,0,0,0-13.22-37l13.44-24.4a2.29,2.29,0,0,0-.31-2.64L386.72,305.7a2.29,2.29,0,0,0-2.6-.57l-25.61,10.93A121.37,121.37,0,0,0,323,299.21l-7.74-26.74a2.29,2.29,0,0,0-2.08-1.65l-33.37-1.67a2.3,2.3,0,0,0-2.24,1.43l-10.38,25.83a121.29,121.29,0,0,0-37,13.22l-24.39-13.44a2.28,2.28,0,0,0-2.64.31l-24.78,22.41a2.31,2.31,0,0,0-.57,2.6l10.93,25.61a121.37,121.37,0,0,0-16.85,35.52l-26.74,7.74a2.28,2.28,0,0,0-1.64,2.09l-1.68,33.36a2.3,2.3,0,0,0,1.44,2.24l25.82,10.38a121.55,121.55,0,0,0,13.22,37l-13.43,24.39a2.28,2.28,0,0,0,.3,2.64Z"/><path class="cls-2" d="M279.46,448.09a33,33,0,1,1,9.66,1.46A32.73,32.73,0,0,1,279.46,448.09Zm-2.64-54.81a26.28,26.28,0,1,0,20-1.91,26.08,26.08,0,0,0-20,1.91Z"/><path class="cls-2" d="M289.8,500.06a84,84,0,0,0,83.8-79.8c.07-1.42.11-2.84.11-4.25a84,84,0,0,0-167.9-4.16h0a85.2,85.2,0,0,0,1,17.86l6.69-1.1a77.81,77.81,0,0,1-1-12.51c0-1.3,0-2.61.1-3.91A77.22,77.22,0,0,1,366.93,416q0,1.94-.09,3.9a77.25,77.25,0,0,1-120,60.35L243,485.9A83.86,83.86,0,0,0,285.5,500C286.94,500,288.38,500.06,289.8,500.06Z"/><path class="cls-4" d="M398.35,283.67l11.42,14.84a1.29,1.29,0,0,0,1.43.43L426,294a67.66,67.66,0,0,0,19.08,11l3.14,15.28a1.27,1.27,0,0,0,1.09,1l18.57,2.42a1.28,1.28,0,0,0,1.31-.7l6.94-14a67.64,67.64,0,0,0,21.27-5.74l13,8.59a1.28,1.28,0,0,0,1.48-.05l14.84-11.42a1.28,1.28,0,0,0,.43-1.42l-5-14.8a67.9,67.9,0,0,0,11-19.08l15.28-3.14a1.29,1.29,0,0,0,1-1.09l2.42-18.56a1.29,1.29,0,0,0-.7-1.32l-14-6.94a67.85,67.85,0,0,0-5.74-21.26l8.59-13a1.29,1.29,0,0,0-.05-1.49l-11.42-14.83a1.28,1.28,0,0,0-1.42-.44l-14.8,5a67.9,67.9,0,0,0-19.08-11l-3.14-15.28a1.29,1.29,0,0,0-1.09-1l-18.57-2.42a1.29,1.29,0,0,0-1.31.71l-6.94,14A68,68,0,0,0,441,178.66l-13-8.59a1.28,1.28,0,0,0-1.49.06l-14.84,11.41a1.3,1.3,0,0,0-.43,1.43l5,14.79a68.09,68.09,0,0,0-11,19.09L389.91,220a1.29,1.29,0,0,0-1,1.1l-2.42,18.56a1.28,1.28,0,0,0,.7,1.31l14,6.94a67.91,67.91,0,0,0,5.74,21.27l-8.59,13A1.28,1.28,0,0,0,398.35,283.67Z"/><path class="cls-2" d="M461.83,259.57A19.89,19.89,0,1,1,469.2,261,20,20,0,0,1,461.83,259.57Zm-4.94-23.48a13.22,13.22,0,0,0,17.56,17,13.23,13.23,0,0,0-5.24-25.37A13.24,13.24,0,0,0,456.89,236.09Z"/><path class="cls-5" d="M409.18,323.65a2.26,2.26,0,0,0,1.35-4.07c-2.35-1.75-4.65-3.63-6.83-5.59a2.26,2.26,0,1,0-3,3.36c2.29,2.06,4.69,4,7.15,5.85A2.19,2.19,0,0,0,409.18,323.65Z"/><path class="cls-5" d="M454.18,342.48a104,104,0,0,1-18.73-4.63,2.26,2.26,0,0,1,1.49-4.27,97.57,97.57,0,0,0,17.9,4.43,2.26,2.26,0,0,1-.33,4.49Zm28.67-2.07a2.26,2.26,0,0,1,1.87-2.59,98.59,98.59,0,0,0,17.85-4.62,2.26,2.26,0,0,1,1.54,4.24,103.53,103.53,0,0,1-18.67,4.84,2.19,2.19,0,0,1-.36,0A2.26,2.26,0,0,1,482.85,340.41Zm45.53-18.36a2.26,2.26,0,0,1,.42-3.17,97.24,97.24,0,0,0,13.53-12.51,2.26,2.26,0,0,1,3.37,3,102.67,102.67,0,0,1-14.16,13.08,2.18,2.18,0,0,1-1.36.47A2.26,2.26,0,0,1,528.38,322.05Zm31.36-37.74a2.26,2.26,0,0,1-1.13-3c.63-1.41,1.24-2.83,1.81-4.28a98.47,98.47,0,0,0,4.17-13.16,2.26,2.26,0,1,1,4.39,1.06,103.09,103.09,0,0,1-4.36,13.76c-.6,1.51-1.23,3-1.89,4.47a2.26,2.26,0,0,1-2.06,1.34A2.36,2.36,0,0,1,559.74,284.31Z"/><path class="cls-5" d="M569.32,236.09h.17a2.26,2.26,0,0,0,2.09-2.42c-.22-3.06-.58-6.14-1.08-9.17a2.26,2.26,0,0,0-4.46.73c.48,2.89.82,5.84,1,8.76A2.27,2.27,0,0,0,569.32,236.09Z"/><path class="cls-5" d="M529.68,163.1A2.26,2.26,0,0,0,531,159c-2.46-1.85-5-3.61-7.62-5.22a2.26,2.26,0,0,0-2.39,3.84c2.49,1.54,4.94,3.22,7.29,5A2.29,2.29,0,0,0,529.68,163.1Z"/><path class="cls-5" d="M370.13,224.79a2.27,2.27,0,0,1-1.81-2.64,103.42,103.42,0,0,1,5.2-18.23,2.26,2.26,0,0,1,4.22,1.63,98,98,0,0,0-5,17.43,2.27,2.27,0,0,1-2.22,1.85A3,3,0,0,1,370.13,224.79Zm19-44.39a2.26,2.26,0,0,1-.37-3.18,102.72,102.72,0,0,1,13.09-13.7,2.26,2.26,0,1,1,3,3.41A97.44,97.44,0,0,0,392.31,180a2.27,2.27,0,0,1-1.77.85A2.2,2.2,0,0,1,389.14,180.4Zm37.53-30.35a2.25,2.25,0,0,1,1.16-3,102.82,102.82,0,0,1,18-6,2.26,2.26,0,1,1,1,4.4,99.16,99.16,0,0,0-17.19,5.75,2.29,2.29,0,0,1-.91.19A2.26,2.26,0,0,1,426.67,150.05Zm67.34-4a97.57,97.57,0,0,0-17.88-3,2.26,2.26,0,0,1,.32-4.51,102.36,102.36,0,0,1,18.71,3.1,2.26,2.26,0,0,1-.57,4.44A2.3,2.3,0,0,1,494,146.05Z"/><path class="cls-5" d="M371,263.88a2.5,2.5,0,0,0,.47-.05,2.26,2.26,0,0,0,1.74-2.68c-.6-2.87-1.09-5.8-1.43-8.71a2.26,2.26,0,0,0-4.49.54c.36,3,.87,6.1,1.5,9.11A2.27,2.27,0,0,0,371,263.88Z"/><path class="cls-2" d="M469.63,289.31a48.58,48.58,0,0,0,48-42.3,48.79,48.79,0,0,0,.42-6.37,48.56,48.56,0,1,0-97,3.43c0,.25,0,.49.05.74l6.75-.56c-.09-1.14-.14-2.3-.14-3.45a41.42,41.42,0,0,1,.36-5.44h0a41.26,41.26,0,0,1,.92-4.86v0h0v-.05h0a41.78,41.78,0,0,1,82.27,10.24,42.25,42.25,0,0,1-.36,5.48,41.78,41.78,0,0,1-67.32,27.4l-4.21,5.31a48.94,48.94,0,0,0,30.21,10.46Z"/><path class="cls-5" d="M64.82,262.11l-.47,9.71a1.48,1.48,0,0,0,3,.14v0l.46-9.67v0a1.48,1.48,0,0,0-3-.14Z"/><path class="cls-5" d="M64,281.53l-.22,9.7a1.47,1.47,0,1,0,2.94.07v0l.23-9.67v0a1.48,1.48,0,0,0-2.95-.07Z"/><path class="cls-5" d="M63.68,301v9.71a1.48,1.48,0,0,0,3,0v0l0-9.68v0a1.47,1.47,0,1,0-2.94,0Z"/><path class="cls-5" d="M63.83,320.38l.26,9.71A1.47,1.47,0,1,0,67,330v0l-.25-9.67v0a1.47,1.47,0,1,0-2.94.08Z"/><path class="cls-5" d="M64.47,339.79l.5,9.71a1.47,1.47,0,0,0,1.54,1.39,1.48,1.48,0,0,0,1.39-1.55h0l-.5-9.67v0a1.47,1.47,0,1,0-2.93.15Z"/><path class="cls-5" d="M65.6,359.19l.76,9.69a1.46,1.46,0,1,0,2.92-.23v0L68.53,359v0a1.47,1.47,0,0,0-2.93.23Z"/><path class="cls-5" d="M67.25,378.56l1,9.66a1.47,1.47,0,0,0,2.92-.31v0l-1-9.62v0a1.46,1.46,0,0,0-2.91.31Z"/><path class="cls-5" d="M69.43,397.87l1.3,9.62a1.46,1.46,0,1,0,2.89-.39v0l-1.29-9.58v0a1.46,1.46,0,1,0-2.9.39Z"/><path class="cls-5" d="M72.16,417.1l1.58,9.59a1.46,1.46,0,0,0,2.88-.47v0l-1.57-9.54v0a1.46,1.46,0,1,0-2.89.47Z"/><path class="cls-5" d="M75.46,436.25l1.87,9.54a1.46,1.46,0,0,0,2.87-.56v0l-1.86-9.5v0a1.46,1.46,0,0,0-2.87.56Z"/><path class="cls-5" d="M79.36,455.3l2.17,9.47a1.46,1.46,0,0,0,2.84-.65v0l-2.17-9.43v0a1.46,1.46,0,0,0-2.85.65Z"/><path class="cls-5" d="M83.86,474.21l2.5,9.39a1.45,1.45,0,1,0,2.81-.74v0l-2.47-9.34v0a1.46,1.46,0,0,0-2.82.75Z"/><path class="cls-5" d="M89,493l2.82,9.3a1.46,1.46,0,0,0,1.82,1,1.45,1.45,0,0,0,1-1.81v0l-2.81-9.25v0A1.46,1.46,0,1,0,89,493Z"/><path class="cls-5" d="M94.82,511.51l3.17,9.2a1.45,1.45,0,1,0,2.74-.94v0l-3.14-9.14v0a1.45,1.45,0,0,0-2.75.94Z"/><path class="cls-5" d="M101.32,529.85l3.52,9.06a1.45,1.45,0,0,0,2.7-1v0l-3.49-9v0a1.45,1.45,0,0,0-2.71,1Z"/><path class="cls-5" d="M108.53,547.91l3.87,8.93a1.45,1.45,0,1,0,2.66-1.16v0l-3.85-8.86v0a1.45,1.45,0,0,0-2.66,1.15Z"/><path class="cls-5" d="M116.46,565.68l4.24,8.75a1.44,1.44,0,1,0,2.6-1.26v0l-4.21-8.7,0,0a1.45,1.45,0,1,0-2.6,1.27Z"/><path class="cls-5" d="M125.13,583.09l4.62,8.56a1.44,1.44,0,0,0,2,.59,1.46,1.46,0,0,0,.59-2l0,0-4.59-8.5v0a1.45,1.45,0,0,0-2.55,1.37Z"/><path class="cls-5" d="M134.56,600.11l5,8.35A1.45,1.45,0,0,0,142,607l0,0-5-8.3,0,0a1.44,1.44,0,0,0-2.48,1.48Z"/><path class="cls-5" d="M144.75,616.69l5.39,8.1a1.44,1.44,0,1,0,2.4-1.59l0,0-5.34-8,0,0a1.45,1.45,0,0,0-2.41,1.6Z"/><path class="cls-5" d="M155.71,632.77l5.76,7.84a1.44,1.44,0,1,0,2.32-1.7l0,0-5.72-7.79,0,0a1.44,1.44,0,0,0-2.32,1.71Z"/><path class="cls-5" d="M167.43,648.31l6.13,7.56a1.44,1.44,0,0,0,2.24-1.82l0,0-6.09-7.49,0,0a1.44,1.44,0,1,0-2.23,1.81Z"/><path class="cls-5" d="M179.89,663.26l6.5,7.25a1.44,1.44,0,0,0,2.14-1.92l0,0-6.45-7.19,0,0a1.43,1.43,0,0,0-2.13,1.92Z"/><path class="cls-5" d="M193.07,677.58l6.86,6.91a1.44,1.44,0,1,0,2-2l0,0-6.8-6.85,0,0a1.44,1.44,0,0,0-2,2Z"/><path class="cls-5" d="M207,691.22l7.19,6.56a1.43,1.43,0,1,0,1.93-2.12l0,0-7.14-6.51,0,0a1.43,1.43,0,1,0-1.93,2.11Z"/><path class="cls-5" d="M221.51,704.16l7.51,6.19a1.43,1.43,0,0,0,1.82-2.21l0,0L223.36,702l0,0a1.43,1.43,0,1,0-1.82,2.21Z"/><path class="cls-5" d="M236.68,716.35l7.81,5.81a1.43,1.43,0,1,0,1.7-2.29l0,0-7.75-5.77,0,0a1.43,1.43,0,0,0-1.71,2.29Z"/><path class="cls-5" d="M252.43,727.79l8.08,5.42a1.42,1.42,0,1,0,1.59-2.36l0,0-8-5.4,0,0a1.43,1.43,0,1,0-1.6,2.38Z"/><path class="cls-5" d="M268.72,738.45l8.32,5a1.43,1.43,0,0,0,1.48-2.44l0,0-8.27-5,0,0a1.42,1.42,0,1,0-1.47,2.44Z"/><path class="cls-5" d="M285.48,748.34,294,753a1.42,1.42,0,0,0,1.36-2.5l0,0-8.49-4.62,0,0a1.43,1.43,0,0,0-1.36,2.51Z"/><path class="cls-5" d="M302.67,757.44l8.73,4.27a1.42,1.42,0,1,0,1.25-2.56h0l-8.68-4.24h0a1.42,1.42,0,1,0-1.25,2.55Z"/><path class="cls-5" d="M320.23,765.79l8.92,3.89a1.42,1.42,0,1,0,1.13-2.61h0l-8.86-3.87h0a1.42,1.42,0,0,0-1.14,2.61Z"/><path class="cls-5" d="M338.14,773.38l9.06,3.52a1.42,1.42,0,1,0,1-2.64h0l-9-3.5h0a1.42,1.42,0,1,0-1,2.64Z"/><path class="cls-5" d="M356.34,780.25l9.19,3.16a1.42,1.42,0,0,0,.92-2.68h0l-9.14-3.15h0a1.41,1.41,0,0,0-1.8.87,1.43,1.43,0,0,0,.88,1.81Z"/><path class="cls-5" d="M374.79,786.4l9.3,2.82a1.41,1.41,0,1,0,.82-2.7h0l-9.26-2.81h0a1.43,1.43,0,0,0-1.77.95,1.41,1.41,0,0,0,1,1.76Z"/><path class="cls-5" d="M393.45,791.88l9.4,2.49a1.41,1.41,0,1,0,.72-2.73h0l-9.35-2.48h0a1.42,1.42,0,1,0-.72,2.74Z"/><path class="cls-5" d="M412.29,796.7l9.48,2.17a1.41,1.41,0,0,0,.63-2.75h0L412.94,794h0a1.42,1.42,0,0,0-.63,2.76Z"/><path class="cls-5" d="M431.27,800.89l9.53,1.87a1.41,1.41,0,0,0,.55-2.77h0l-9.5-1.86h0a1.41,1.41,0,0,0-.54,2.77Z"/><path class="cls-5" d="M450.37,804.48l9.59,1.58a1.4,1.4,0,1,0,.45-2.77h0l-9.54-1.57h0a1.41,1.41,0,0,0-1.62,1.16,1.4,1.4,0,0,0,1.16,1.62Z"/><path class="cls-5" d="M469.57,807.51l9.63,1.31a1.41,1.41,0,0,0,.37-2.79h0l-9.6-1.31h0a1.41,1.41,0,0,0-1.58,1.2,1.42,1.42,0,0,0,1.21,1.59Z"/><path class="cls-5" d="M488.84,810l9.66,1a1.4,1.4,0,1,0,.31-2.79h0l-9.63-1h0a1.4,1.4,0,0,0-.31,2.79Z"/><path class="cls-5" d="M508.18,812l9.68.8a1.4,1.4,0,1,0,.24-2.79h0l-9.65-.8h0a1.4,1.4,0,0,0-.23,2.79Z"/><path class="cls-5" d="M527.56,813.45l9.69.56a1.4,1.4,0,0,0,.17-2.79h0l-9.66-.57h0a1.4,1.4,0,1,0-.16,2.8Z"/><path class="cls-5" d="M547,814.47l9.71.34a1.4,1.4,0,0,0,.1-2.79h0l-9.68-.35h0a1.4,1.4,0,1,0-.1,2.8Z"/><path class="cls-5" d="M566.38,815.05l9.71.13a1.38,1.38,0,0,0,1.42-1.37,1.4,1.4,0,0,0-1.38-1.42h0l-9.69-.14h0a1.4,1.4,0,1,0,0,2.8Z"/><path class="cls-5" d="M585.8,815.23l9.7,0a1.4,1.4,0,0,0,0-2.79l-9.69,0a1.4,1.4,0,1,0,0,2.79Z"/><path class="cls-5" d="M605.21,815.13l9.71-.14a1.38,1.38,0,0,0,1.37-1.41,1.4,1.4,0,0,0-1.42-1.38l-9.69.14a1.4,1.4,0,0,0-1.38,1.41,1.38,1.38,0,0,0,1.4,1.38Z"/><path class="cls-5" d="M624.63,814.79l9.71-.26a1.39,1.39,0,1,0-.09-2.78l-9.69.25a1.4,1.4,0,0,0,.06,2.79Z"/><path class="cls-5" d="M644,814.21l9.7-.38a1.39,1.39,0,1,0-.11-2.77l-9.69.37a1.39,1.39,0,0,0,.09,2.78Z"/><path class="cls-5" d="M663.44,813.4l9.7-.49a1.39,1.39,0,1,0-.15-2.77l-9.68.48a1.39,1.39,0,1,0,.12,2.78Z"/><path class="cls-5" d="M682.83,812.36l9.69-.6a1.38,1.38,0,1,0-.18-2.76l-9.67.59a1.39,1.39,0,1,0,.16,2.78Z"/><path class="cls-5" d="M702.21,811.11l9.68-.71a1.37,1.37,0,0,0,1.28-1.48,1.39,1.39,0,0,0-1.48-1.28l-9.67.71a1.38,1.38,0,0,0,.18,2.76Z"/><path class="cls-5" d="M721.57,809.65l9.68-.81a1.39,1.39,0,1,0-.24-2.76l-9.66.81a1.38,1.38,0,0,0,.22,2.76Z"/><path class="cls-5" d="M740.92,808l9.66-.91a1.39,1.39,0,0,0,1.25-1.51,1.37,1.37,0,0,0-1.51-1.24l-9.65.9a1.39,1.39,0,0,0,.24,2.76Z"/><path class="cls-5" d="M760.24,806.11l9.65-1a1.38,1.38,0,0,0-.3-2.74l-9.63,1a1.38,1.38,0,1,0,.27,2.75Z"/><path class="cls-5" d="M779.53,804.05l9.64-1.1a1.38,1.38,0,1,0-.32-2.74l-9.63,1.1a1.38,1.38,0,0,0,.3,2.74Z"/><path class="cls-5" d="M798.81,801.8l9.63-1.19a1.38,1.38,0,1,0-.34-2.73l-9.62,1.19a1.37,1.37,0,1,0,.32,2.73Z"/><path class="cls-5" d="M818.07,799.38l9.62-1.28a1.37,1.37,0,1,0-.37-2.72l-9.61,1.27a1.38,1.38,0,0,0,.35,2.73Z"/><path class="cls-5" d="M837.31,796.78l9.62-1.36a1.37,1.37,0,0,0-.39-2.72l-9.61,1.36a1.37,1.37,0,1,0,.38,2.72Z"/><path class="cls-5" d="M856.54,794l9.6-1.45A1.37,1.37,0,0,0,867.3,791a1.39,1.39,0,0,0-1.57-1.16l-9.59,1.44a1.37,1.37,0,0,0,.39,2.72Z"/><path class="cls-5" d="M875.75,791.09l9.58-1.52a1.37,1.37,0,1,0-.43-2.7l-9.58,1.52a1.37,1.37,0,1,0,.42,2.7Z"/><path class="cls-5" d="M894.91,788l9.58-1.6a1.36,1.36,0,0,0-.45-2.69l-9.57,1.59a1.37,1.37,0,0,0,.44,2.7Z"/><path class="cls-5" d="M914.06,784.79l9.56-1.66a1.37,1.37,0,0,0-.47-2.69l-9.55,1.66a1.37,1.37,0,0,0,.45,2.7Z"/><path class="cls-5" d="M933.18,781.43l9.55-1.73a1.36,1.36,0,1,0-.49-2.68l-9.54,1.72a1.37,1.37,0,1,0,.47,2.69Z"/><path class="cls-5" d="M952.27,777.93l9.54-1.79a1.36,1.36,0,1,0-.51-2.68l-9.53,1.79a1.36,1.36,0,0,0-1.09,1.59,1.38,1.38,0,0,0,1.59,1.1Z"/><path class="cls-5" d="M971.34,774.31l9.53-1.86a1.35,1.35,0,0,0,1.07-1.6,1.37,1.37,0,0,0-1.6-1.07l-9.51,1.86a1.36,1.36,0,0,0,.51,2.67Z"/><path class="cls-5" d="M990.39,770.56l9.51-1.92A1.35,1.35,0,0,0,1001,767a1.37,1.37,0,0,0-1.61-1.06l-9.5,1.92a1.36,1.36,0,0,0,.52,2.66Z"/><path class="cls-5" d="M1009.41,766.7l9.5-2a1.35,1.35,0,1,0-.55-2.65l-9.5,2a1.36,1.36,0,0,0,.55,2.66Z"/><path class="cls-5" d="M1028.41,762.72l9.49-2a1.36,1.36,0,1,0-.57-2.65l-9.48,2a1.36,1.36,0,0,0,.56,2.66Z"/><path class="cls-5" d="M1047.39,758.65l9.48-2.08a1.35,1.35,0,0,0-.58-2.64l-9.48,2.07a1.36,1.36,0,0,0,.57,2.65Z"/><path class="cls-5" d="M1066.34,754.47l9.47-2.12a1.35,1.35,0,1,0-.59-2.64l-9.46,2.12a1.35,1.35,0,0,0,.58,2.64Z"/><path class="cls-5" d="M1085.28,750.2l9.46-2.16a1.35,1.35,0,1,0-.61-2.63l-9.45,2.16a1.35,1.35,0,1,0,.6,2.64Z"/><path class="cls-5" d="M1104.19,745.85l9.45-2.21A1.35,1.35,0,1,0,1113,741l-9.45,2.2a1.35,1.35,0,1,0,.61,2.63Z"/><path class="cls-5" d="M1123.09,741.42l9.44-2.25a1.35,1.35,0,1,0-.63-2.62l-9.43,2.24a1.35,1.35,0,0,0,.61,2.63Z"/><path class="cls-5" d="M1142,736.91l9.44-2.28a1.35,1.35,0,1,0-.64-2.62l-9.43,2.28a1.35,1.35,0,0,0,.63,2.62Z"/><path class="cls-5" d="M1160.82,732.33l9.43-2.32a1.34,1.34,0,0,0-.64-2.6l-9.42,2.31a1.33,1.33,0,0,0-1,1.62,1.34,1.34,0,0,0,1.62,1Z"/><path class="cls-5" d="M1179.67,727.69l9.41-2.35a1.34,1.34,0,1,0-.64-2.6l-9.42,2.34a1.35,1.35,0,0,0-1,1.63,1.36,1.36,0,0,0,1.63,1Z"/><path class="cls-5" d="M1198.5,723l9.41-2.38a1.34,1.34,0,1,0-.65-2.59l-9.42,2.37a1.34,1.34,0,0,0,.66,2.6Z"/><path class="cls-5" d="M1217.33,718.23l9.4-2.39a1.34,1.34,0,1,0-.66-2.6l-9.4,2.4a1.34,1.34,0,1,0,.65,2.59Z"/><path class="cls-5" d="M1236.13,713.43l9.39-2.43a1.34,1.34,0,1,0-.68-2.59l-9.38,2.43a1.34,1.34,0,0,0,.66,2.59Z"/><path class="cls-5" d="M1254.9,708.54l9.38-2.49a1.34,1.34,0,1,0-.69-2.58l-9.37,2.48a1.34,1.34,0,0,0,.68,2.59Z"/><path class="cls-5" d="M1273.65,703.54,1283,701a1.33,1.33,0,0,0,.94-1.63,1.35,1.35,0,0,0-1.64-.94L1273,701a1.34,1.34,0,1,0,.69,2.58Z"/><path class="cls-5" d="M1292.38,698.47l9.36-2.56a1.33,1.33,0,0,0,.94-1.63,1.35,1.35,0,0,0-1.64-.94l-9.36,2.56a1.32,1.32,0,0,0-.93,1.63,1.33,1.33,0,0,0,1.63.94Z"/><path class="cls-5" d="M1311.1,693.35l9.36-2.57a1.33,1.33,0,0,0-.7-2.57l-9.36,2.57a1.33,1.33,0,0,0,.7,2.57Z"/><path class="cls-5" d="M1329.82,688.21l9.36-2.57a1.33,1.33,0,1,0-.71-2.56l-9.36,2.57a1.33,1.33,0,0,0,.71,2.56Z"/><path class="cls-5" d="M1348.54,683.08l9.36-2.56a1.32,1.32,0,1,0-.7-2.55l-9.36,2.55a1.33,1.33,0,0,0,.69,2.56Z"/><path class="cls-5" d="M1367.26,678l9.37-2.52a1.33,1.33,0,1,0-.69-2.56l-9.37,2.52a1.33,1.33,0,0,0,.69,2.56Z"/><path class="cls-5" d="M1386,673l9.38-2.48a1.32,1.32,0,0,0-.67-2.56l-9.39,2.48A1.32,1.32,0,1,0,1386,673Z"/><path class="cls-5" d="M1404.76,668l9.39-2.43a1.32,1.32,0,1,0-.65-2.56l-9.4,2.43a1.32,1.32,0,1,0,.66,2.56Z"/><path class="cls-5" d="M1423.55,663.18l9.4-2.35a1.33,1.33,0,0,0,1-1.6,1.31,1.31,0,0,0-1.6-1l-9.42,2.36a1.32,1.32,0,1,0,.64,2.56Z"/><path class="cls-5" d="M1442.37,658.51l9.42-2.28a1.32,1.32,0,1,0-.61-2.56l-9.44,2.28a1.32,1.32,0,1,0,.62,2.56Z"/><path class="cls-5" d="M1461.23,654l9.44-2.17a1.32,1.32,0,0,0-.58-2.57l-9.46,2.18a1.32,1.32,0,0,0,.59,2.57Z"/><path class="cls-5" d="M1480.12,649.7l9.47-2.06a1.31,1.31,0,1,0-.55-2.57l-9.48,2.07a1.31,1.31,0,1,0,.56,2.56Z"/><path class="cls-5" d="M1499.07,645.63l9.49-1.94a1.31,1.31,0,1,0-.51-2.57l-9.51,1.94a1.31,1.31,0,1,0,.52,2.57Z"/><path class="cls-5" d="M1518.07,641.81l9.52-1.8h0a1.32,1.32,0,0,0,1.05-1.53,1.31,1.31,0,0,0-1.53-1l-9.55,1.8a1.31,1.31,0,0,0,.49,2.58h0Z"/><path class="cls-5" d="M1537.13,638.28l9.55-1.71a1.32,1.32,0,0,0,1.06-1.52,1.31,1.31,0,0,0-1.52-1l-9.55,1.71a1.3,1.3,0,0,0,.45,2.57Z"/><path class="cls-5" d="M1556.22,634.85l9.55-1.7a1.31,1.31,0,0,0,1.06-1.51,1.32,1.32,0,0,0-1.52-1.06l-9.55,1.7a1.31,1.31,0,1,0,.46,2.58Z"/><path class="cls-5" d="M1575.32,631.49l9.56-1.61a1.3,1.3,0,0,0,1.08-1.49,1.32,1.32,0,0,0-1.51-1.08l-9.57,1.61a1.3,1.3,0,1,0,.43,2.57Z"/><path class="cls-5" d="M1594.44,628.35l9.58-1.44h0a1.3,1.3,0,0,0-.39-2.58l-9.61,1.44a1.3,1.3,0,0,0,.39,2.58h0Z"/><path class="cls-5" d="M1613.62,625.59l9.61-1.19h0a1.3,1.3,0,1,0-.32-2.58l-9.65,1.19a1.3,1.3,0,1,0,.32,2.58h0Z"/><path class="cls-5" d="M1632.85,623.37l9.64-.86h0a1.3,1.3,0,0,0-.23-2.59l-9.68.86a1.3,1.3,0,0,0,.23,2.59h0Z"/><path class="cls-5" d="M1652.14,621.84l9.66-.44h0a1.3,1.3,0,1,0-.12-2.59l-9.72.44a1.3,1.3,0,0,0,.12,2.6h0Z"/><path class="cls-5" d="M1671.47,621.2l9.66.07h0a1.3,1.3,0,0,0,0-2.59l-9.74-.07a1.3,1.3,0,1,0,0,2.59h0Z"/><path class="cls-5" d="M1690.78,621.63l9.63.69h0a1.29,1.29,0,1,0,.18-2.58l-9.72-.69a1.29,1.29,0,1,0-.18,2.58h0Z"/><path class="cls-5" d="M1710,623.35l9.55,1.4h0a1.29,1.29,0,0,0,.38-2.56l-9.65-1.42a1.29,1.29,0,0,0-.38,2.56h0Z"/><path class="cls-5" d="M1729,626.55l9.38,2.22.06,0a1.29,1.29,0,0,0,1.55-1,1.28,1.28,0,0,0-1-1.55l-9.49-2.26a1.3,1.3,0,0,0-.6,2.52h.06Z"/><path class="cls-5" d="M1747.67,631.44l9.11,3.13.06,0a1.29,1.29,0,1,0,.84-2.44l-9.24-3.17a1.29,1.29,0,1,0-.83,2.44Z"/><path class="cls-5" d="M1765.71,638.17l8.72,4.07.06,0a1.29,1.29,0,1,0,1.09-2.33l-8.85-4.14a1.29,1.29,0,0,0-1.09,2.34h0Z"/><path class="cls-5" d="M1782.91,646.8l8.22,5,.06,0a1.29,1.29,0,0,0,1.34-2.2l-8.34-5.1a1.28,1.28,0,0,0-1.76.43,1.29,1.29,0,0,0,.42,1.77h0Z"/><path class="cls-5" d="M1799.05,657.29l7.52,6,.07.06a1.28,1.28,0,0,0,1.6-2l-7.67-6.1a1.28,1.28,0,0,0-1.6,2Z"/><path class="cls-5" d="M1813.64,669.78l6.62,7,.06.06a1.28,1.28,0,1,0,1.85-1.76l-6.73-7.1a1.29,1.29,0,0,0-1.81-.05,1.27,1.27,0,0,0-.05,1.81h0Z"/><path class="cls-5" d="M1826.43,684.13l5.69,7.76.05.06a1.28,1.28,0,1,0,2.06-1.51l-5.79-7.88a1.28,1.28,0,1,0-2.06,1.51h0Z"/><path class="cls-5" d="M1837.33,700l4.7,8.4,0,.07a1.28,1.28,0,1,0,2.23-1.25l-4.78-8.54a1.28,1.28,0,0,0-2.23,1.25Z"/><path class="cls-5" d="M1846.19,717.05l3.58,8.93,0,.08a1.27,1.27,0,0,0,2.36-1l-3.64-9.08a1.28,1.28,0,1,0-2.37,1Z"/><path class="cls-5" d="M1852.74,735.12l2.29,9.33,0,.09a1.27,1.27,0,1,0,2.47-.6l-2.33-9.52a1.28,1.28,0,0,0-2.48.61Z"/><path class="cls-5" d="M1856.58,753.92l.74,9.56v.12a1.27,1.27,0,0,0,2.54-.2l-.77-9.79a1.27,1.27,0,1,0-2.53.2h0Z"/><path class="cls-5" d="M1857.19,773.06c-.14,1.59-.21,3.18-.43,4.77l-.58,4.77v.06a1.27,1.27,0,0,0,2.53.31l.59-4.86c.22-1.62.29-3.26.44-4.89a1.27,1.27,0,1,0-2.53-.23Z"/><path class="cls-5" d="M1854.43,792.05l-2.54,9.24,0,.12a1.27,1.27,0,0,0,2.45.67l2.6-9.47a1.27,1.27,0,1,0-2.45-.67Z"/><path class="cls-5" d="M1848.47,810.23a79.82,79.82,0,0,1-4.39,8.47,1.27,1.27,0,1,0,2.17,1.31,82.38,82.38,0,0,0,4.54-8.75,1.27,1.27,0,0,0-2.32-1Z"/><path class="cls-5" d="M1838.62,826.47a58.16,58.16,0,0,1-6.7,6.71,1.27,1.27,0,0,0-.13,1.79,1.26,1.26,0,0,0,1.78.13,60.8,60.8,0,0,0,7-7,1.28,1.28,0,0,0-.15-1.79,1.26,1.26,0,0,0-1.78.16Z"/><path class="cls-5" d="M1824.3,838.92l-8.24,4.88-.1.06a1.27,1.27,0,0,0,1.29,2.18l8.45-5a1.27,1.27,0,0,0-1.29-2.18h0Z"/><path class="cls-5" d="M1807.4,847.94l-9,3.48-.08,0a1.26,1.26,0,0,0,.91,2.35l9.12-3.54a1.26,1.26,0,0,0-.91-2.35Z"/><path class="cls-5" d="M1789.27,854.3l-9.35,2.31-.08,0a1.26,1.26,0,1,0,.61,2.44l9.49-2.34a1.26,1.26,0,1,0-.6-2.45h0Z"/><path class="cls-5" d="M1770.45,858.34l-9.55,1.14h-.08a1.26,1.26,0,1,0,.29,2.5l9.72-1.16a1.25,1.25,0,0,0,1.1-1.39,1.27,1.27,0,0,0-1.4-1.11h-.08Z"/><path class="cls-5" d="M1751.3,860l-9.57-.36h-.13a1.25,1.25,0,1,0-.1,2.5l9.83.38a1.26,1.26,0,0,0,.09-2.52h-.12Z"/><polygon class="cls-5" points="50.51 205.71 70.13 238.46 83.88 211.09 50.51 205.71"/><path class="cls-4" d="M186.56,98.69l-42,130.57a9.66,9.66,0,0,1-12.5,6.12L2.55,188.28a3.87,3.87,0,0,1-.26-7.17Z"/><polygon class="cls-5" points="50.53 205.7 186.56 98.69 71.4 213.37 76.46 222.68 50.53 205.7"/><polygon class="cls-5" points="83.82 217.82 70.13 238.46 71.4 213.37 83.82 217.82"/><path class="cls-26" d="M1089.48,1392.43s2.34,12.57,3.55,25a8.58,8.58,0,0,1-8.13,9.38c-16.59.85-52.08,2.53-64.83,2.09a2.8,2.8,0,0,1-2.5-3.81h0a6.28,6.28,0,0,1,3.17-3.4l58.4-27.51Z"/><path class="cls-27" d="M1091.23,1385l-1.65,15.08s-10.22,4.88-17.29-.44l4.09-16.83Z"/><path class="cls-28" d="M1087.18,1101.86c.81,3.93,6,196.24-13.72,282.64a2.92,2.92,0,0,0,1.75,3.38,51,51,0,0,0,16.78,3.25,5,5,0,0,0,5-3.67c5.69-20,32.89-120.52,35.65-216.28,3.09-107,0-3.64,0-3.64l-3-66.09Z"/><path class="cls-29" d="M1157,1398.36s3.6,6.32,7.19,23.18a5.24,5.24,0,0,1-4.55,6.32c-5.48.59-13.91,1.36-20.67,1.38a5.23,5.23,0,0,1-5.23-5.78c.69-6.17,2.93-16.31,10.06-24.26Z"/><path class="cls-30" d="M1159.93,1379l-4,22.81s-4.1,3.11-12.28,1l1.76-24.52Z"/><path class="cls-31" d="M1168.62,1107c17.78,101.32-1.26,250.86-7.88,280.16a4.54,4.54,0,0,1-3.65,3.49,30.49,30.49,0,0,1-13.15-.4,4.16,4.16,0,0,1-3-3.82c-1.15-23.62-.87-168.71-17.09-225.89a13,13,0,0,0-5.09-7.14l-30.62-21.33-2.66-34.92Z"/><path class="cls-4" d="M1059.63,915.72c50.39-1.32,106.13,12.22,106.13,12.22,15.86,87.5,4.42,188.72,4.42,188.72-38.91,10.6-83.08-5.46-83.08-5.46-6.83-36.58-38.07-139.39-38.07-139.39-24.65-2.82-45-9.73-61.79-19,12.6-14.89,18.42-33.74,20.93-44.87C1026,913.34,1044.09,916.12,1059.63,915.72Z"/><path class="cls-32" d="M910.07,842.91a9.65,9.65,0,0,1,11.19-3.26c7.71,31.26,46.84,56.29,86.91,68.32-2.51,11.13-8.33,30-20.93,44.87C920.58,916.2,910.07,842.91,910.07,842.91Z"/><path class="cls-33" d="M911.29,844.42c-.5,1.65,5.52,4.1,9-2.67.09-3.23,1.92-17.07,0-19.68-10.41-13.91-30.49-31.28-30.49-31.28a4.73,4.73,0,0,0-.53,6.59l9.75,10c-2,3.67-4.42,6.77-5.53,11.2a13.55,13.55,0,0,0,1.44,10c1.73,3,4.08,7,6.3,10.08A13.37,13.37,0,0,0,911.29,844.42Z"/><path class="cls-34" d="M903.27,813.85l8.88,7.38,2.83,7.4-7.76,8.78s-2.78-14.72-4.78-17.89S901.45,814.8,903.27,813.85Z"/><path class="cls-4" d="M1146.89,976.92l18.87-49s47.37,31.53,55.5,72c-8.89.74-25,3.21-40.81,11.36C1176.78,992.19,1146.89,976.92,1146.89,976.92Z"/><path class="cls-35" d="M1106.2,1023.23s53.13,29.36,70.72,3.69a20.06,20.06,0,0,0,3.53-15.61c15.76-8.15,31.92-10.62,40.81-11.36a56,56,0,0,1-5.72,38.42c-30.69,57.44-116.21-2-116.21-2Z"/><path class="cls-36" d="M1110.29,874.32l16.48,46.22a1.68,1.68,0,0,1-.75,2c-4.34,2.45-20,9.59-39.12-2.26a7.87,7.87,0,0,1-3.67-5.59l-5.58-40.08Z"/><path class="cls-37" d="M1075,831.71s-17.29,33.31-14.91,46.68,24.2,12.2,43.15,1.14l13-35.91Z"/><path class="cls-38" d="M1102.22,862a1.37,1.37,0,0,1-.61-2c1.39-2.17,4-6.59,4.8-10.45,0,0,3.14-2-8.1-4.63s-28-6.59-31.63-16.11c-3.52-9.28,5.26-32.78,19.82-14.26a1.36,1.36,0,0,0,2.16,0c2.33-3.09,8.46-9.51,17.1-5.73,8.09,3.53,9,9.42,9,12.39a1.35,1.35,0,0,0,1.62,1.38c4.06-.81,13.82-1.57,18.48,8.4,3.83,8.22,1.43,12.91-.77,15.22a1.36,1.36,0,0,0,.61,2.25c2.68.8,6.16,3,5.87,9.3-.39,8.67-10.09,8-12.85,7.63a1.37,1.37,0,0,0-1.21.44c-2.34,2.64-12.89,13.85-24.4,15.3a1.38,1.38,0,0,1-1.47-1.81l4.86-14.55a1.38,1.38,0,0,0-.76-1.69Z"/><path class="cls-39" d="M1100.24,864s12.45-8.72,13.44-1.48-11.19,10.6-17.26,8Z"/><path class="cls-40" d="M1117.06,1069.63l-29-101.08a3,3,0,0,0-2.49-2.12c-5.24-.61-20.44-2.33-38-3.81-21.14-1.79-45.68-3.24-60.35-2a3,3,0,0,0-2.41,4.26c8.34,16.87,42.64,85.5,59.82,108a3,3,0,0,0,2.39,1.17l67.15-.63A3,3,0,0,0,1117.06,1069.63Z"/><path class="cls-41" d="M1110.06,1045.21s4-16.58,2.41-22.46-4.78-13.44-15.28-11.76-22.9,6.1-22.9,6.1.63,7.66,8.61,5.19l-5,3.83s.71,6.14,7.45,2.86l-4.6,5.08s2.9,5,7.86,1.81S1096,1047.21,1110.06,1045.21Z"/><path class="cls-42" d="M1049.57,992.79a8.5,8.5,0,1,1-8.5-8.5A8.51,8.51,0,0,1,1049.57,992.79Z"/><path class="cls-43" d="M1084.84,998.39l2.16-.64-5.89-20a9.11,9.11,0,0,0-6.86-6.38c-18.67-3.9-67.87-4.69-70-4.73l0,2.26c.51,0,51.06.83,69.53,4.68a6.85,6.85,0,0,1,5.16,4.81Z"/><path class="cls-44" d="M1427.38,1281.27c3.09,4.56,15.35,107.93,17.27,146.11a4.51,4.51,0,0,1-4.52,4.73h0a4.52,4.52,0,0,1-4.47-3.82l-22.43-143.74Z"/><path class="cls-45" d="M1328.79,1281.27c-3.08,4.56-15.34,107.93-17.26,146.11a4.51,4.51,0,0,0,4.52,4.73h0a4.52,4.52,0,0,0,4.47-3.82L1343,1284.55Z"/><path class="cls-46" d="M1445.93,1273.2v1.13c.08,8.11-6.91,14.76-15.66,14.91L1326.61,1291c-8.62.15-15.81-6.08-16.22-14.07l-.06-1c-.44-8.33,6.64-15.34,15.63-15.5l103.71-1.86C1438.55,1258.38,1445.86,1265,1445.93,1273.2Z"/><path class="cls-5" d="M1227.55,1423.62c18.42,0,26.58-1.58,30.22-3A7,7,0,0,1,1251,1426h-65.19a3.18,3.18,0,0,1-3.06-4C1190.14,1422.61,1205.93,1423.62,1227.55,1423.62Z"/><path class="cls-47" d="M1182.71,1422a3.23,3.23,0,0,1,.53-1.11c5-6.34,15-16.3,28.52-16.11,19.88.28,26.81,2.44,42.26.13l3.64,12.08a6.8,6.8,0,0,1,.11,3.6c-3.64,1.44-11.8,3-30.22,3C1205.93,1423.62,1190.14,1422.61,1182.71,1422Z"/><path class="cls-48" d="M1249.55,1391.9l4.47,15.21s-9.91,4.51-18.63.89l-1.71-13.18Z"/><path class="cls-5" d="M1114.42,1414c14.36,11.54,21.71,15.43,25.45,16.59a7,7,0,0,1-8.69-.06l-50.82-40.84a3.16,3.16,0,0,1,.11-5C1085.89,1389.83,1097.57,1400.5,1114.42,1414Z"/><path class="cls-49" d="M1080.47,1384.71a3.09,3.09,0,0,1,1.11-.53c7.82-1.81,21.81-3.28,32.27,5.36,15.32,12.67,19.38,18.69,32.87,26.57l-4.69,11.65a6.9,6.9,0,0,1-2.16,2.87c-3.74-1.16-11.09-5.05-25.45-16.59C1097.57,1400.5,1085.89,1389.83,1080.47,1384.71Z"/><path class="cls-50" d="M1345.25,1218.54s-110.34,9-133,19.67,18.47,160,18.47,160,6.16,3,19.87-1.3c0,0-14.06-110.2-3.6-134.1l119.47-19.54Z"/><path class="cls-51" d="M1157.68,1395.13c-1,.94-11,21-11,21s-11.07-2.39-13.32-9.4l9.95-18.09Z"/><path class="cls-52" d="M1411.7,1217.62a55.77,55.77,0,0,1,3.45,20.15,30.26,30.26,0,0,1-28.87,29.6l-130.43,5.94a6.27,6.27,0,0,0-5.78,4.71c-3.06,11.85-18,48.26-91.28,120.91a5.9,5.9,0,0,1-7.3.79l-10.43-6.58a2.42,2.42,0,0,1-.79-3.25l76-129.68a29.39,29.39,0,0,1,17.86-13.25l111.17-28.42Z"/><path class="cls-53" d="M1283.16,1015s14,24.7,28.22,36.67l-29.45,16.43s-6.63-26.15-21.79-33.81Z"/><path class="cls-54" d="M1414.07,1218.54s-35.21,8.59-68.82,0c0,0-47-63.22-65.23-80.43,0,0-29,45.8-93.62,52.29l-3.6-8.05s51.43-23.71,67.26-60.13,22.19-52,36.59-61.47c9-5.92,14.34-10,17.12-12.17a4.59,4.59,0,0,1,5.28-.33C1324.33,1057.56,1396.26,1106.82,1414.07,1218.54Z"/><path class="cls-55" d="M1281.93,1137.22a2.23,2.23,0,0,0,1.79-.88,140,140,0,0,0,17.72-31.42,2.26,2.26,0,0,0-4.21-1.62,138.68,138.68,0,0,1-17.09,30.29,2.25,2.25,0,0,0,1.79,3.63Z"/><path class="cls-56" d="M1190.28,1178.15l-7.27-1.94-22.07-5.11a10.22,10.22,0,0,0-7.76,1.3l-19,11.95,52.42-.09Z"/><path class="cls-57" d="M1261,978s-13.58,22.58-15.93,35-6.14,20.28,8.06,24.72,27.4-1.18,35.68-12.82c0,0,12.93-17.93,11.64-26.13S1261,978,1261,978Z"/><path class="cls-58" d="M1285,1015.28l-1.84-.24s9.62-14.53,3.32-18.14-31.93-12.44-36.38-22.54c-4.29-9.74,2.13-20.73,9.87-23a1,1,0,0,1,1.18.63l.46,1.22a1,1,0,0,0,1.84.05h0a1,1,0,0,1,1.81,0c1.37,3,5.48,8.19,17.81,12.19,17.5,5.67,28.4,14.49,27.06,26.92a1,1,0,0,0,1.42,1c1.43-.63,3.6-.73,6.11,2,4.38,4.79.95,15.26-11,22.68a1,1,0,0,0-.16,1.58c1.79,1.54,4.31,4.95-3.78,8-8.28,3.12-12.79,2.06-14.46,1.4a1,1,0,0,1-.62-1.12l2.13-10.9a1,1,0,0,0-.85-1.17Z"/><path class="cls-59" d="M1284.24,1017.52s6-14.77,12.29-9.58-5.82,16.67-11.41,16.51Z"/><path class="cls-60" d="M1210.54,1194.63h-.26l-112-.11a5,5,0,1,1,0-10l112,.11a5,5,0,0,1,.25,10Z"/><path class="cls-61" d="M1054.92,1085a1.63,1.63,0,0,1,.11.23l47.12,101.59a5,5,0,1,1-9.08,4.21L1046,1089.4a5,5,0,0,1,9-4.44Z"/><rect class="cls-62" x="761.66" y="1296.73" width="11.82" height="127.83" transform="translate(1535.14 2721.29) rotate(-180)"/><path class="cls-63" d="M715.81,1427H819.33a7.69,7.69,0,0,0-7.69-7.69H723.5a7.69,7.69,0,0,0-7.69,7.69Z"/><rect class="cls-64" x="700.44" y="1268.09" width="130.16" height="36.92" rx="12.71"/><path class="cls-65" d="M854.83,1211.5s17.57,2.72,37.31,15.93a9.82,9.82,0,0,1,4.35,9.4c-2.37,18.73-12.09,79.36-44.15,138.57a14.89,14.89,0,0,0-1.43,10.23l5.57,25.92,10.33,9.68H840.2l-17.71-47.93,7.57-2.4a14.32,14.32,0,0,0,10-13.42l.89-51.42c-.76-22.91,14-38.72,14-38.72l-42.49-2.07Z"/><path class="cls-66" d="M877.2,1425.91c2.42,3.17-26.08,7.36-40.48.42,0,0-20-34.73-20-52.61,0,0,1.58-3.65,13.3-2.82,0,0,6.71,41.12,13.78,45.73s19.8.46,19.8.46S873.62,1421.23,877.2,1425.91Z"/><path class="cls-67" d="M817.9,1268.09c.22-.39,45.74-5.47,45.74-5.47s-1.49,13.84,3.17,32.89,71.49,101.6,71.49,101.6l-7,22.22c21.67,7.55,43,8.75,64,3.85l-43.43-26.07s-40.65-138.51-65.55-163.22l-45.63-15.79Z"/><path class="cls-68" d="M715.81,1187.5s-26.23,39-28.38,56.8,7.18,25,34.7,26.22,101,1.17,101,1.17l62.7-53.59s-45.69-16.3-57.57-20.91S715.81,1187.5,715.81,1187.5Z"/><path class="cls-69" d="M933.94,1411.85s-7.54,7.3-2.45,15.43c0,0,59.77,10.6,76,5.79,0,0-3.37-7.69-21.65-16.44l1.35,1a2.18,2.18,0,0,1-1.44,3.92C973.71,1420.89,948.79,1418.69,933.94,1411.85Z"/><path class="cls-70" d="M829.41,940.11c-53.61-9.12-78.85,34.61-77,43.79a1.69,1.69,0,0,1-2.11,1.93c-6.15-1.66-19.75-3.74-28.18,6.82-7.44,9.32-1.88,18.12,2.66,23a1.69,1.69,0,0,1-1.42,2.86c-11.31-1.43-35.9-1.77-39.93,21.27-3.75,21.48,11.2,27.53,20.07,29.24a1.68,1.68,0,0,1,.56,3.08c-4.42,2.81-9.55,8.6-7.48,20,3.25,17.94,38.42,16.47,42.53,16.23a1.71,1.71,0,0,0,.73-.21L796.17,1076a1.69,1.69,0,0,0,.83-1.18l11.37-65.68a1.68,1.68,0,0,0-.45-1.46l36.72-51.82C858,953.89,830.05,940.21,829.41,940.11Z"/><path class="cls-71" d="M786.74,1182.33s30.54-29.08,45.57-48.34a40.85,40.85,0,0,0,6.92-36.78c-6.86-23.13-19.06-47.08-20.17-50.8-1.71-5.72-35.95-5.48-35.95-5.48s-67.39,43.73-93.87,117.82L719,1168s17.59-29.51,35-48.28c0,0-30.08,39.74-31.14,56Z"/><path class="cls-72" d="M823.2,1014.47c-.36,1.19-9.3,30.82-10,31.44s-19.6,1.63-28.5-4.45l22.07-43.17Z"/><path class="cls-73" d="M859,976.4s4.32,17-7.63,39.8-25.48,22.81-32.88,15.5S802,1012,804.17,989.92,852.79,954.81,859,976.4Z"/><path class="cls-74" d="M820.71,991.12s19.82-30.31,38.42-6.45l.33,8.67s21.78-2.58,18-22.55S854.8,938.34,830.56,947s-38.12,17.52-39.69,34.89,12.26,13.56,12.26,13.56,4.5-12.23,10.91-13.5,4.74,8.26,4.74,8.26Z"/><path class="cls-75" d="M812.26,997.66s10.29-15.52-.25-17.84-8.9,15.13-7.77,21.58Z"/><path class="cls-76" d="M849,1184.49l-22.44-21.63-31,13.12s-30.89,4.78-48.58,0l-17.68-4.79-40-12.44L683,1176.49a10.68,10.68,0,0,0,3.9,12.27A71.34,71.34,0,0,0,697,1195c5.27,2.31,129.74-1.59,129.74-1.59Z"/><path class="cls-77" d="M764,1194.69h.3l130.16-.14a5.83,5.83,0,1,0,0-11.65l-130.17.14a5.83,5.83,0,0,0-.28,11.65Z"/><path class="cls-78" d="M1011.52,1076.5H903.11a20.66,20.66,0,0,0-18.68,11.85l-50.12,106.27H969a12.57,12.57,0,0,0,11.68-7.94l38.86-98.34A8.66,8.66,0,0,0,1011.52,1076.5Z"/><path class="cls-4" d="M935.15,1131c-2.35,7.3-.62,14.39,3.87,15.83s10-3.3,12.38-10.6.62-14.38-3.87-15.83S937.49,1123.69,935.15,1131Z"/><path class="cls-79" d="M615.64,1410.91a157.89,157.89,0,0,0-1.91,16.59,7.15,7.15,0,0,0,6.44,7.54c13.33,1.3,43.65,3.68,63,.89a3.25,3.25,0,0,0,1.78-5.59c-8-7.44-27.26-21.91-59-25.08Z"/><path class="cls-80" d="M609,1393.81l6.73,16.51a5.51,5.51,0,0,0,5.65,3.42,30.35,30.35,0,0,0,5.5-1.07,7.22,7.22,0,0,0,4.81-9l-5.08-17Z"/><path class="cls-81" d="M493.85,1424.06s13.49,11.29,18.74,25.76a6.15,6.15,0,0,1-5.84,8.18H479a6.55,6.55,0,0,1-6.47-7.66C474.29,1440.35,479.39,1424.1,493.85,1424.06Z"/><path class="cls-82" d="M477.14,1409.37s2.72,12.06,4.82,20a2.55,2.55,0,0,0,3.33,1.74c4.2-1.5,7.62-2.17,10.11-1.83a2,2,0,0,0,2.16-2l.26-20Z"/><path class="cls-83" d="M548.88,1138l82,250.3s-15.74,10.31-23.24,9.88L510.24,1197S493.19,1321,501.45,1410l-27.91,2.13s-45.39-227.4-11-305.29Z"/><path class="cls-84" d="M510.77,1194.86h-.1a.79.79,0,0,1-.69-.89l3.18-25.27a.8.8,0,1,1,1.58.2l-3.19,25.27A.79.79,0,0,1,510.77,1194.86Z"/><path class="cls-4" d="M564.26,917.75s-66.47,5.9-57.07,53.27c0,0-36.74,69.15-53.92,150.61a4.78,4.78,0,0,0,3.88,5.69l110.7,19a6,6,0,0,0,6.78-4.38l26.45-102.22,10.31,47.53,32.75-8.54L616.57,939S612.72,918.63,564.26,917.75Z"/><path class="cls-5" d="M601.64,1035.1l-.17,0a.82.82,0,0,1-.63-1l9.22-42.37a.83.83,0,0,1,1.62.35l-9.23,42.37A.84.84,0,0,1,601.64,1035.1Z"/><path class="cls-85" d="M595,1161.18a15.8,15.8,0,0,0-11.43-1.49l-7.7,1.92a2.79,2.79,0,0,1-3.45-2.4l-8-70.94c-10,4.73-24.34,4.17-29.09,3.82l18.35,83.64h64.19Z"/><path class="cls-86" d="M765.53,1007.3l-1.94-6.45a12.77,12.77,0,0,0-7.46-8.16L721,978.58s-.53-4.5,7.41-7.56,6.09-12,6.09-12-10.86,5-26.74,12.81c-9.09,4.49-14.19,12.42-16.89,18.38l-79.52,97,9.33,6.41a24.92,24.92,0,0,0,36.14-8.87l43.08-82.61C721.57,1008.63,743.45,1009.87,765.53,1007.3Z"/><path class="cls-87" d="M585.8,872.53l-20.45,57.22s18.11,14.15,31.32,9.37l10.3-32.8S599.1,866.23,585.8,872.53Z"/><path class="cls-88" d="M646.82,852c0,.88-19.7,55.75-19.7,55.75L596,895.82,607,841S646.82,837.22,646.82,852Z"/><path class="cls-89" d="M612.42,854.39l-8,28.38a3.82,3.82,0,0,0-.16,1.11c0,2.32.57,10.28,8.69,9.2,7.36-1,14.09-1.77,18.38.24a4.12,4.12,0,0,1,2.12,5.12,177.06,177.06,0,0,1-11.2,25.28,4.11,4.11,0,0,1-5.28,1.69c-5.84-2.66-18-8.6-26.66-15.68a4.11,4.11,0,0,1-1.46-4c1.36-7.26,5.42-29.34,5.6-35.67.17-5.94-6.5-10.48-9.43-12.18a4,4,0,0,1-1.91-2.56c-.92-3.83-1.7-12.48,9.33-14.39a4.12,4.12,0,0,0,3.35-4.91c-.93-4.57-.63-11.3,8.05-13.78s14.38,2.8,17.21,6.87a4.12,4.12,0,0,0,5.11,1.36,3.27,3.27,0,0,1,3.65.66,4.06,4.06,0,0,0,5.94-.9c2.57-3.79,7.25-7.57,15.16-5C665,829.8,664.28,846,659.13,854.8S639,857.81,632,852c-5.38-4.44-13.57-1.78-17.19-.26A4.13,4.13,0,0,0,612.42,854.39Z"/><path class="cls-90" d="M591.62,880.46s8.32-15.72,2.82-20.66-14.81-4.13-14.56,8.17C580.19,883.26,591.62,880.46,591.62,880.46Z"/><path class="cls-5" d="M541.78,1093.16a78.17,78.17,0,0,1-8.13-.39l-.59-.06-24.2-112.86a.81.81,0,0,1,.63-1,.82.82,0,0,1,1,.63l23.95,111.68c3.6.32,22.84,1.59,33-5.6l-21-98,4.37-8.25a.83.83,0,0,1,1.46.78l-4.1,7.71,21.07,98.5-.42.32C561.49,1092.11,549.67,1093.16,541.78,1093.16Z"/><path class="cls-5" d="M1267.41,1437.23a3.84,3.84,0,0,0,1.67-.38,4.77,4.77,0,0,0,2.21-6l-88.45-224.42a4.1,4.1,0,0,0-5.54-2.41,4.77,4.77,0,0,0-2.21,6l88.45,224.42A4.22,4.22,0,0,0,1267.41,1437.23Z"/><path class="cls-5" d="M1167.77,1437.23a4.22,4.22,0,0,0,3.88-2.79L1260.1,1210a4.77,4.77,0,0,0-2.21-6,4.1,4.1,0,0,0-5.54,2.41L1163.9,1430.8a4.77,4.77,0,0,0,2.21,6A3.83,3.83,0,0,0,1167.77,1437.23Z"/><path class="cls-5" d="M667.14,1437.23a3.83,3.83,0,0,0,1.66-.38,4.77,4.77,0,0,0,2.21-6l-88.45-224.42A4.1,4.1,0,0,0,577,1204a4.77,4.77,0,0,0-2.21,6l88.45,224.42A4.23,4.23,0,0,0,667.14,1437.23Z"/><path class="cls-5" d="M567.5,1437.23a4.22,4.22,0,0,0,3.87-2.79L659.82,1210a4.77,4.77,0,0,0-2.21-6,4.1,4.1,0,0,0-5.54,2.41L563.62,1430.8a4.77,4.77,0,0,0,2.21,6A3.84,3.84,0,0,0,567.5,1437.23Z"/><path class="cls-91" d="M680,1190.53H551.86v-13.22H680C677.23,1177.31,677.23,1190.53,680,1190.53Z"/><path class="cls-92" d="M552.86,1190.53a1,1,0,0,1-1-1v-11.22a1,1,0,0,1,1-1h130a1,1,0,0,0,1-1v-1a1,1,0,0,0-1-1H544.53a5.53,5.53,0,0,0-5.53,5.53v8.45a5.22,5.22,0,0,0,5.21,5.22H682.88a1,1,0,0,0,1-1v-1a1,1,0,0,0-1-1Z"/><path class="cls-5" d="M533.29,1199.44a3.9,3.9,0,0,1,1.6-4.16,9.5,9.5,0,0,1,5.86-1.83h767.59a10.4,10.4,0,0,1,7.36,2.67,4.18,4.18,0,0,1,.57,5.56l-8.31,11.94c-1.91,2.73-6,4.48-10.58,4.48H546c-4.23,0-7.86-2-8.66-4.74Z"/><path class="cls-93" d="M1235.26,202c-82-1.21-487.32-8.3-570.51-9.76a14.68,14.68,0,0,0-14.94,14.68v38a14.69,14.69,0,0,0,14.68,14.69H1235a14.69,14.69,0,0,0,14.69-14.69V216.65A14.68,14.68,0,0,0,1235.26,202Z"/><path class="cls-2" d="M1131.94,231.2h0a14.79,14.79,0,0,1-15,14.78l-330.58-5.74A14.78,14.78,0,0,1,772.22,222l1.51-6.14a14.78,14.78,0,0,1,14.88-11.25l329.08,11.87A14.79,14.79,0,0,1,1131.94,231.2Z"/><path class="cls-94" d="M1205.77,233.25,1256.59,285a5.22,5.22,0,0,1-.37,7.65l-.38.32a4.85,4.85,0,0,1-6.85-.62l-46.54-56.13Z"/><path class="cls-95" d="M1153.56,191.81c-7.86,16.46-.64,36.3,16.13,44.3s36.74,1.14,44.59-15.32.64-36.31-16.13-44.31S1161.42,175.34,1153.56,191.81Z"/><path class="cls-96" d="M1150.14,190.17c-8.75,18.33-.71,40.4,17.95,49.3s40.87,1.27,49.62-17.05.7-40.4-18-49.3S1158.88,171.85,1150.14,190.17Zm5,2.37c7.46-15.63,26.41-22.14,42.33-14.55s22.77,26.43,15.31,42.06-26.41,22.15-42.33,14.55S1147.64,208.17,1155.1,192.54Z"/></g></g></svg>