<svg xmlns="http://www.w3.org/2000/svg" viewBox="0 0 410.81 369.05"><defs><style>.cls-1{fill:#e3f2fd;}.cls-2{fill:#4079ff;}.cls-3{fill:#40abff;}.cls-4{fill:#e0e0e0;}.cls-5{fill:#263238;}.cls-6{fill:#37474f;}.cls-7{fill:#ffccbc;}.cls-8{fill:#1e88e5;}.cls-9{fill:#ffab91;}.cls-10{fill:#e65100;}.cls-11{fill:#f09563;}.cls-12{fill:#e53935;}.cls-13{fill:#ffe0b2;}.cls-14{fill:#0d47a1;}.cls-15{fill:#f5f5f5;}.cls-16{fill:#455a64;}.cls-17{fill:#78909c;}.cls-18{fill:#546e7a;}.cls-19{fill:#90a4ae;}.cls-20{fill:#fff;}.cls-21{fill:#cfd8dc;}.cls-22{fill:#b0bec5;}</style></defs><g id="Layer_2" data-name="Layer 2"><g id="OBJECTS"><path class="cls-1" d="M54.79,214.54c8.35,11,16.2,24.59,13.6,40.72-4.54,28.23-36.42,44.2-48,71.1-5.95,13.85-4.87,29.55,1.44,40.51H347.35a62.89,62.89,0,0,0,11.3-11.77c11.14-15.08,15.91-35.54,12.17-52.19s-15-28.61-19-45.12c-4.42-18.45,1-40.35,10-59.42s21.54-36.13,32.94-53.78c8.41-13,16.68-27.94,16-42.52-1-20.7-20-31.2-38.27-30.53s-36.89,9.16-55.37,12.38-39-.52-46.45-18.11c-6.66-15.68-1.12-38.13-9.39-52.55C256.35,4.64,247.1.49,237.5.05s-19.62,2.43-29.39,5.88C153,25.47,100.27,64.88,60,116.72c-13.68,17.62-26.76,39.52-24.68,60.36C36.89,192.53,46.44,203.54,54.79,214.54Z"/><path class="cls-2" d="M38.38,366.25a141.68,141.68,0,0,1,5.51-35.88,46.53,46.53,0,0,0-4.46,2.07,72.63,72.63,0,0,1-3.68,13.26c-.14.33-1,.32-1,0a48.41,48.41,0,0,1,1.07-11.16,43.39,43.39,0,0,0-6.37,5c1.09,3.65,2.22,7.31,3.15,11,1,3.93,2.35,7.8,2.59,11.87,0,.47-.95.79-1.24.34-2.26-3.62-3.36-7.57-4.94-11.4-1.1-2.65-2-5.37-2.95-8.08a35,35,0,0,0-5.59,9.84,72.5,72.5,0,0,1,10,13.1Z"/><path class="cls-3" d="M44.6,366.25c0-1.17,0-2.33.07-3.5a168,168,0,0,1,1.61-19.68c.48-3.28.89-6.59,1.65-9.88.35-1.53.74-3.05,1.14-4.58-.89.25-1.77.52-2.63.81L46,331a142.76,142.76,0,0,0-5.41,35.28Z"/><path class="cls-3" d="M53.55,366.25q.44-19.33-1-38.47c-.53.1-1,.22-1.58.35-.23,2.16-.42,4.32-.68,6.48-.42,3.57-.82,7.14-1.14,10.72a203.61,203.61,0,0,0-.79,20.92Z"/><path class="cls-2" d="M87.37,366.25a157.46,157.46,0,0,1,16.13-18c-.39-.69-.8-1.37-1.24-2a29.8,29.8,0,0,1-4.6,4.59c-.32.23-.9,0-.81-.24.64-2,2.61-4.05,4.2-5.86l.1-.11c-.59-.79-1.2-1.57-1.86-2.33-.29.47-.6.93-.89,1.39-2.22,3.51-4.22,7.08-6.73,10.52-.36.5-1.56.46-1.39-.13a56.7,56.7,0,0,1,6.81-14.14,42.06,42.06,0,0,0-4.28-3.68c-3.48,10-6.75,20-9.9,30.05Z"/><path class="cls-2" d="M56,366.25H64.2A277.69,277.69,0,0,1,83.44,330.8c-1.4-.6-2.83-1.14-4.3-1.62-.28.41-.55.82-.82,1.23-2.66,4.09-5.21,8.22-7.47,12.39s-4.06,8.62-6.75,12.76c-.4.62-1.67.48-1.57-.15.64-4.3,2.85-8.76,4.91-13a133.09,133.09,0,0,1,7.06-12.77c.31-.51.65-1,1-1.51-1.35-.32-2.73-.6-4.12-.82-.47,1.39-.84,2.78-1.22,4.18-.15.56-1.43.72-1.5.14a12,12,0,0,1,.44-4.62c-1.22-.13-2.45-.23-3.69-.28-1.71,5.63-3,11.26-4.32,16.9-.17.72-1.6.67-1.58,0a69.05,69.05,0,0,1,2.66-16.94,53.83,53.83,0,0,0-7.25.63q.16,2,.3,4C56,342.91,56.22,354.56,56,366.25Z"/><path class="cls-3" d="M107.64,366.25c0-.72.08-1.45.07-2.18s0-1.39-.08-2.08q-2.53,2.1-4.95,4.26Z"/><path class="cls-3" d="M98.51,366.25q4.13-4,8.7-7.69a33,33,0,0,0-.88-3.69q-1.23,1.15-2.4,2.34c-1.55,1.59-3,3.64-5.13,4.91-.25.14-.61,0-.57-.17.31-1.78,2.27-3.72,3.68-5.3q1.77-2,3.7-3.91c-.22-.57-.45-1.14-.7-1.7a154.23,154.23,0,0,0-13.58,15.21Z"/><path class="cls-3" d="M28.28,366.25a74.76,74.76,0,0,0-8.38-11.33,32.62,32.62,0,0,0-1.06,4.8,29,29,0,0,1,5.24,6.53Z"/><path class="cls-3" d="M22.57,366.25c-1.34-1.16-2.66-2.32-4-3.47,0,.49,0,1,0,1.49q0,1,.06,2Z"/><path class="cls-3" d="M72.05,366.25q1.5-3.81,3.11-7.61c2.19-5.17,4.6-10.31,7.09-15.44,1.66-3.42,3.2-7,5.15-10.46-.34-.19-.68-.38-1-.56a283,283,0,0,0-18.66,34.07Z"/><path class="cls-3" d="M79.25,366.25c3.36-10.72,6.84-21.42,10.56-32.11-.35-.22-.71-.43-1.07-.64-.54,1.05-1.1,2.1-1.61,3.15-1.39,2.86-2.77,5.71-4.09,8.58-3.22,7-6.09,14-8.7,21Z"/><path class="cls-2" d="M116.5,366.25A84.21,84.21,0,0,1,119.77,345a29.1,29.1,0,0,0-2.65,1.23,42.85,42.85,0,0,1-2.18,7.86c-.08.2-.56.19-.57,0a28.29,28.29,0,0,1,.63-6.62,26,26,0,0,0-3.78,3c.65,2.17,1.32,4.33,1.87,6.52a37.81,37.81,0,0,1,1.54,7c0,.27-.57.46-.74.2a43.71,43.71,0,0,1-2.93-6.76c-.65-1.58-1.2-3.19-1.75-4.79a20.74,20.74,0,0,0-3.31,5.83,43.13,43.13,0,0,1,5.91,7.77Z"/><path class="cls-3" d="M120.19,366.25c0-.69,0-1.39,0-2.08a98.17,98.17,0,0,1,1-11.67c.28-1.95.53-3.9,1-5.85.2-.91.43-1.82.67-2.72-.53.15-1,.3-1.56.48-.09.3-.18.61-.26.92a84.48,84.48,0,0,0-3.22,20.92Z"/><path class="cls-3" d="M125.49,366.25a228.07,228.07,0,0,0-.61-22.82l-.93.21c-.14,1.28-.26,2.57-.41,3.84-.25,2.12-.49,4.24-.68,6.36a120,120,0,0,0-.46,12.41Z"/><path class="cls-2" d="M145.55,366.25a93.83,93.83,0,0,1,9.57-10.69c-.23-.41-.48-.81-.74-1.21a17.56,17.56,0,0,1-2.73,2.72c-.18.14-.53,0-.48-.14a11.53,11.53,0,0,1,2.5-3.47l.05-.07c-.34-.47-.71-.93-1.1-1.38-.17.28-.35.55-.53.83-1.31,2.08-2.5,4.19-4,6.24-.21.29-.92.26-.82-.08a33.71,33.71,0,0,1,4-8.39,23,23,0,0,0-2.53-2.18c-2.06,5.93-4,11.87-5.87,17.82Z"/><path class="cls-2" d="M126.93,366.25h4.88a166.1,166.1,0,0,1,11.41-21c-.83-.35-1.68-.67-2.55-1-.16.24-.33.48-.48.72-1.58,2.43-3.1,4.88-4.44,7.35s-2.4,5.11-4,7.57c-.23.36-1,.28-.93-.09a28.37,28.37,0,0,1,2.91-7.7,78.58,78.58,0,0,1,4.19-7.57c.19-.3.38-.6.58-.89-.81-.2-1.62-.36-2.45-.49-.28.82-.5,1.65-.72,2.48-.09.33-.85.42-.89.08a7.17,7.17,0,0,1,.26-2.74c-.72-.08-1.45-.13-2.19-.17-1,3.34-1.78,6.68-2.56,10-.1.42-.95.39-.94,0a41,41,0,0,1,1.58-10.05,32,32,0,0,0-4.3.38c.06.78.13,1.57.18,2.36C126.94,352.41,127.08,359.32,126.93,366.25Z"/><path class="cls-3" d="M157.57,366.25c0-.43.05-.86.05-1.29s0-.83-.05-1.24c-1,.83-2,1.67-2.94,2.53Z"/><path class="cls-3" d="M152.16,366.25c1.63-1.56,3.35-3.09,5.16-4.56a18.38,18.38,0,0,0-.53-2.19c-.48.46-1,.92-1.41,1.39a16,16,0,0,1-3,2.91c-.15.09-.36,0-.34-.1.18-1.06,1.35-2.21,2.18-3.14s1.43-1.56,2.2-2.32c-.13-.34-.27-.68-.42-1a92.11,92.11,0,0,0-8,9Z"/><path class="cls-3" d="M110.51,366.25a43.8,43.8,0,0,0-5-6.72,18.31,18.31,0,0,0-.62,2.85,17.29,17.29,0,0,1,3.1,3.87Z"/><path class="cls-3" d="M107.13,366.25c-.8-.69-1.58-1.38-2.38-2.06,0,.29,0,.59,0,.88s0,.79,0,1.18Z"/><path class="cls-3" d="M136.47,366.25c.59-1.51,1.21-3,1.84-4.51,1.3-3.07,2.73-6.12,4.2-9.16,1-2,1.9-4.16,3.06-6.2L145,346a168.54,168.54,0,0,0-11.07,20.21Z"/><path class="cls-3" d="M140.74,366.25c2-6.36,4-12.71,6.26-19.05l-.64-.38c-.32.63-.65,1.25-1,1.88q-1.24,2.54-2.43,5.08c-1.9,4.14-3.61,8.29-5.16,12.47Z"/><path class="cls-4" d="M47.61,357.23,50,355.75l12.28.21s2.19,2.72,2.19,9.87H55.31Z"/><path class="cls-5" d="M124,197.5s1.41,19.28.61,29c-1.43,17.22-3.16,44.75-7.44,61.91,0,24.52-2.71,44.61-1.71,67.57-4.48.12-7.85-.33-12.33-.21-1.59-16.29-5.32-27.85-8-45.63-.9-6,1.68-15.24,3.57-20.72-3.08-10.61-6.54-48.12-7.62-55.16-1.67-10.94,1.44-21.53,3.29-32.44Z"/><path class="cls-6" d="M112.25,204.89c-8.83,26.92-19.42,64.44-32.9,87.2C78.24,316.59,66.9,333,62.27,356c-4.52.12-7.76-.33-12.28-.21,2.41-16.29,6.64-62.1,10.07-67.72,1.43-11.29,6.34-53.58,7-61.12,1-10.94,4-19.11,9.81-25.11Z"/><path class="cls-7" d="M124.67,190.81a5.19,5.19,0,0,0-.21,3.15l.54,3.78a5.42,5.42,0,0,0,1.06,3,3.94,3.94,0,0,0,4.4.72c1.44-.66,3.55-3,3.78-4.5s-1.37-2-2.05-3.31-1.74-3.36-3.09-4.1A3.57,3.57,0,0,0,124.67,190.81Z"/><path class="cls-8" d="M129.93,185.66c1.26-8.15,4.15-11.2,7.55-18.71-5.86-5.35-11.92-13.19-16.78-19.46-3.7-4.78-7.15-9.94-8.61-15.8s-.62-12.59,3.45-17.06c16.08,13,27.7,27.48,36.32,46.58,3.3,7.32-1.16,16.36-4.6,23.61a20,20,0,0,1-5.2,7.21c-2.33,1.87-4.28,2.67-7.15,1.82S129.48,188.62,129.93,185.66Z"/><path class="cls-8" d="M86.35,110.53c-7.42,1-9.47,2.07-15.86,6-1.14.7-5.67,3.91-5.78,5.25C63.65,134.91,67.58,148,71,160.81c2.08,7.82,3.8,29.41-2.07,52.09,14.92,6.08,41,11,55.92,4.9,3.79-25.77,7.37-57.83,1-89A19.51,19.51,0,0,0,109,113.09Z"/><path class="cls-7" d="M84.3,94.72A66.53,66.53,0,0,1,86,112.28c-.57-.49-2.4.24-2.74.92a2.08,2.08,0,0,0,.33,2.14,5.27,5.27,0,0,0,1.81,1.35,26.07,26.07,0,0,0,15.88,2.66,7.22,7.22,0,0,0,2.84-.9A3,3,0,0,0,105.6,116a3.1,3.1,0,0,0-1.77-2.55,9.2,9.2,0,0,0-3.13-.8c-.31-4.38-1-8.47-1.36-12.85Z"/><path class="cls-9" d="M96.37,110.41a43,43,0,0,0,4.31,2c-.32-4.29-1-8.31-1.34-12.61l-15-5.08c.23,1,.44,2,.63,3a13,13,0,0,0,4.55,7.67A42.83,42.83,0,0,0,96.37,110.41Z"/><path class="cls-5" d="M80.87,89.15a14.18,14.18,0,0,1-3-11.33,3.42,3.42,0,0,1-2.16-2A3.14,3.14,0,0,1,76.18,73a4.17,4.17,0,0,1-4-2.88,5.18,5.18,0,0,1,1.17-5,6.84,6.84,0,0,1,4.75-2.11,13.63,13.63,0,0,1,5.29-10.62,6.3,6.3,0,0,1,2.77-1.29,3.08,3.08,0,0,1,2.8.92,2.08,2.08,0,0,1-.08,2.79,30.43,30.43,0,0,1,16.73-6.4,8.4,8.4,0,0,1,3.46.26,3.52,3.52,0,0,1,2.35,2.39,2.24,2.24,0,0,1-1.62,2.67,12.2,12.2,0,0,1,8.6.57c2.7,1.27,4.75,4.16,4.42,7.13-.27,2.35-1.89,4.33-3.65,5.92a28.57,28.57,0,0,1-6.39,4.39c-2.17,1.09-1.18,10-3.56,10.52Z"/><path class="cls-7" d="M108.48,69.46a1.94,1.94,0,0,1,1.38,1.65c1.08,9.66,2,17.75-.45,27.13-.9,3.47-2.6,7.17-6,8.44s-6.88-.27-9.81-2.14a40.43,40.43,0,0,1-9.93-9,4.72,4.72,0,0,1-5.51-2.39c-1.14-1.81-1.61-4.28-.43-6.07s4.33-2.11,5.34-.22c0-4,1.59-6.15,3.6-9.57-.65-2.38-1.16-5.12.58-6.87a6,6,0,0,1,1.93-1.19C94.21,67.08,102.85,67.79,108.48,69.46Z"/><path class="cls-6" d="M98.21,76.74a7.78,7.78,0,0,0-8.49.84c-.74.58.3,1.61,1,1A6.25,6.25,0,0,1,97.47,78C98.31,78.44,99.05,77.17,98.21,76.74Z"/><path class="cls-6" d="M110.71,76.48a4.79,4.79,0,0,0-6.61.56c-.58.68.41,1.68,1,1a3.38,3.38,0,0,1,4.62-.56C110.41,78,111.41,77,110.71,76.48Z"/><path class="cls-6" d="M95.75,80.06c-.07-.93-1.54-.94-1.47,0s.13,1.87.2,2.81,1.54.95,1.47,0S95.82,81,95.75,80.06Z"/><path class="cls-6" d="M109,79.49c-.07-.94-1.54-.94-1.47,0s.13,1.87.2,2.81,1.54,1,1.47,0S109.08,80.43,109,79.49Z"/><path class="cls-6" d="M100.18,96.28a7,7,0,0,1-4.68-2.59c-.61-.73-1.64.31-1,1a8.52,8.52,0,0,0,5.72,3C101.12,97.86,101.11,96.38,100.18,96.28Z"/><path class="cls-9" d="M98.49,99.83a6.35,6.35,0,0,1-2.64-.65c-.84-.42-1.59.85-.74,1.27a8,8,0,0,0,3.38.85C99.43,101.33,99.43,99.86,98.49,99.83Z"/><path class="cls-9" d="M105.25,89.37a3.63,3.63,0,0,1-3,1c-.94-.09-.93,1.38,0,1.47a5.09,5.09,0,0,0,4-1.46A.74.74,0,0,0,105.25,89.37Z"/><path class="cls-9" d="M82.49,91.65a1.18,1.18,0,0,1-.22-2.28c.85-.41.11-1.68-.74-1.27A2.68,2.68,0,0,0,80,91a2.74,2.74,0,0,0,2.45,2.13C83.43,93.23,83.42,91.76,82.49,91.65Z"/><path class="cls-7" d="M102.17,107.57a2.65,2.65,0,0,0-1.06,1.26,1.25,1.25,0,0,0,.45,1.47,2.32,2.32,0,0,0,1.78-.11h0a2.47,2.47,0,0,1,2.6.76l3.29-3.5A6.49,6.49,0,0,0,102.17,107.57Z"/><rect class="cls-10" x="107.7" y="96.58" width="2.98" height="17.17" rx="0.39" transform="translate(112.44 -46.4) rotate(47.31)"/><rect class="cls-11" x="108.32" y="96.58" width="1.75" height="17.17" transform="translate(112.44 -46.4) rotate(47.3)"/><polygon class="cls-12" points="117.49 97.51 116.26 97.81 117.09 98.71 117.49 97.51"/><polygon class="cls-13" points="116.26 97.81 114.49 98.25 116.51 100.44 117.09 98.71 116.26 97.81"/><path class="cls-7" d="M120.65,110.54a9.1,9.1,0,0,0-6-6,1.45,1.45,0,0,1-1-1.62c.35-2.65.53-5.29.88-8a.91.91,0,0,0-1.45-.84,3.42,3.42,0,0,0-.85.93,8.2,8.2,0,0,0-.93,2.87c-.63,3.23-1.18,6.35-1.81,9.58l-.18-.1-3.29,3.5a2.4,2.4,0,0,1,.59,1.55,14.57,14.57,0,0,0,.71,4.74c.89,2.56,3.08,4.87,5.78,5a7,7,0,0,0,5.4-2.48A9.7,9.7,0,0,0,120.65,110.54Z"/><path class="cls-14" d="M117.14,130c-1.71,10.63-3.41,21.33-6.81,31.57-3.23,9.74-11,27.43-24.44,22C76.24,179.66,72.4,165.07,70.11,156c-2.71-10.76-3.75-21.84-4.76-32.86-.1-1.08-1.8-1.09-1.7,0C64.84,136,66,149.05,69.86,161.44c2.69,8.69,7.13,21.94,17.26,24.31,10.83,2.53,18.35-7.78,22-16.37,5.33-12.36,7.48-25.76,9.6-39C118.94,129.35,117.31,128.89,117.14,130Z"/><path class="cls-14" d="M104.35,127.49c-7.67,12.57-14.75,29.38-17.56,43.83-.21,1.07,1.43,1.53,1.64.45,2.78-14.31,9.78-31,17.38-43.42C106.39,127.41,104.92,126.56,104.35,127.49Z"/><path class="cls-14" d="M86.15,135.89c-.35-1-2-.59-1.63.45a113,113,0,0,1,5.31,23.33c.12,1.07,1.82,1.08,1.69,0A113.91,113.91,0,0,0,86.15,135.89Z"/><path class="cls-7" d="M108.53,118.62a53.12,53.12,0,0,1-2,9.71,11.66,11.66,0,0,0,10,2c.2-3.61.27-7.15.48-10.75Z"/><path class="cls-7" d="M127.84,192.32c1.35-1.69,2.91-6.3,4.26-8,.7-.89,3.49-.35,4.33,0,3,1.1,3.86,4.51,3.15,7.47a5.43,5.43,0,0,1-2.6,3.4c-2.76,1.59-6.49,4.75-8.82,5.64Z"/><path class="cls-14" d="M126.61,134.76c-.23-1.32-1.87-.76-1.64.56a206.75,206.75,0,0,1-1.81,81.52c-.29,1.3,1.35,1.86,1.64.56A210,210,0,0,0,126.61,134.76Z"/><path class="cls-7" d="M128.67,189.73a16.5,16.5,0,0,0-6.14,1.08c-1.51.58-.86,3.05.68,2.46a14.56,14.56,0,0,1,5.46-1A1.27,1.27,0,0,0,128.67,189.73Z"/><path class="cls-7" d="M129.26,192.83a16.59,16.59,0,0,0-6.15,1.09c-1.51.58-.85,3,.68,2.45a14.64,14.64,0,0,1,5.47-1A1.28,1.28,0,0,0,129.26,192.83Z"/><path class="cls-7" d="M130.09,196.08a16.55,16.55,0,0,0-6.15,1.08c-1.51.58-.85,3.05.68,2.46a14.61,14.61,0,0,1,5.47-1A1.27,1.27,0,0,0,130.09,196.08Z"/><path class="cls-7" d="M130.25,199.11a14.28,14.28,0,0,0-5.33.95c-1.31.5-.74,2.64.59,2.13a12.41,12.41,0,0,1,4.74-.87A1.11,1.11,0,0,0,130.25,199.11Z"/><path class="cls-15" d="M56.6,365.83a9.14,9.14,0,0,0-9.14-9.1h0a9.14,9.14,0,0,0-9.14,9.1Z"/><path class="cls-15" d="M134.16,365.83a9.14,9.14,0,0,0-9.14-9.1h0a9.14,9.14,0,0,0-9.14,9.1Z"/><path class="cls-15" d="M125,356.73l-9.57-.77-12.33-.21a29.73,29.73,0,0,0-1.94,10.08h20.68Z"/><path class="cls-14" d="M105,212.61a60.61,60.61,0,0,1-27.73-17.8c-.69-.78-1.83.36-1.14,1.14a62.26,62.26,0,0,0,28.44,18.22A.81.81,0,0,0,105,212.61Z"/><path class="cls-14" d="M123.62,217.53c-8.85,3.88-18.62,2.91-27.89,1.33A187.18,187.18,0,0,1,69,212.05c-1-.32-1.41,1.24-.43,1.56a180.39,180.39,0,0,0,31.16,7.49c8.4,1.16,16.85,1.28,24.74-2.18C125.38,218.51,124.56,217.12,123.62,217.53Z"/><path class="cls-14" d="M146.44,163.88a11.69,11.69,0,0,0-7.84,1.91c-.86.58,0,2,.82,1.4a10.26,10.26,0,0,1,7-1.7C147.47,165.61,147.46,164,146.44,163.88Z"/><path class="cls-14" d="M90.08,139.7l-2.16,7c-.3,1,1.25,1.42,1.56.43l2.15-7C91.94,139.14,90.38,138.71,90.08,139.7Z"/><path class="cls-14" d="M128.84,140.15c-.53,2.3-1,4.6-1.58,6.9-.23,1,1.33,1.44,1.56.43l1.57-6.91C130.62,139.56,129.07,139.13,128.84,140.15Z"/><path class="cls-14" d="M118.13,202.83a22,22,0,0,1-19.38.77c-.94-.41-1.76,1-.81,1.39a23.68,23.68,0,0,0,21-.77C119.86,203.73,119.05,202.34,118.13,202.83Z"/><path class="cls-5" d="M79,286.4q-6.61,5.43-13.21,10.88c-.8.66.35,1.79,1.14,1.14q6.6-5.44,13.21-10.88C80.89,286.88,79.74,285.74,79,286.4Z"/><path class="cls-5" d="M68.91,299.34l-1.9,1.9a.81.81,0,0,0,1.14,1.14l1.9-1.9A.81.81,0,0,0,68.91,299.34Z"/><path class="cls-5" d="M61.36,350.25l-6.74.71c-1,.11-1,1.72,0,1.61l6.74-.71C62.39,351.76,62.4,350.14,61.36,350.25Z"/><path class="cls-5" d="M61.69,348.1l-3,.54c-1,.19-.58,1.74.43,1.56l3-.54C63.14,349.47,62.7,347.92,61.69,348.1Z"/><path class="cls-16" d="M388.4,365.83H1.85a1.63,1.63,0,1,0,0,3.22H388.4A1.63,1.63,0,1,0,388.4,365.83Z"/><path class="cls-2" d="M303.66,366.25a144.41,144.41,0,0,1,5.61-36.56q-2.36,1-4.54,2.11A74.94,74.94,0,0,1,301,345.31c-.14.34-1,.33-1,0a49.78,49.78,0,0,1,1.09-11.37,43.86,43.86,0,0,0-6.49,5.15c1.11,3.72,2.26,7.44,3.21,11.2,1,4,2.39,7.95,2.64,12.09,0,.48-1,.81-1.26.35-2.31-3.7-3.43-7.72-5-11.61-1.12-2.71-2.06-5.48-3-8.24a35.8,35.8,0,0,0-5.69,10,73.88,73.88,0,0,1,10.16,13.35Z"/><path class="cls-3" d="M310,366.25q0-1.78.06-3.57a170.06,170.06,0,0,1,1.65-20c.48-3.35.91-6.72,1.68-10.06.36-1.56.75-3.12,1.15-4.67-.9.25-1.79.52-2.67.82-.16.53-.31,1-.46,1.58a145.29,145.29,0,0,0-5.52,35.94Z"/><path class="cls-3" d="M319.11,366.25q.43-19.69-1.06-39.19l-1.6.35c-.24,2.21-.44,4.41-.7,6.6-.43,3.65-.84,7.28-1.17,10.92a208.66,208.66,0,0,0-.8,21.32Z"/><path class="cls-2" d="M353.56,366.25A160.61,160.61,0,0,1,370,347.89c-.39-.71-.81-1.4-1.26-2.08a30.45,30.45,0,0,1-4.68,4.68c-.33.24-.92,0-.83-.25.65-2,2.66-4.12,4.28-6l.1-.11c-.6-.81-1.22-1.61-1.89-2.38l-.91,1.42c-2.26,3.57-4.3,7.21-6.85,10.72-.37.51-1.59.46-1.42-.14a57.76,57.76,0,0,1,6.93-14.41,42.74,42.74,0,0,0-4.36-3.75c-3.54,10.2-6.87,20.4-10.08,30.62Z"/><path class="cls-2" d="M321.58,366.25H330a283.16,283.16,0,0,1,19.6-36.12c-1.42-.61-2.89-1.16-4.38-1.64l-.84,1.24c-2.71,4.17-5.31,8.38-7.61,12.63s-4.13,8.78-6.87,13c-.41.63-1.7.49-1.61-.15.67-4.38,2.91-8.93,5-13.23a135.87,135.87,0,0,1,7.19-13c.32-.51.66-1,1-1.53-1.37-.33-2.78-.61-4.2-.83-.48,1.41-.85,2.82-1.23,4.25-.16.57-1.46.73-1.53.14a12,12,0,0,1,.44-4.7c-1.24-.14-2.49-.24-3.76-.29-1.74,5.74-3.07,11.47-4.4,17.22-.17.73-1.63.68-1.61,0A70.7,70.7,0,0,1,327.86,326a55.77,55.77,0,0,0-7.38.64c.1,1.36.21,2.71.3,4.07C321.59,342.48,321.83,354.34,321.58,366.25Z"/><path class="cls-3" d="M374.22,366.25c0-.74.07-1.47.07-2.22s0-1.42-.08-2.12q-2.59,2.13-5,4.34Z"/><path class="cls-3" d="M364.91,366.25c2.8-2.68,5.76-5.3,8.87-7.83a31.69,31.69,0,0,0-.91-3.76c-.83.78-1.64,1.58-2.43,2.38-1.58,1.62-3,3.7-5.23,5-.26.15-.62,0-.58-.18.31-1.81,2.31-3.78,3.75-5.39q1.8-2,3.76-4c-.22-.58-.46-1.16-.71-1.74a158.73,158.73,0,0,0-13.83,15.5Z"/><path class="cls-3" d="M293.37,366.25a76.21,76.21,0,0,0-8.54-11.54,33.56,33.56,0,0,0-1.08,4.89,29.62,29.62,0,0,1,5.34,6.65Z"/><path class="cls-3" d="M287.55,366.25l-4.08-3.54c0,.51,0,1,0,1.52,0,.68,0,1.35.07,2Z"/><path class="cls-3" d="M338,366.25c1-2.59,2.07-5.17,3.17-7.75,2.23-5.27,4.68-10.51,7.21-15.73,1.69-3.49,3.26-7.14,5.26-10.66l-1.05-.57a288.64,288.64,0,0,0-19,34.71Z"/><path class="cls-3" d="M345.29,366.25c3.42-10.92,7-21.82,10.76-32.72l-1.09-.65c-.55,1.08-1.12,2.15-1.64,3.22-1.42,2.91-2.82,5.82-4.17,8.73-3.28,7.1-6.2,14.25-8.86,21.42Z"/><path class="cls-17" d="M335,39.43H301.46l-8.68-17.92h-28l-7.44,17.92h-36l.83,24,.18,5.43h116Zm-59.77-9.64a4.23,4.23,0,0,1,3-1.26,4.48,4.48,0,0,1,3.08,1.26,4.55,4.55,0,0,1,1.36,3v.3a4.29,4.29,0,0,1-1.15,3,4.19,4.19,0,0,1-3,1.26,4.48,4.48,0,0,1-4.45-4.3v-.3A4.32,4.32,0,0,1,275.24,29.79Z"/><polygon class="cls-18" points="175.75 52.15 135.81 352.57 139.57 356.34 345.15 356.34 367.8 165.91 381.33 52.15 377.56 48.39 175.75 52.15"/><path class="cls-17" d="M145.63,270l-9.83,82.59H341.38L364,162.15c-73.37,28.9-143.84,63.54-215.73,106.27C147.4,268.92,146.51,269.45,145.63,270Z"/><path class="cls-19" d="M172,48.39,145.63,270c.88-.54,1.77-1.07,2.67-1.57C220.19,225.69,290.66,191.05,364,162.15L377.56,48.39Z"/><polygon class="cls-20" points="330.29 340.93 149.67 340.93 183.08 60.03 363.7 60.03 330.29 340.93"/><path class="cls-21" d="M297.89,39.43,292,21.51H264L253.79,39.43h-36l-2.85,24C254.51,51.47,294.13,45.24,333.67,41l.18-1.57Zm-17.8-6.3a5.13,5.13,0,0,1-1.62,3,4.9,4.9,0,0,1-3.19,1.26,3.93,3.93,0,0,1-2.89-1.26,4,4,0,0,1-.89-3l0-.3a5.1,5.1,0,0,1,1.62-3,4.92,4.92,0,0,1,3.19-1.26,3.84,3.84,0,0,1,2.89,1.26,4,4,0,0,1,.9,3Z"/><path class="cls-22" d="M215,63.39l-.65,5.43h116L333.67,41C294.13,45.24,254.51,51.47,215,63.39Z"/><path class="cls-17" d="M341.28,91.53H199c-3.05,0-3.06,3.74,0,3.74H341.28C344.33,95.27,344.33,91.53,341.28,91.53Z"/><path class="cls-17" d="M333.47,145.23H191.16c-3,0-3.06,3.75,0,3.75H333.47C336.52,149,336.53,145.23,333.47,145.23Z"/><path class="cls-17" d="M325.67,198.94H183.35c-3,0-3,3.74,0,3.74H325.67C328.72,202.68,328.73,198.94,325.67,198.94Z"/><path class="cls-17" d="M317.86,252.64H175.55c-3.05,0-3.06,3.74,0,3.74H317.86C320.92,256.38,320.92,252.64,317.86,252.64Z"/><path class="cls-17" d="M310.06,306.34H167.75c-3.06,0-3.06,3.74,0,3.74H310.06C313.11,310.08,313.12,306.34,310.06,306.34Z"/><path class="cls-2" d="M186.23,366.25a100,100,0,0,1,3.88-25.32c-1.08.44-2.13.93-3.14,1.46a51.61,51.61,0,0,1-2.6,9.36c-.09.23-.67.23-.68,0a34.32,34.32,0,0,1,.75-7.88,30.35,30.35,0,0,0-4.49,3.57c.76,2.58,1.57,5.15,2.22,7.75.7,2.78,1.66,5.51,1.83,8.38,0,.33-.68.56-.88.24-1.59-2.56-2.37-5.35-3.48-8-.78-1.88-1.43-3.79-2.09-5.7a24.63,24.63,0,0,0-3.94,6.93,50.79,50.79,0,0,1,7,9.25Z"/><path class="cls-3" d="M190.62,366.25c0-.83,0-1.65,0-2.47a121.13,121.13,0,0,1,1.14-13.89c.34-2.31.63-4.64,1.17-7,.24-1.08.52-2.16.8-3.24q-.95.27-1.86.57c-.1.37-.21.73-.31,1.1a100.53,100.53,0,0,0-3.82,24.89Z"/><path class="cls-3" d="M196.93,366.25q.3-13.65-.73-27.15l-1.12.25c-.16,1.53-.3,3-.48,4.57-.29,2.53-.58,5-.81,7.57a143.1,143.1,0,0,0-.55,14.76Z"/><path class="cls-2" d="M220.79,366.25a111.75,111.75,0,0,1,11.38-12.72c-.27-.49-.57-1-.87-1.44a20.75,20.75,0,0,1-3.25,3.24c-.22.17-.63,0-.57-.17.45-1.41,1.84-2.85,3-4.13l.07-.07c-.41-.57-.85-1.12-1.3-1.65l-.64,1c-1.56,2.48-3,5-4.74,7.42-.26.36-1.1.32-1-.09a39.81,39.81,0,0,1,4.8-10,31.51,31.51,0,0,0-3-2.6c-2.45,7.06-4.76,14.13-7,21.21Z"/><path class="cls-2" d="M198.64,366.25h5.8a197.22,197.22,0,0,1,13.58-25c-1-.42-2-.8-3-1.13-.19.28-.39.57-.57.86-1.88,2.89-3.68,5.8-5.28,8.74s-2.86,6.08-4.76,9c-.28.43-1.17.33-1.11-.11.46-3,2-6.18,3.47-9.16a93.25,93.25,0,0,1,5-9c.22-.35.46-.71.69-1.06-1-.23-1.93-.42-2.91-.58-.34,1-.59,2-.86,2.95-.1.4-1,.51-1.06.1a8.66,8.66,0,0,1,.31-3.26c-.86-.1-1.73-.16-2.6-.2-1.21,4-2.13,7.95-3.05,11.93-.12.5-1.13.47-1.12,0a48.9,48.9,0,0,1,1.88-12,37.19,37.19,0,0,0-5.11.45l.21,2.81Q198.93,353.86,198.64,366.25Z"/><path class="cls-3" d="M235.09,366.25c0-.51.06-1,.06-1.54s0-1-.06-1.47c-1.2,1-2.36,2-3.5,3Z"/><path class="cls-3" d="M228.65,366.25q2.91-2.79,6.14-5.43a25.22,25.22,0,0,0-.62-2.6c-.58.54-1.14,1.09-1.69,1.65a18.39,18.39,0,0,1-3.62,3.46c-.18.11-.43,0-.41-.12.22-1.25,1.6-2.62,2.6-3.73.83-.93,1.7-1.86,2.61-2.76-.16-.41-.32-.81-.49-1.2a107,107,0,0,0-9.58,10.73Z"/><path class="cls-3" d="M179.1,366.25a52.63,52.63,0,0,0-5.91-8,22.63,22.63,0,0,0-.75,3.38,20.43,20.43,0,0,1,3.7,4.61Z"/><path class="cls-3" d="M175.07,366.25c-.94-.82-1.88-1.64-2.83-2.45,0,.35,0,.7,0,1.05s0,.93.05,1.4Z"/><path class="cls-3" d="M210,366.25c.71-1.8,1.44-3.58,2.2-5.37,1.54-3.65,3.24-7.28,5-10.9,1.17-2.41,2.25-4.94,3.63-7.38l-.72-.39a199.21,199.21,0,0,0-13.17,24Z"/><path class="cls-3" d="M215.06,366.25c2.37-7.56,4.83-15.12,7.45-22.66l-.75-.45c-.38.74-.77,1.49-1.14,2.23-1,2-2,4-2.88,6-2.27,4.92-4.3,9.87-6.14,14.84Z"/></g></g></svg>