<svg xmlns="http://www.w3.org/2000/svg" viewBox="0 0 500 364.06"><defs><style>.cls-1{fill:#ebebeb;}.cls-2{fill:#f0f0f0;}.cls-3{fill:#e6e6e6;}.cls-4{fill:#f5f5f5;}.cls-5{fill:#e0e0e0;}.cls-6{fill:#fafafa;}.cls-10,.cls-28,.cls-31,.cls-32,.cls-36,.cls-7,.cls-8{fill:#fff;}.cls-8{opacity:0.8;}.cls-9{fill:#263238;}.cls-10,.cls-13,.cls-15,.cls-18{opacity:0.2;}.cls-11{fill:#407bff;}.cls-12,.cls-23,.cls-28{opacity:0.1;}.cls-14{fill:#ffc3bd;}.cls-16{opacity:0.4;}.cls-17{fill:#e8bfbf;}.cls-18,.cls-24{isolation:isolate;}.cls-19,.cls-37{opacity:0.6;}.cls-20{fill:#ed893e;}.cls-21,.cls-24,.cls-34{opacity:0.3;}.cls-22{fill:#ffb573;}.cls-25{fill:#2e353a;}.cls-26{fill:#de5753;}.cls-27{fill:#ed847e;}.cls-29{fill:#b55b52;}.cls-30{fill:#e83f3f;}.cls-31,.cls-35{opacity:0.7;}.cls-32{opacity:0.9;}.cls-33{fill:none;}.cls-36{opacity:0.5;}</style></defs><g id="Layer_2" data-name="Layer 2"><g id="Background_Complete" data-name="Background Complete"><rect class="cls-1" x="416.78" y="343.54" width="33.12" height="0.25"/><rect class="cls-1" x="322.53" y="346.26" width="8.69" height="0.25"/><rect class="cls-1" x="396.59" y="334.26" width="19.19" height="0.25"/><rect class="cls-1" x="52.46" y="335.94" width="43.19" height="0.25"/><rect class="cls-1" x="104.56" y="335.94" width="6.33" height="0.25"/><rect class="cls-1" x="131.47" y="340.16" width="93.68" height="0.25"/><path class="cls-1" d="M237,282.85H43.91a5.71,5.71,0,0,1-5.7-5.71V5.71A5.71,5.71,0,0,1,43.91,0H237a5.71,5.71,0,0,1,5.71,5.71V277.14A5.71,5.71,0,0,1,237,282.85ZM43.91.25a5.46,5.46,0,0,0-5.45,5.46V277.14a5.46,5.46,0,0,0,5.45,5.46H237a5.47,5.47,0,0,0,5.46-5.46V5.71A5.47,5.47,0,0,0,237,.25Z"/><path class="cls-1" d="M453.31,282.85H260.21a5.72,5.72,0,0,1-5.71-5.71V5.71A5.72,5.72,0,0,1,260.21,0h193.1A5.71,5.71,0,0,1,459,5.71V277.14A5.71,5.71,0,0,1,453.31,282.85ZM260.21.25a5.47,5.47,0,0,0-5.46,5.46V277.14a5.47,5.47,0,0,0,5.46,5.46h193.1a5.47,5.47,0,0,0,5.46-5.46V5.71A5.47,5.47,0,0,0,453.31.25Z"/><rect class="cls-1" y="327.45" width="500" height="0.25"/><path class="cls-2" d="M287,270.11a.51.51,0,0,1-.17-.36c-.12-2.54-1.64-27.4-16.87-44.43-12.88-14.41.33-4.13,6.07.51a.53.53,0,0,0,.79-.68c-4-6.84-14.18-24.89-10.67-28.41,3.33-3.32,10.19,13.17,13.26,21.17a.53.53,0,0,0,1-.25c-.88-8.46-2.17-26.17,2.6-25.55s3.4,24,2.47,35.46a.53.53,0,0,0,1,.2c2.13-7.05,6.18-17.46,10.94-14.7,7.05,4.08-10.37,18.42-9.28,34C289.25,262.3,289.53,272.3,287,270.11Z"/><path class="cls-2" d="M296.12,272.41c.05,0,.12-.24.09-.41-3.32-21.07,19-36.39,34.66-44,3.49-1.69,7.11-3.44,10.08-6-5.8.39-11.6,2.83-17.17,4.69-.73.25-1.12-.51-.48-.95,7.1-4.94,26.89-23.1,21.19-28.38-2.57-2.39-16.78,16.56-20.13,20-.54.54-1.4.06-1-.58,4.41-7.38,5.87-30.66,1.4-30.38-1.89.12-2.61,11-3.6,15.47-1.86,8.31-5.35,16.12-9,23.76-.33.68-1.45.56-1.28-.11,1.27-5.09,1.74-20-4.53-18.94-4.54.78-3.81,9.57-3.85,14.28-.08,8.36-.78,16.92-4.38,24.37C295.66,250.26,292.61,272.83,296.12,272.41Z"/><path class="cls-1" d="M291.07,274.74a.32.32,0,0,0,.11-.24c.08-1.7,1.1-18.39,11.32-29.82,8.65-9.67-.22-2.77-4.07.34a.36.36,0,0,1-.53-.46c2.71-4.58,9.52-16.71,7.16-19.06s-6.84,8.84-8.9,14.2a.35.35,0,0,1-.68-.16c.59-5.68,1.45-17.57-1.75-17.15s-2.28,16.12-1.66,23.8a.35.35,0,0,1-.69.13c-1.43-4.73-4.16-11.71-7.35-9.86-4.73,2.74,7,12.36,6.23,22.8C289.54,269.5,289.35,276.22,291.07,274.74Z"/><path class="cls-3" d="M302.59,321.66c5.26-19.62,8.73-47.26,8.73-54.07H272.06c0,6.81,3.47,34.45,8.73,54.07a8.25,8.25,0,0,0,8,6.11h5.84A8.26,8.26,0,0,0,302.59,321.66Z"/><path class="cls-4" d="M310.18,280.59c.3-2.39.53-4.57.72-6.48H272.48c.18,1.91.42,4.09.71,6.48Z"/><rect class="cls-4" x="111.72" y="154.84" width="47.75" height="43.02" transform="translate(271.19 352.7) rotate(180)"/><rect class="cls-1" x="116.33" y="158.99" width="38.54" height="34.71" rx="4.6" transform="translate(271.19 352.7) rotate(180)"/><path class="cls-5" d="M143.55,159a2.87,2.87,0,0,1-2.84,2.08H130.48a2.87,2.87,0,0,1-2.84-2.08Z"/><rect class="cls-2" x="111.72" y="197.86" width="47.75" height="43.02" transform="translate(271.19 438.73) rotate(180)"/><rect class="cls-6" x="116.33" y="202.01" width="38.54" height="34.71" rx="4.6" transform="translate(271.19 438.73) rotate(180)"/><path class="cls-5" d="M143.55,202a2.86,2.86,0,0,1-2.84,2.07H130.48a2.86,2.86,0,0,1-2.84-2.07Z"/><rect class="cls-4" x="111.72" y="240.87" width="47.75" height="43.02" transform="translate(271.19 524.76) rotate(180)"/><rect class="cls-1" x="116.33" y="245.02" width="38.54" height="34.71" rx="4.6" transform="translate(271.19 524.76) rotate(180)"/><path class="cls-5" d="M143.55,245a2.86,2.86,0,0,1-2.84,2.08H130.48a2.86,2.86,0,0,1-2.84-2.08Z"/><rect class="cls-2" x="111.72" y="283.89" width="47.75" height="43.02" transform="translate(271.19 610.8) rotate(180)"/><rect class="cls-6" x="116.33" y="288.04" width="38.54" height="34.71" rx="4.6" transform="translate(271.19 610.8) rotate(180)"/><path class="cls-5" d="M143.55,288a2.86,2.86,0,0,1-2.84,2.07H130.48a2.86,2.86,0,0,1-2.84-2.07Z"/><rect class="cls-3" x="105.87" y="154.84" width="5.85" height="172.07" transform="translate(217.59 481.75) rotate(180)"/><rect class="cls-4" x="62.4" y="154.84" width="47.75" height="43.02" transform="translate(172.56 352.7) rotate(180)"/><rect class="cls-1" x="67.01" y="158.99" width="38.54" height="34.71" rx="4.6" transform="translate(172.56 352.7) rotate(180)"/><path class="cls-5" d="M94.23,159a2.86,2.86,0,0,1-2.83,2.08H81.16A2.85,2.85,0,0,1,78.33,159Z"/><rect class="cls-2" x="62.4" y="197.86" width="47.75" height="43.02" transform="translate(172.56 438.73) rotate(180)"/><rect class="cls-6" x="67.01" y="202.01" width="38.54" height="34.71" rx="4.6" transform="translate(172.56 438.73) rotate(180)"/><path class="cls-5" d="M94.23,202a2.86,2.86,0,0,1-2.83,2.07H81.16A2.85,2.85,0,0,1,78.33,202Z"/><rect class="cls-4" x="62.4" y="240.87" width="47.75" height="43.02" transform="translate(172.56 524.76) rotate(180)"/><rect class="cls-1" x="67.01" y="245.02" width="38.54" height="34.71" rx="4.6" transform="translate(172.56 524.76) rotate(180)"/><path class="cls-5" d="M94.23,245a2.86,2.86,0,0,1-2.84,2.08H81.16A2.84,2.84,0,0,1,78.33,245Z"/><rect class="cls-2" x="62.4" y="283.89" width="47.75" height="43.02" transform="translate(172.56 610.8) rotate(180)"/><rect class="cls-6" x="67.01" y="288.04" width="38.54" height="34.71" rx="4.6" transform="translate(172.56 610.8) rotate(180)"/><path class="cls-5" d="M94.23,288a2.86,2.86,0,0,1-2.84,2.07H81.16A2.85,2.85,0,0,1,78.33,288Z"/><rect class="cls-3" x="56.55" y="154.84" width="5.85" height="172.07" transform="translate(118.95 481.75) rotate(180)"/><rect class="cls-5" x="317.43" y="42.38" width="1.8" height="140.37"/><rect class="cls-5" x="429.48" y="42.38" width="1.8" height="140.37"/><polygon class="cls-1" points="438.33 51.2 310.38 51.2 307.69 44.91 441.04 44.91 438.33 51.2"/><polygon class="cls-1" points="438.33 59.85 310.38 59.85 307.69 53.55 441.04 53.55 438.33 59.85"/><polygon class="cls-1" points="438.33 68.5 310.38 68.5 307.69 62.2 441.04 62.2 438.33 68.5"/><polygon class="cls-1" points="438.33 77.15 310.38 77.15 307.69 70.85 441.04 70.85 438.33 77.15"/><polygon class="cls-1" points="438.33 85.8 310.38 85.8 307.69 79.5 441.04 79.5 438.33 85.8"/><polygon class="cls-1" points="438.33 94.45 310.38 94.45 307.69 88.15 441.04 88.15 438.33 94.45"/><polygon class="cls-1" points="438.33 103.1 310.38 103.1 307.69 96.8 441.04 96.8 438.33 103.1"/><polygon class="cls-1" points="438.33 111.75 310.38 111.75 307.69 105.45 441.04 105.45 438.33 111.75"/><polygon class="cls-1" points="438.33 120.4 310.38 120.4 307.69 114.1 441.04 114.1 438.33 120.4"/><polygon class="cls-1" points="438.33 129.05 310.38 129.05 307.69 122.75 441.04 122.75 438.33 129.05"/><polygon class="cls-1" points="438.33 137.7 310.38 137.7 307.69 131.4 441.04 131.4 438.33 137.7"/><polygon class="cls-1" points="438.33 146.35 310.38 146.35 307.69 140.05 441.04 140.05 438.33 146.35"/><polygon class="cls-1" points="438.33 155 310.38 155 307.69 148.7 441.04 148.7 438.33 155"/><polygon class="cls-1" points="438.33 163.65 310.38 163.65 307.69 157.35 441.04 157.35 438.33 163.65"/><polygon class="cls-1" points="438.33 172.3 310.38 172.3 307.69 166 441.04 166 438.33 172.3"/><polygon class="cls-1" points="438.33 180.95 310.38 180.95 307.69 174.65 441.04 174.65 438.33 180.95"/><rect class="cls-5" x="307.68" y="180.95" width="133.35" height="3.6"/><rect class="cls-5" x="303.03" y="37.01" width="142.65" height="8.4"/><path class="cls-5" d="M304.5,121.57h0a1.45,1.45,0,0,1-1.45-1.45v-49a1.45,1.45,0,0,1,1.45-1.45h0A1.45,1.45,0,0,1,306,71.13v49A1.45,1.45,0,0,1,304.5,121.57Z"/><rect class="cls-5" x="303.97" y="43.73" width="1.05" height="29.1"/><rect class="cls-1" x="54.32" y="35.57" width="163.83" height="99.83"/><rect class="cls-5" x="218.16" y="35.53" width="1.2" height="99.83"/><rect class="cls-5" x="59.28" y="39.91" width="0.99" height="89.83"/><rect class="cls-7" x="59.18" y="39.91" width="153.63" height="89.83"/><rect class="cls-4" x="150.52" y="69.84" width="12.66" height="18.18"/><rect class="cls-4" x="66.58" y="98.65" width="12.66" height="18.18"/><rect class="cls-4" x="65.34" y="60.73" width="12.66" height="12.66"/><rect class="cls-4" x="128.32" y="104.45" width="12.66" height="12.66"/><rect class="cls-4" x="170.74" y="71.41" width="32.42" height="45.56"/><rect class="cls-5" x="175.18" y="78" width="23.29" height="0.5"/><rect class="cls-5" x="186.57" y="78.49" width="0.5" height="33.74"/><rect class="cls-5" x="197.26" y="78.49" width="0.5" height="33.74"/><rect class="cls-5" x="177.07" y="78.49" width="0.5" height="33.74"/><rect class="cls-5" x="175.4" y="78.49" width="0.5" height="33.74"/><rect class="cls-5" x="175.65" y="80.27" width="21.62" height="0.5"/><rect class="cls-4" x="120.84" y="54.81" width="4.28" height="9.98" transform="translate(63.18 182.78) rotate(-90)"/><rect class="cls-4" x="123.27" y="86.54" width="3.33" height="9.98" transform="translate(33.4 216.46) rotate(-90)"/><rect class="cls-2" x="89.14" y="56.26" width="32.42" height="45.56"/><rect class="cls-4" x="121.03" y="93.91" width="3.33" height="9.98" transform="translate(23.79 221.59) rotate(-90)"/><rect class="cls-4" x="122.69" y="63.45" width="3.33" height="9.98" transform="translate(55.91 192.8) rotate(-90)"/><rect class="cls-4" x="120.5" y="71.72" width="3.33" height="9.98" transform="translate(45.46 198.88) rotate(-90)"/><rect class="cls-3" x="92.96" y="61.86" width="22.1" height="3.92"/><polygon class="cls-3" points="115.41 78.61 93.31 78.61 92.96 76.83 115.06 76.83 115.41 78.61"/><rect class="cls-3" x="92.96" y="69.7" width="7.84" height="3.92"/><circle class="cls-5" cx="261.67" cy="29.8" r="20.45" transform="translate(190.34 283.32) rotate(-80.78)"/><circle class="cls-8" cx="261.42" cy="29.8" r="16.41"/><path class="cls-5" d="M263,31.16a1.67,1.67,0,1,1-1.66-1.66A1.66,1.66,0,0,1,263,31.16Z"/><polygon class="cls-5" points="261.19 31.78 254.13 25.13 254.81 24.4 261.21 30.42 272.67 20.29 273.34 21.04 261.19 31.78"/></g><g id="Character_3" data-name="Character 3"><path class="cls-9" d="M354.57,295.94h32.91a124.38,124.38,0,0,1-12.69,4.28v5.32h-7.54v-5.32A123.82,123.82,0,0,1,354.57,295.94Z"/><path class="cls-9" d="M401.85,282.26H390.6a72.63,72.63,0,0,0,0-23.54h11.25A72.63,72.63,0,0,1,401.85,282.26Z"/><rect class="cls-9" x="366.14" y="305.54" width="9.77" height="39.38"/><rect class="cls-10" x="366.14" y="305.54" width="9.77" height="39.38"/><path class="cls-11" d="M420.63,261.41H372.12a8.86,8.86,0,0,1-8.81-10.51c2.33-17.5,3.56-30,3.73-47.63a8.78,8.78,0,0,1,8.92-9.08h40.83a11,11,0,0,1,10.65,9.08c2.4,17.49,3.71,30,3.95,47.63A10.89,10.89,0,0,1,420.63,261.41Z"/><path class="cls-11" d="M422.79,250.9c-.24-17.66-1.55-30.14-4-47.63a11,11,0,0,0-10.65-9.08H376a8.78,8.78,0,0,0-8.92,9.08c-.17,17.66-1.4,30.13-3.73,47.63a8.86,8.86,0,0,0,8.81,10.51H412A10.89,10.89,0,0,0,422.79,250.9Z"/><path class="cls-12" d="M422.79,250.9c-.24-17.66-1.55-30.14-4-47.63a11,11,0,0,0-10.65-9.08H376a8.78,8.78,0,0,0-8.92,9.08c-.17,17.66-1.4,30.13-3.73,47.63a8.86,8.86,0,0,0,8.81,10.51H412A10.89,10.89,0,0,0,422.79,250.9Z"/><path class="cls-9" d="M400.18,350.43a1.44,1.44,0,0,1-1.75,1.41c-5.31-1.15-21.2-4.5-27.41-4.5s-22.09,3.35-27.4,4.5a1.44,1.44,0,0,1-1.75-1.41h0a3.79,3.79,0,0,1,3-3.71c6.21-1.34,20.38-4.24,26.15-4.24s20,2.9,26.16,4.24a3.79,3.79,0,0,1,3,3.71Z"/><path class="cls-9" d="M393.69,354.32a3.83,3.83,0,1,0,3.83-3.83,3.83,3.83,0,0,0-3.83,3.83Z"/><path class="cls-9" d="M345.51,354.32a3.83,3.83,0,1,1-3.83-3.83,3.83,3.83,0,0,1,3.83,3.83Z"/><path class="cls-9" d="M374.44,353.09a3.83,3.83,0,1,1-3.83-3.83,3.83,3.83,0,0,1,3.83,3.83Z"/><path class="cls-11" d="M385.79,281.51a396.11,396.11,0,0,1-58.24-2.05,6.29,6.29,0,0,0-7.19,6.38v1a8.28,8.28,0,0,0,7.19,8,398.89,398.89,0,0,0,58.24,2.05Z"/><path class="cls-13" d="M385.79,281.51a396.11,396.11,0,0,1-58.24-2.05,6.29,6.29,0,0,0-7.19,6.38v1a8.28,8.28,0,0,0,7.19,8,398.89,398.89,0,0,0,58.24,2.05Z"/><path class="cls-11" d="M414.88,294.8c-11.13,1-22.09,1.77-33.25,2.22a6.68,6.68,0,0,1-6.85-6.72v-1.7a7,7,0,0,1,6.85-7c11.16-.44,22.12-1.18,33.25-2.22a6,6,0,0,1,6.81,6v1.7A7.86,7.86,0,0,1,414.88,294.8Z"/><polygon class="cls-14" points="309.9 326.87 302.15 327.44 308.86 305.38 315.32 314.84 309.9 326.87"/><g class="cls-15"><polygon points="309.01 305.07 306.22 314.47 313.8 318.25 315.48 314.54 309.01 305.07"/></g><path class="cls-11" d="M311,325.11a6.56,6.56,0,0,1-.28,3c-1.12,3.58-4.28,13-4.28,13l-.8-.23s1.21-4.75,1.52-7.24-.77-.64-2.86,1.43-6.32,3.45-11.51,2.09c-6.08-1.6-8.44-2.59-6.22-3.65s6.51-.89,6.51-.89a19.27,19.27,0,0,0,10.66-13.16c.56-2.26,1.5-2,2.61-.86A24.26,24.26,0,0,0,312,322.9,11.72,11.72,0,0,0,311,325.11Z"/><polygon class="cls-14" points="361.22 335.85 355.79 341.42 346.19 320.45 357.31 323.25 361.22 335.85"/><g class="cls-15"><polygon points="346.11 320.12 350.25 329.01 358.43 326.81 357.22 322.92 346.11 320.12"/></g><path class="cls-11" d="M360.86,333.82a6.67,6.67,0,0,1,1.79,2.44c1.54,3.42,5.42,12.59,5.42,12.59l-.75.35s-2.25-4.36-3.66-6.42-1,0-1.19,3-2.45,6.77-7.24,9.19c-5.62,2.84-8,3.66-7.07,1.4s4.28-5,4.28-5a19.24,19.24,0,0,0-.74-16.91c-1.08-2.07-.22-2.51,1.39-2.38a24.58,24.58,0,0,0,7.07-.56A12,12,0,0,0,360.86,333.82Z"/><path class="cls-11" d="M383.44,281.63h-39c6.36,4.54,13.85,42,13.85,42l-10.5,3.64s-3-6.45-8.63-21.79c-2.86-7.76-6.31-15.72-8.33-23.52v0a55.13,55.13,0,0,1-1.43-7.31q-.07-.56-.12-1.11c0-.24,0-.48,0-.71s0-.4,0-.6V272c0-.16,0-.32.07-.48l0-.12a4.21,4.21,0,0,1,.12-.48.14.14,0,0,1,0-.07,5.05,5.05,0,0,1,.18-.55l0-.1a5.05,5.05,0,0,1,.24-.53.31.31,0,0,1,.05-.1c.08-.16.17-.31.26-.46a8.59,8.59,0,0,1,.72-1l.09-.1.41-.45a11,11,0,0,1,1-.92.1.1,0,0,1,.05,0l.58-.45.62-.44.66-.42c.45-.27.93-.54,1.43-.79,0,0,0,0,.05,0l1.33-.63.46-.2s.05,0,.06,0h0c4.36,1.41,12.37,5.06,21,8.72,9.71,4.14,20.16,8.27,26.89,9.13A15.44,15.44,0,0,1,383.44,281.63Z"/><path class="cls-16" d="M383.44,281.63h-39c6.36,4.54,13.85,42,13.85,42l-10.5,3.64s-3-6.45-8.63-21.79c-2.86-7.76-6.31-15.72-8.33-23.52v0a55.13,55.13,0,0,1-1.43-7.31q-.07-.56-.12-1.11c0-.24,0-.48,0-.71s0-.4,0-.6V272c0-.16,0-.32.07-.48l0-.12a4.21,4.21,0,0,1,.12-.48.14.14,0,0,1,0-.07,5.05,5.05,0,0,1,.18-.55l0-.1a5.05,5.05,0,0,1,.24-.53.31.31,0,0,1,.05-.1c.08-.16.17-.31.26-.46a8.59,8.59,0,0,1,.72-1l.09-.1.41-.45a11,11,0,0,1,1-.92.1.1,0,0,1,.05,0l.58-.45.62-.44.66-.42c.45-.27.93-.54,1.43-.79,0,0,0,0,.05,0l1.33-.63.46-.2s.05,0,.06,0h0c4.36,1.41,12.37,5.06,21,8.72,9.71,4.14,20.16,8.27,26.89,9.13A15.44,15.44,0,0,1,383.44,281.63Z"/><path class="cls-11" d="M385.62,281.48c-6.73-.86-17.18-5-26.89-9.13-8.58-3.66-16.59-7.31-21-8.72,13-5.45,36.18-5.32,36.18-5.32s6-5.7,12.67-7.06a14,14,0,0,1,2.73-.29l.19.26C401.13,266.66,396.87,280,385.62,281.48Z"/><path class="cls-9" d="M341.46,230.24c5.66,5.19,16.81-7.07,18.6-8.53,3.84-3.14,15.13-13.68,14.53-17.34-1.76-10.78-19.45,4.49-24.55,15Z"/><path class="cls-9" d="M391.09,197.84c2.84.6,5.92-.42,7.92,1.68a13.37,13.37,0,0,1,3.13,8,53.23,53.23,0,0,1-.63,12.08q-.93,7.29-1.88,14.57a43.94,43.94,0,0,0,.46,12v0a1.94,1.94,0,0,1-1.1,2.09s-22.07.76-28.49.52c-3.41-.13-1.07-9.1-2.11-14.33-.23-1.16-2.52-6-2.86-7.19-1.58-5.79-.53-9.77.94-15.59,1.07-4.22,1.5-10.32,3.66-10.79C374,200.05,383.17,196.15,391.09,197.84Z"/><path class="cls-9" d="M394.25,202c.29-.45,8.05-7,9.46.57,2,10.51-2.1,20.85-2.1,20.85s-.93,11.37-4.23,12.5-6.45,1.42-7.56-.52a11.6,11.6,0,0,1-1.11-4.86S389.1,209.83,394.25,202Z"/><path class="cls-17" d="M388.87,183.42c-.8,4.84-1.48,13.68,2,16.79a45.25,45.25,0,0,0-14,12.14,7.33,7.33,0,0,1-2.57-8.16,7.14,7.14,0,0,1,3.56-4.3c3.28-1.81,3-5.18,2.07-8.36Z"/><path class="cls-18" d="M387.77,191.63l-3.16,1.21a10.34,10.34,0,0,1-4.23.68h0a6.89,6.89,0,0,1,0,3,6,6,0,0,0,6.26-2A10.73,10.73,0,0,0,387.77,191.63Z"/><path class="cls-11" d="M400.27,248.34l.92,2.92c.13.22-.13.46-.52.48l-33.24,1c-.3,0-.54-.13-.57-.32l-.38-2.94c0-.21.22-.38.54-.4l32.67-1A.63.63,0,0,1,400.27,248.34Z"/><path class="cls-11" d="M330.32,269.15a7.57,7.57,0,0,1,.72-1A8.59,8.59,0,0,0,330.32,269.15Z"/><path class="cls-11" d="M332.53,266.66a11,11,0,0,0-1,.92A8.75,8.75,0,0,1,332.53,266.66Z"/><path class="cls-19" d="M330.32,269.15a7.57,7.57,0,0,1,.72-1A8.59,8.59,0,0,0,330.32,269.15Z"/><path class="cls-19" d="M332.53,266.66a11,11,0,0,0-1,.92A8.75,8.75,0,0,1,332.53,266.66Z"/><path class="cls-17" d="M344.14,226.84a13.46,13.46,0,0,1-4.18-6.71,13.7,13.7,0,0,1-.19-2.78A156,156,0,0,1,341.45,201l4.7-1.55s1.46,8.06,1.78,12.49c.07.87.17,1.9.27,3,.21,2,.46,4.15.69,6Z"/><path class="cls-9" d="M341.45,230.24c-1.44-1.32-1.68-2.91-2.43-6.31-.71-3.22.09-7.15.75-6.58a.65.65,0,0,1,.19.28c1.13,2.69,5.57.33,6.83-1a9.54,9.54,0,0,0,1.41-1.73,1.47,1.47,0,0,0,0-1.64c1.36-.56,2.45,4.81,1.8,6.13l-.33,1a13.7,13.7,0,0,1-2.47,4.43l-2.47,3Z"/><path class="cls-17" d="M346.27,200.11l.56-8.2a35.06,35.06,0,0,1-4.53,1.75c-2.28.77-5.36-.6-4.67.88a63.49,63.49,0,0,0,3.82,6.43Z"/><path class="cls-17" d="M346.83,191.91l-3.49-8.21-4.59,2.81c-1.27,2.74-1.12,8-1.12,8S344,194.83,346.83,191.91Z"/><path class="cls-9" d="M370.63,169.63c-3.5,6.63-2.65,15,1.07,21.55,6.37-4.32,15.62-.88,22.18-4.86,4.38-2.66,6.45-8.39,5.32-13.4-1.21-5.39-7.06-11.71-12.74-12.26C380.09,160,373.58,164,370.63,169.63Z"/><path class="cls-17" d="M392.22,172.25a10.19,10.19,0,0,0-13.16-5.91c-7.44,2.79-8.83,13.89-7.44,20.7,1.5,7.6,10.6,10.07,16.49,4.38,3.93-3.78,4.05-7,4.73-14.49A10.36,10.36,0,0,0,392.22,172.25Z"/><path class="cls-20" d="M376.08,184.41a2.63,2.63,0,0,1-2.17-.47,16.23,16.23,0,0,0,2.3-3.86Z"/><path class="cls-9" d="M381.78,185.11a.17.17,0,0,0,0-.25.18.18,0,0,0-.25,0,4.78,4.78,0,0,1-4,1.79.2.2,0,0,0-.18.18h0a.17.17,0,0,0,.17.17,4.22,4.22,0,0,0,.87,0A5.12,5.12,0,0,0,381.78,185.11Z"/><path class="cls-9" d="M381.52,163.45a7.57,7.57,0,0,0-1.79,2.76c8,4,12.1,14.32,12.48,23.32,3-2.45,8.37-5.06,11-8.26,2.92-3.59,1.44-8.86-1.93-12a71.14,71.14,0,0,0-9.7-6.8A8.21,8.21,0,0,0,381.52,163.45Z"/><path class="cls-17" d="M395,182.06a2.47,2.47,0,0,0-2.38-2.55c-1.88,0-3.12,2.31-3.4,3.93-.28,1.81.81,3.35,2.59,2.62a5.56,5.56,0,0,0,2.94-3A2.58,2.58,0,0,0,395,182.06Z"/><path class="cls-9" d="M381.22,178c0,.76-.37,1.38-.86,1.4s-.91-.59-.92-1.35.37-1.37.85-1.39S381.2,177.25,381.22,178Z"/><path class="cls-9" d="M374.21,178.79c0,.75-.36,1.37-.85,1.39s-.91-.59-.93-1.35.37-1.37.86-1.39S374.2,178,374.21,178.79Z"/><path class="cls-9" d="M373.51,177.48l-1.82-.47S372.65,178.39,373.51,177.48Z"/><path class="cls-9" d="M383.34,175.13a.28.28,0,0,0,.17-.09.37.37,0,0,0,0-.52h0a4.26,4.26,0,0,0-3.71-1.37.36.36,0,1,0,.12.72A3.62,3.62,0,0,1,383,175,.34.34,0,0,0,383.34,175.13Z"/><path class="cls-9" d="M371.54,176.41a.35.35,0,0,0,.14-.13,3.61,3.61,0,0,1,2.86-1.59.37.37,0,0,0,.39-.35h0a.38.38,0,0,0-.36-.38,4.35,4.35,0,0,0-3.49,1.91.36.36,0,0,0,.06.51.37.37,0,0,0,.4,0Z"/><path class="cls-9" d="M380.51,176.71l-1.82-.47S379.66,177.62,380.51,176.71Z"/><path class="cls-9" d="M369.59,180.17c-.23,4.64,1.91,11.64,5.19,14.92-3.06,1.34-7.16-2-9.48-4.38a11.86,11.86,0,0,1-2.95-9.23,20,20,0,0,1,3.56-9.23c3-4.56,7.52-7.69,12.45-10,1-.46,2.53-.66,2.85.38.22.72-.39,1.4-.95,1.91C374.87,169.37,370.76,172.68,369.59,180.17Z"/><path class="cls-9" d="M387.74,193.1l-.06,0a.28.28,0,0,1-.12-.38c5.68-11-4.71-22.9-8-26.29a.28.28,0,0,1,.39-.39c3.39,3.46,14,15.61,8.13,26.94A.27.27,0,0,1,387.74,193.1Z"/><polygon class="cls-11" points="391.96 185.16 390.74 189.23 391.62 190.4 392.46 189.26 391.96 185.16"/><path class="cls-17" d="M391.45,195.51c0-.26-.07-.61-.1-1a3.43,3.43,0,0,1,2.78-3.65h.05a1.44,1.44,0,0,0,1.08-.93c.62-1.8.86-2.34,1.45-4.1,1.62-.39,3.53.2,5.2.39a14.26,14.26,0,0,1,.09,6.1,2.7,2.7,0,0,1-.51,1.26,21.58,21.58,0,0,1-5,3.07C395,197.11,393,195.65,391.45,195.51Z"/><path class="cls-17" d="M396.29,196.72s4.41,28.43-.13,32.77c-2.67,2.55-5,1.14-6.42-.45a5.7,5.7,0,0,1-1.39-4.39l3.1-29.14S394.51,193.74,396.29,196.72Z"/><path class="cls-11" d="M398.12,279.32a18.61,18.61,0,0,1-4,1.55c-.35.09-.71.18-1.07.25a24.14,24.14,0,0,1-5.13.53,15,15,0,0,1-1.71-.1l-.62-.07-.64-.09c-.63-.1-1.28-.22-2-.36s-1.5-.34-2.29-.55l-.77-.21q-1.47-.4-3-.9l-1.05-.34c-2-.65-4-1.4-6.14-2.2l-.83-.32c-2.68-1-5.41-2.16-8.11-3.29l-2.06-.87c-8.58-3.66-16.59-7.31-21-8.72h0s0,0-.06,0l-.46.2-1.33.63s0,0-.05,0c-.5.25-1,.52-1.43.79l-.66.42-.62.44-.58.45a.1.1,0,0,0-.05,0,11,11,0,0,0-1,.92l-.41.45-.09.1a8.59,8.59,0,0,0-.72,1c-.09.15-.18.3-.26.46a.31.31,0,0,0-.05.1,5.05,5.05,0,0,0-.24.53l0,.1a5.05,5.05,0,0,0-.18.55.14.14,0,0,0,0,.07,4.21,4.21,0,0,0-.12.48l0,.12c0,.16-.05.32-.07.48v.15q0,.3,0,.6c0,.23,0,.47,0,.71s.07.74.12,1.11a55.13,55.13,0,0,0,1.43,7.31c-1.41,3.49-2.84,6.93-4.24,10.21l-1.38,3.22c-1.59,3.7-3.11,7.13-4.45,10.14q-.3.64-.57,1.26l-1.56,3.45c-.17.35-.32.7-.47,1l-1.8,3.9c-.07.14-.14.28-.2.42s-.12.26-.18.38-.11.23-.16.34c-.41.87-.28.58-.28.58L306,311.36s7.13-25.25,11.77-48.56a20.6,20.6,0,0,1,17.84-16.49c18.26-2.08,43.42,5.06,43.42,5.06h1.7l4-.06,1.91,0H387l1.6,0H391c3.18,0,6.44-.06,9,0C408.82,266.3,405.46,275.37,398.12,279.32Z"/><g class="cls-21"><path d="M398.12,279.32a18.61,18.61,0,0,1-4,1.55c-.35.09-.71.18-1.07.25a24.14,24.14,0,0,1-5.13.53,15,15,0,0,1-1.71-.1l-.62-.07-.64-.09c-.63-.1-1.28-.22-2-.36s-1.5-.34-2.29-.55l-.77-.21q-1.47-.4-3-.9l-1.05-.34c-2-.65-4-1.4-6.14-2.2l-.83-.32c-2.68-1-5.41-2.16-8.11-3.29l-2.06-.87c-8.58-3.66-16.59-7.31-21-8.72h0s0,0-.06,0l-.46.2-1.33.63s0,0-.05,0c-.5.25-1,.52-1.43.79l-.66.42-.62.44-.58.45a.1.1,0,0,0-.05,0,11,11,0,0,0-1,.92l-.41.45-.09.1a8.59,8.59,0,0,0-.72,1c-.09.15-.18.3-.26.46a.31.31,0,0,0-.05.1,5.05,5.05,0,0,0-.24.53l0,.1a5.05,5.05,0,0,0-.18.55.14.14,0,0,0,0,.07,4.21,4.21,0,0,0-.12.48l0,.12c0,.16-.05.32-.07.48v.15q0,.3,0,.6c0,.23,0,.47,0,.71s.07.74.12,1.11a55.13,55.13,0,0,0,1.43,7.31c-1.41,3.49-2.84,6.93-4.24,10.21l-1.38,3.22c-1.59,3.7-3.11,7.13-4.45,10.14q-.3.64-.57,1.26l-1.56,3.45c-.17.35-.32.7-.47,1l-1.8,3.9c-.07.14-.14.28-.2.42s-.12.26-.18.38-.11.23-.16.34c-.41.87-.28.58-.28.58L306,311.36s7.13-25.25,11.77-48.56a20.6,20.6,0,0,1,17.84-16.49c18.26-2.08,43.42,5.06,43.42,5.06h1.7l4-.06,1.91,0H387l1.6,0H391c3.18,0,6.44-.06,9,0C408.82,266.3,405.46,275.37,398.12,279.32Z"/></g></g><g id="Character_2" data-name="Character 2"><rect class="cls-9" x="231.18" y="309.39" width="9.37" height="39.11"/><rect class="cls-10" x="231.18" y="309.39" width="9.37" height="39.11"/><rect class="cls-9" x="232.52" y="284.61" width="6.68" height="24.97"/><polygon class="cls-18" points="239.2 289.24 232.52 291.68 232.52 284.61 239.2 284.61 239.2 289.24"/><path class="cls-9" d="M262.77,354.32a3.83,3.83,0,1,0,3.83-3.83,3.84,3.84,0,0,0-3.83,3.83Z"/><path class="cls-9" d="M206.51,354.32a3.83,3.83,0,1,1-3.83-3.83,3.83,3.83,0,0,1,3.83,3.83Z"/><path class="cls-9" d="M239.69,353.09a3.83,3.83,0,1,1-3.83-3.83,3.82,3.82,0,0,1,3.83,3.83Z"/><path class="cls-9" d="M194.34,349.17a1.85,1.85,0,0,0,1.88,1.5l39.95-.54,37.41.84a1.86,1.86,0,0,0,.42-3.68l-20.43-4a34.74,34.74,0,0,0-6.43-.6H225.19a34.47,34.47,0,0,0-6.42.6l-23,3.68A1.84,1.84,0,0,0,194.34,349.17Z"/><path class="cls-9" d="M193.72,284.51v.09H195A9.65,9.65,0,0,1,193.72,284.51Z"/><path class="cls-11" d="M247.2,208.11a1.21,1.21,0,0,1,0,.19v68.4H185.9V207.59A11.67,11.67,0,0,1,186,206l-.1,0,.58-9.63a11.44,11.44,0,0,1,3.18-7.26l6.13-6.42,3.16-16a5.33,5.33,0,0,1,5.22-4.3h14.14a5.34,5.34,0,0,1,5,3.6l5.92,17.26,11.29,6.95a11.48,11.48,0,0,1,5.34,8.1l1.47,9.82Z"/><path class="cls-12" d="M247.2,208.11a1.21,1.21,0,0,1,0,.19v68.4H194.12V207.59a11.67,11.67,0,0,1,.1-1.56l-.1,0,.58-9.63a11.44,11.44,0,0,1,3.18-7.26l6.13-6.42,3.16-16a5.33,5.33,0,0,1,5.22-4.3h5.92a5.34,5.34,0,0,1,5,3.6l5.92,17.26,11.29,6.95a11.48,11.48,0,0,1,5.34,8.1l1.47,9.82Z"/><path class="cls-9" d="M252.52,287.92H219.61a124.38,124.38,0,0,0,12.69,4.28v5.32h7.54V292.2A123.82,123.82,0,0,0,252.52,287.92Z"/><path class="cls-11" d="M221.3,273.5a397.64,397.64,0,0,0,58.25-2.06,6.31,6.31,0,0,1,7.19,6.38v.95a8.29,8.29,0,0,1-7.19,8.05,397.63,397.63,0,0,1-58.25,2.05Z"/><path class="cls-13" d="M221.3,273.5a397.64,397.64,0,0,0,58.25-2.06,6.31,6.31,0,0,1,7.19,6.38v.95a8.29,8.29,0,0,1-7.19,8.05,397.63,397.63,0,0,1-58.25,2.05Z"/><path class="cls-11" d="M192.22,286.78c11.12,1,22.08,1.77,33.24,2.22a6.67,6.67,0,0,0,6.85-6.71v-1.71a7,7,0,0,0-6.85-6.95c-11.16-.45-22.12-1.19-33.24-2.23a6,6,0,0,0-6.82,6v1.71A7.86,7.86,0,0,0,192.22,286.78Z"/><path class="cls-22" d="M283.7,191.13l.93,3.14-1.76,2.59a14.12,14.12,0,0,1-6.47,3.68,3.31,3.31,0,0,1-3.47-1.49l-.37-.59a4.28,4.28,0,0,1-.39-.84c-.53-1.62-.06-2.6,1.24-3.69l4.44-4.65a57.51,57.51,0,0,1,5.78-1.27C284.23,188,283.76,190.53,283.7,191.13Z"/><path class="cls-9" d="M255.56,211s13.25-13.68,15.77-15.06l.91-.69,4.16,5.26c-.58.59-20.13,34.46-27.53,21.82-1.38-2.38-2.66-4.72-3.83-7.1-.61-1.24-4.31-8.74-4.87-10L239.6,204c-2.69-5.95-3.68-13,1.87-17.1h0c2.08-.91,5.49,1.55,6.29,4.78Z"/><g class="cls-23"><path class="cls-7" d="M255.56,211s13.25-13.68,15.77-15.06l.91-.69,4.16,5.26c-.58.59-20.13,34.46-27.53,21.82-1.38-2.38-2.66-4.72-3.83-7.1-.61-1.24-4.31-8.74-4.87-10L239.6,204c-2.69-5.95-3.68-13,1.87-17.1h0c2.08-.91,5.49,1.55,6.29,4.78Z"/></g><g id="character-2--inject-102"><polygon class="cls-22" points="300.12 332.12 302.69 348.81 295.66 348.81 290.68 332.12 300.12 332.12"/><path class="cls-11" d="M302.92,347.7l-7.26.16a.53.53,0,0,0-.59.52h0a9.65,9.65,0,0,0-.39,5.24c.28,1.36.67,2.66,1.09,2.68,3.27,0,12,.07,20.67,0,3.63.07,3.63-3.72.83-3.72a21.4,21.4,0,0,1-12.88-4.37A2.52,2.52,0,0,0,302.92,347.7Z"/><polygon class="cls-13" points="301.36 340.17 300.12 332.12 290.68 332.12 293.62 341.94 301.36 340.17"/><polygon class="cls-22" points="244.54 330.73 239.08 344.69 231.38 344.69 234.89 330.93 244.54 330.73"/><polygon class="cls-13" points="233.31 337.11 234.81 329.52 244.54 330.73 242.05 337.33 233.31 337.11"/><path class="cls-11" d="M239.29,343.48l-6.47-3a.56.56,0,0,0-.79,0h0l-4.85,4.29a1.42,1.42,0,0,0,.27,2c2.52,1.91,4.24,3.6,7.39,6.07,1.93,1.52,5.56,4.67,8.23,6.77s4.56-.46,3.6-1.55a33.09,33.09,0,0,1-6.57-13.36A2.38,2.38,0,0,0,239.29,343.48Z"/></g><path class="cls-11" d="M251.08,252.08c-8.28-22.35-2.84-42.91-3.88-54.29a13,13,0,0,0-10.48-11.56c-5.66-1.1-12.65-2.32-19.32-3.22a12.3,12.3,0,0,0-1.92-.12,13.07,13.07,0,0,0-12.89,13.24c.58,33.73,11.39,56,11.39,56l17.45-.07Z"/><path class="cls-22" d="M232.15,173.57c-1.19,4.62-1.57,10.36,4.88,12.75,1.79,2.85,2.67,5.85-4.23,4.78a21.17,21.17,0,0,1-13.9-7.86c4.13-3.61,3.37-14.69,2.33-20.94Z"/><path class="cls-9" d="M255.41,248.83s40-1.08,40.87,17c1.27,26,5.67,70.51,5.67,70.51l-10.78,2.37s-15.38-43.55-16-63.88c-16.08-3.21-40.24,1.64-45.1-8.92a28.34,28.34,0,0,1-1.83-17.11Z"/><g class="cls-23"><path d="M255.41,248.83s40-1.08,40.87,17c1.27,26,5.67,70.51,5.67,70.51l-10.78,2.37s-15.38-43.55-16-63.88c-16.08-3.21-40.24,1.64-45.1-8.92a28.34,28.34,0,0,1-1.83-17.11Z"/></g><path class="cls-9" d="M240,246.85s27.09,3.81,25.82,21.91c-1.4,19.81-22.16,65.74-22.16,65.74H233.19s7-41.69,10.13-61.87c-14.62,0-23.76,1.91-28.63-8.68a28.26,28.26,0,0,1-1.82-17.11Z"/><path class="cls-9" d="M242.81,186.61c2.31,1.95,6,5.1,6.66,23.91.2,6-.73,12-.57,18,.18,6.93,1.85,11.82,4.23,18.33,0,1.55-2.34,2.42-4.33,2.82-4.12-9-6.71-17.63-6.55-27.54.56-35.51-10.52-38.82-10.11-40.09Z"/><path class="cls-24" d="M227.12,177a5.81,5.81,0,0,0,4.37,1.06,20.93,20.93,0,0,1,.24-3.36l-7.15-5.87a14.9,14.9,0,0,0-.3,2.31A6.55,6.55,0,0,0,227.12,177Z"/><path class="cls-22" d="M237.82,146.28c7.56,4.28,7.64,16.37,5.31,23.36a10.47,10.47,0,0,1-18.35,3.08c-3.7-4.68-3.17-9.4-3-17.52S230.25,142,237.82,146.28Z"/><path class="cls-18" d="M236.57,166.7a28.81,28.81,0,0,0,7,1.41,11.42,11.42,0,0,1-4.13,6.7,10.49,10.49,0,0,1-14.67-2.09c-3-3.83-4-6.42-3.09-13.41A133,133,0,0,0,236.57,166.7Z"/><path class="cls-22" d="M222.82,161.68a2.3,2.3,0,0,0-1-1.9,5.59,5.59,0,0,1-1.5-1.61,4.13,4.13,0,0,1-.18-2l.45-5.73c.34-4.42,7.17-1.84,7,1.86-.14,2.52-1.92,2.57-3.4,4.07C222.48,158.14,223.12,159.63,222.82,161.68Z"/><path class="cls-18" d="M222.82,161.68a2.3,2.3,0,0,0-1-1.9,5.59,5.59,0,0,1-1.5-1.61,4.13,4.13,0,0,1-.18-2l.45-5.73c.34-4.42,7.17-1.84,7,1.86-.14,2.52-1.92,2.57-3.4,4.07C222.48,158.14,223.12,159.63,222.82,161.68Z"/><path class="cls-22" d="M220.57,158.45c2.27.51,3.23,3.77,3.17,5.86,0,2.37-1.76,3.92-3.73,2.49a7.37,7.37,0,0,1-2.84-4.56C216.77,160,218.3,157.94,220.57,158.45Z"/><path class="cls-9" d="M232.58,155.88A4.64,4.64,0,0,1,236,155h0a.36.36,0,0,0,.42-.3.41.41,0,0,0-.33-.46,5.27,5.27,0,0,0-4,1.09h0a.37.37,0,0,0,0,.54.34.34,0,0,0,.17.11A.36.36,0,0,0,232.58,155.88Z"/><path class="cls-9" d="M243.77,157.54h0a.37.37,0,0,0,.11-.51,4.06,4.06,0,0,0-3-2h0a.36.36,0,0,0-.36.36.41.41,0,0,0,.37.42,3.21,3.21,0,0,1,2.33,1.64.46.46,0,0,0,.32.2A.39.39,0,0,0,243.77,157.54Z"/><path class="cls-25" d="M236.51,169.44a34.73,34.73,0,0,0-2.29,3.33l-.54-.23c-2.43-1-3.12-2.52-3.15-3.83a5.07,5.07,0,0,1,.39-1.91,4.74,4.74,0,0,1,.53-1c.87,1.5,3.05,2.69,4.24,3.27C236.19,169.32,236.51,169.44,236.51,169.44Z"/><path class="cls-7" d="M235.69,169.07l-.35.48a.73.73,0,0,1-.89.24c-1.8-.85-3-1.75-3.42-2.71a.66.66,0,0,1,0-.58,4.34,4.34,0,0,1,.39-.7C232.32,167.3,234.5,168.49,235.69,169.07Z"/><path class="cls-26" d="M233.68,172.54c-2.43-1-3.12-2.52-3.15-3.83a7.18,7.18,0,0,1,2.41,1.82A3.42,3.42,0,0,1,233.68,172.54Z"/><path class="cls-9" d="M240.84,159.86c.42.07.66.67.54,1.32s-.58,1.12-1,1-.66-.68-.54-1.32S240.42,159.78,240.84,159.86Z"/><path class="cls-9" d="M232.71,157.93c.42.08.66.68.53,1.33s-.58,1.12-1,1-.66-.68-.53-1.33S232.28,157.86,232.71,157.93Z"/><path class="cls-27" d="M236.85,166.43s1.79,1.18,3.26.49c-1.22-2.7-1.05-2.09-1.42-6.7Z"/><path class="cls-9" d="M240.76,251.09s-9.84,3.81-12.09,4.56a29.12,29.12,0,0,1-8.1,1.86,10,10,0,0,1-7.67-2.87c-2.35-2.5-3.08-6.31-3.69-9.87q-2.72-15.72-5.41-31.45c-.89-5.17-3.14-12.93-3-15.89.35-5.44,3.82-11.87,12.64-15.41,3.43-1.37,6.82-.85,9.71,2.61,1.72,2.06,6.75,7,8,15.76,1,7,2.52,16.07,2.43,23.18C233.5,232.9,237.21,244.69,240.76,251.09Z"/><path class="cls-9" d="M201.33,194.56c-1,9.11,4,32.07,5,33.44,4.13,13.33,15.47,6.15,17.12,5.53,2.86-1.05,5.77-3.12,8.49-4.49,5.29-2.62,10.28-4.74,15.2-8l-2.77-5.46c-5.38,1.84-20.62,5.77-23.13,6.38-1.09.29-5.33,2.52-5.29-.42-.6-1-1.43-20-3.25-26.72a5.94,5.94,0,0,0-1.06-2.06l-.17-.21a5.82,5.82,0,0,0-10.14,2Z"/><path class="cls-28" d="M201.33,194.56c-1,9.11,4,32.07,5,33.44,4.13,13.33,15.47,6.15,17.12,5.53,2.86-1.05,5.77-3.12,8.49-4.49,5.29-2.62,10.28-4.74,15.2-8l-2.77-5.46c-5.38,1.84-20.62,5.77-23.13,6.38-1.09.29-5.33,2.52-5.29-.42-.6-1-1.43-20-3.25-26.72a5.94,5.94,0,0,0-1.06-2.06l-.17-.21a5.82,5.82,0,0,0-10.14,2Z"/><path class="cls-22" d="M242.33,217.39l-.58,3.12c1.38,3.6,9.31,2.65,9.31,2.65l0-9.22-7,1.62A2.34,2.34,0,0,0,242.33,217.39Z"/><polygon class="cls-22" points="251.08 213.94 251.04 223.18 258.06 223.35 259.67 215.22 251.08 213.94"/><path class="cls-9" d="M246.92,151.69a2.11,2.11,0,0,1-.91,2.23,3.18,3.18,0,0,1-2,.1l-6.9-1.2c-4-.69-7.92-1.37-11.83-2.31-1.75-.42-4.3-.95-4.41-2.74-.53-8.65,13.6-6.94,16.62-5.89C247.37,145.35,246.77,150.84,246.92,151.69Z"/></g><g id="Character_1" data-name="Character 1"><rect class="cls-9" x="111.73" y="309.39" width="9.37" height="39.11"/><rect class="cls-10" x="111.73" y="309.39" width="9.37" height="39.11"/><rect class="cls-9" x="113.07" y="284.61" width="6.68" height="24.97"/><polygon class="cls-18" points="119.75 289.24 113.07 291.68 113.07 284.61 119.75 284.61 119.75 289.24"/><path class="cls-9" d="M143.32,354.32a3.83,3.83,0,1,0,3.83-3.83,3.83,3.83,0,0,0-3.83,3.83Z"/><path class="cls-9" d="M87.06,354.32a3.84,3.84,0,1,1-3.83-3.83,3.84,3.84,0,0,1,3.83,3.83Z"/><path class="cls-9" d="M120.24,353.09a3.83,3.83,0,1,1-3.83-3.83,3.83,3.83,0,0,1,3.83,3.83Z"/><path class="cls-9" d="M74.88,349.17a1.87,1.87,0,0,0,1.89,1.5l40-.54,37.41.84a1.86,1.86,0,0,0,.41-3.68l-20.43-4a34.66,34.66,0,0,0-6.43-.6h-22a34.63,34.63,0,0,0-6.42.6l-23,3.68A1.86,1.86,0,0,0,74.88,349.17Z"/><path class="cls-9" d="M74.27,284.51v.09h1.31A9.4,9.4,0,0,1,74.27,284.51Z"/><path class="cls-11" d="M127.74,208.11a1.21,1.21,0,0,1,0,.19v68.4H66.44V207.59a11.67,11.67,0,0,1,.1-1.56l-.1,0,.58-9.63a11.44,11.44,0,0,1,3.18-7.26l6.13-6.42,3.16-16a5.33,5.33,0,0,1,5.22-4.3H98.85a5.34,5.34,0,0,1,5,3.6l5.92,17.26,11.29,6.95a11.48,11.48,0,0,1,5.34,8.1l1.47,9.82Z"/><path class="cls-12" d="M127.74,208.11a1.21,1.21,0,0,1,0,.19v68.4H74.66V207.59a11.67,11.67,0,0,1,.1-1.56l-.1,0,.58-9.63a11.44,11.44,0,0,1,3.18-7.26l6.13-6.42,3.16-16a5.33,5.33,0,0,1,5.22-4.3h5.92a5.34,5.34,0,0,1,5,3.6l5.92,17.26,11.29,6.95a11.48,11.48,0,0,1,5.34,8.1l1.47,9.82Z"/><path class="cls-9" d="M133.07,287.92H100.16a123.82,123.82,0,0,0,12.68,4.28v5.32h7.54V292.2A124.38,124.38,0,0,0,133.07,287.92Z"/><path class="cls-11" d="M101.85,273.5a397.5,397.5,0,0,0,58.24-2.06,6.31,6.31,0,0,1,7.19,6.38v.95a8.29,8.29,0,0,1-7.19,8.05,397.5,397.5,0,0,1-58.24,2.05Z"/><path class="cls-13" d="M101.85,273.5a397.5,397.5,0,0,0,58.24-2.06,6.31,6.31,0,0,1,7.19,6.38v.95a8.29,8.29,0,0,1-7.19,8.05,397.5,397.5,0,0,1-58.24,2.05Z"/><path class="cls-11" d="M72.76,286.78c11.12,1,22.09,1.77,33.25,2.22a6.68,6.68,0,0,0,6.85-6.71v-1.71a7,7,0,0,0-6.85-6.95c-11.16-.45-22.13-1.19-33.25-2.23a6,6,0,0,0-6.82,6v1.71A7.86,7.86,0,0,0,72.76,286.78Z"/><polygon class="cls-29" points="167.04 330.93 166.97 347.74 175.36 347.56 177.09 331.71 167.04 330.93"/><path class="cls-11" d="M176.83,347.38a.19.19,0,0,1-.06-.35c.13-.07,3-1.66,4.33-1.27a1,1,0,0,1,.6.46.72.72,0,0,1,0,.83,3.49,3.49,0,0,1-2.4.59A13.83,13.83,0,0,1,176.83,347.38Zm.63-.25c1.51.21,3.55.22,3.94-.31,0-.06.1-.18,0-.42a.52.52,0,0,0-.37-.27,1.57,1.57,0,0,0-.37-.05A9.07,9.07,0,0,0,177.46,347.13Z"/><path class="cls-11" d="M176.73,347.37a.17.17,0,0,1-.08-.17c0-.1.25-2.29,1.29-3.13a1.45,1.45,0,0,1,1.08-.32c.53.06.69.33.7.55.17.92-1.8,2.66-2.78,3.08h-.08A.15.15,0,0,1,176.73,347.37Zm2.15-3.25a1,1,0,0,0-.66.23,4.5,4.5,0,0,0-1.11,2.48c1-.59,2.31-1.95,2.26-2.5,0-.05,0-.19-.38-.22Z"/><path class="cls-9" d="M176,346.24l-8.86-.1a.72.72,0,0,0-.71.55l-1.68,7.19a1.19,1.19,0,0,0,.88,1.43l.24,0c3.2,0,6-.16,10-.11,4.69,0,3.49.6,9,.74,3.32.08,4-3.69,2.57-3.89-6.45-.88-7.09-2.84-9.56-5.18A2.89,2.89,0,0,0,176,346.24Z"/><polygon class="cls-12" points="167.74 340.69 176.64 340.1 177.18 329.19 167.09 329.01 167.74 340.69"/><path class="cls-16" d="M164.47,267c0,.15.07.3.1.45a43.57,43.57,0,0,0-.95-6.15c-2.86-11.13-32.66-13-44.85-13.28l-14.65,1.6s-1.37,11.74,2.12,19.17S164.47,267,164.47,267Z"/><polygon class="cls-29" points="147.13 333.95 147.89 351.01 156.15 350.71 157.13 332.64 147.13 333.95"/><path class="cls-11" d="M157.46,348.4a.2.2,0,0,1-.17-.15.2.2,0,0,1,.08-.21c.11-.08,2.8-1.93,4.18-1.68a1,1,0,0,1,.64.4.73.73,0,0,1,.09.83,3.45,3.45,0,0,1-2.33.82A14.79,14.79,0,0,1,157.46,348.4Zm.6-.31c1.52.05,3.56-.14,3.89-.69.05-.07.09-.19-.08-.42a.56.56,0,0,0-.4-.24,1.51,1.51,0,0,0-.37,0A8.59,8.59,0,0,0,158.06,348.09Z"/><path class="cls-11" d="M157.36,348.39a.16.16,0,0,1-.1-.16c0-.11,0-2.31,1-3.24a1.41,1.41,0,0,1,1-.42c.53,0,.72.26.76.48.25.89-1.54,2.81-2.47,3.33a.11.11,0,0,1-.08,0A.15.15,0,0,1,157.36,348.39Zm1.83-3.44a1,1,0,0,0-.65.29,4.58,4.58,0,0,0-.86,2.57c.95-.67,2.11-2.16,2-2.7,0-.05-.05-.18-.4-.18l-.1,0Z"/><path class="cls-9" d="M156.54,347.33l-8.83.76a.72.72,0,0,0-.65.61l-1,7.32a1.19,1.19,0,0,0,1,1.34,1,1,0,0,0,.25,0c3.18-.33,6-.74,10-1.08,4.67-.4,3.53.27,9-.13,3.31-.24,3.6-4.05,2.18-4.12-6.5-.26-7.34-2.14-10-4.23A2.93,2.93,0,0,0,156.54,347.33Z"/><polygon class="cls-12" points="156.55 342.9 157.02 334.29 147.18 334.51 147.57 343.52 156.55 342.9"/><path class="cls-11" d="M127.26,247.06s52-4,55.59,10-4.38,80.16-4.38,80.16l-12.86,1.08s-1.69-39-1.92-71.29c0,0-54.74,9.22-58.23,1.79s-2.12-19.16-2.12-19.16Z"/><path class="cls-9" d="M127.26,247.06s52-4,55.59,10-4.38,80.16-4.38,80.16l-12.86,1.08s-1.69-39-1.92-71.29c0,0-54.74,9.22-58.23,1.79s-2.12-19.16-2.12-19.16Z"/><path class="cls-12" d="M127.26,247.06s52-4,55.59,10-4.38,80.16-4.38,80.16l-12.86,1.08s-1.69-39-1.92-71.29c0,0-54.74,9.22-58.23,1.79s-2.12-19.16-2.12-19.16Z"/><path class="cls-9" d="M114.13,249.09s52.41-2,53.13,12.44c.56,11.31-9,78.47-9,78.47l-12,.93s-2.2-40.36-.7-67.91c0,0-45.23,5.19-53.2-1.18C84.8,265.77,90.71,249,90.71,249Z"/><g id="_Group_" data-name="&lt;Group&gt;"><path class="cls-29" d="M163.19,238.36v-.2a5.59,5.59,0,0,1,4.61-4.56l5.58-.91s9.29,4.59,7.17,5.6H170.29Z"/><path class="cls-11" d="M170.73,233.12l-7.54,5.24L141.26,224l-9.6-9.63s-18.18-27.88-9.22-29.52c4.09-.75,18.4,17.66,27.54,32.73l0,0C160.9,226.41,170.73,233.12,170.73,233.12Z"/><g class="cls-21"><path d="M170.73,233.12l-7.54,5.24L141.26,224l-9.6-9.63s-18.18-27.88-9.22-29.52c4.09-.75,18.4,17.66,27.54,32.73l0,0C160.9,226.41,170.73,233.12,170.73,233.12Z"/></g><path class="cls-11" d="M131.66,248.07h0a74.35,74.35,0,0,1-23.49,2.35l-17-1c-.4-3.5-3-11.18-6.62-31-4.48-31.63.83-33.27,3.55-33.75h.09c2.52-.43,5.68-.88,8.79-1.11a165.66,165.66,0,0,1,17.82-.54,48.31,48.31,0,0,1,5.9.76,7.44,7.44,0,0,1,5.93,4.73C129.41,196.54,130.37,215.6,131.66,248.07Z"/><path class="cls-16" d="M131.66,248.07h0a74.35,74.35,0,0,1-23.49,2.35l-17-1c-.4-3.5-3-11.18-6.62-31-4.48-31.63.83-33.27,3.55-33.75h.09c2.52-.43,5.68-.88,8.79-1.11a165.66,165.66,0,0,1,17.82-.54,48.31,48.31,0,0,1,5.9.76,7.44,7.44,0,0,1,5.93,4.73C129.41,196.54,130.37,215.6,131.66,248.07Z"/><path class="cls-29" d="M108.56,188.06c-8.82.75-12.19-4.45-12.19-4.45,3.76-4,1.95-14.4.46-20.1l4.88,3.81,6.66,5.19a23.39,23.39,0,0,0-.33,2.65,10.13,10.13,0,0,0,0,1.91v.13c.3,2.66,1.78,4.88,6,5.73C114,182.93,116.07,187.39,108.56,188.06Z"/><path class="cls-18" d="M108.37,172.51a23.39,23.39,0,0,0-.33,2.65,10.13,10.13,0,0,0,0,1.91v.13c-2.43-.43-5.7-2.89-6.14-5.36a11.89,11.89,0,0,1-.17-2.46Z"/><path class="cls-7" d="M94.54,183l2.69-1.09A26.87,26.87,0,0,0,108,188.07a10.48,10.48,0,0,0-3.68,4.81C94.79,190,94.54,183,94.54,183Z"/><path class="cls-7" d="M114,182.44l-2.55-.46s-.87,5.31-3.45,6.14c4.61,1.62,5.43,3.85,5.43,3.85C119.89,189.65,114,182.44,114,182.44Z"/><path class="cls-9" d="M112.34,146.65c1.33,1.56,1.73,5.35,3,6.91a29,29,0,0,0,1.75-4.85,2.39,2.39,0,0,0-.75-2.29C115.45,145.71,113.44,146.25,112.34,146.65Z"/><path class="cls-29" d="M95.58,152.2A10.27,10.27,0,0,1,108,144.62c8.1,1.74,11.53,12.85,11.32,20a10.15,10.15,0,0,1-16,8.16c-4.7-3.23-5.53-7.73-7.58-15.26A10.21,10.21,0,0,1,95.58,152.2Z"/><path class="cls-9" d="M115.48,165.17a37.29,37.29,0,0,0-7.93,0,4.55,4.55,0,0,0,5.07,3.17,2.92,2.92,0,0,0,2.86-2.9Z"/><path class="cls-30" d="M111.19,166.89a5,5,0,0,1,3.28.73,3.06,3.06,0,0,1-1.84.71,4.93,4.93,0,0,1-3.28-.73A3,3,0,0,1,111.19,166.89Z"/><path class="cls-7" d="M115.21,165.14a1.34,1.34,0,0,1-.88,1,27.89,27.89,0,0,1-5.17-.15,1.59,1.59,0,0,1-1.34-.87A43.42,43.42,0,0,1,115.21,165.14Z"/><path class="cls-18" d="M113.85,162.94a3.6,3.6,0,0,0,2.83-1.06,23.06,23.06,0,0,1-4.09-4.78Z"/><path class="cls-9" d="M110.9,147.76a15.66,15.66,0,0,0-1.05-1.71,3,3,0,0,0-3.08-.73,4.93,4.93,0,0,0-2.54,2.09,16,16,0,0,0-1.63,3.46,3.38,3.38,0,0,1-1,2.83l0,0a3.3,3.3,0,0,1-2.85.74c-.38,1.15,2.08,4.46,2.55,4.89a4,4,0,0,0,1.55.89,3.24,3.24,0,0,1-1.69.32l-.54-.06c-2-.35-9.71-5.17-5.35-13.18A11.47,11.47,0,0,1,111,143.25C116.29,146.67,111.29,148.32,110.9,147.76Z"/><path class="cls-9" d="M98.62,161.91a83.86,83.86,0,0,1-.17,10.63c-2.7-2.16-5.3-7-6.54-10.27a14.14,14.14,0,0,1,.39-11.35,11.19,11.19,0,0,1,2.93-3.59,10.18,10.18,0,0,1,6.45-2.39c0,3,0,5.89-.12,8.79a3.3,3.3,0,0,1-2.85.74c-.38,1.15.66,3.37,1.23,4.44a5.39,5.39,0,0,0,1.13,1.49c0,.4-.08.81-.13,1.21-.12.92-.24,1.85-.39,2.77Z"/><path class="cls-29" d="M95.78,159.33c1.93-.32,4,2.06,4.87,3.81.93,2,.31,3.81-1.74,3.37a7.34,7.34,0,0,1-4-2.81C93.61,162,93.86,159.65,95.78,159.33Z"/><path class="cls-9" d="M108.12,157c.41-.07.86.44,1,1s-.11,1.12-.52,1.2-.79-.39-1-1S107.71,157.1,108.12,157Z"/><path class="cls-9" d="M115.06,155.45c.41-.07.84.37,1,1s-.09,1.19-.5,1.26-.85-.38-1-1S114.65,155.52,115.06,155.45Z"/><path class="cls-9" d="M113.51,153.05a.38.38,0,0,0,.34.08,3.18,3.18,0,0,1,2.73.35.37.37,0,0,0,.51,0v0a.39.39,0,0,0-.06-.52h0a3.87,3.87,0,0,0-3.4-.47.39.39,0,0,0-.25.47A.48.48,0,0,0,113.51,153.05Z"/><path class="cls-9" d="M106,156.12a.37.37,0,0,0,.32-.14,3.13,3.13,0,0,1,2.36-1.41.35.35,0,0,0,.37-.35v0a.38.38,0,0,0-.37-.37h0a3.87,3.87,0,0,0-3,1.72.38.38,0,0,0,.1.52A.41.41,0,0,0,106,156.12Z"/><path class="cls-11" d="M92.52,204.84l1-2.07c1.3-2.73,6.71-13.6,9.35-14.76l1-.61,3.68,5.6c-.63.54-7.56,18.44-9.22,22.2a13.61,13.61,0,0,0-.65,1.75c-1.13,4.11-8.11,10.4-12.78-1.41-1.16-2.49-2.23-4.93-3.19-7.41-.49-1.28-.93-2.49-1.38-3.77-.08-.23-.24-.69-.46-1.3-2.15-6.17-2.52-13.24,3.37-16.88l4-1.33Z"/><g class="cls-21"><path d="M92.52,204.84l1-2.07c1.3-2.73,6.71-13.6,9.35-14.76l1-.61,3.68,5.6c-.63.54-7.56,18.44-9.22,22.2a13.61,13.61,0,0,0-.65,1.75c-1.13,4.11-8.11,10.4-12.78-1.41-1.16-2.49-2.23-4.93-3.19-7.41-.49-1.28-.93-2.49-1.38-3.77-.08-.23-.24-.69-.46-1.3-2.15-6.17-2.52-13.24,3.37-16.88l4-1.33Z"/></g><path class="cls-11" d="M113.43,183.37a3.7,3.7,0,0,0,.19.78,6,6,0,0,0,.45,1.08,5.67,5.67,0,0,0,1,1.21s.25.21.26.23a5.83,5.83,0,0,0,.74.57,4.7,4.7,0,0,0,1.64.75.39.39,0,0,1,.26.21c.07.14.16.27.24.41s.13.24.18.36a.94.94,0,0,0,.36.43,3.19,3.19,0,0,0,1,.36,10.34,10.34,0,0,0,2.83.21,14.33,14.33,0,0,0,1.47-.12,11.92,11.92,0,0,0,1.55-.34,4.43,4.43,0,0,0,1.16-.5.86.86,0,0,0,.35-.38,2.77,2.77,0,0,1,.1-.26l.31-.75c.15-.38.28-.78.4-1.17s.25-.78.33-1.17.17-.8.23-1.21c.1-.69.18-1.38.25-2.07,0-.33,0-.7.05-1a3,3,0,0,0-.09-.79,1.17,1.17,0,0,0-.28-.48,3.69,3.69,0,0,0-1.29-.84,6.81,6.81,0,0,0-1.41-.37l-.6-.11a14.82,14.82,0,0,0-6.35.49,8.75,8.75,0,0,0-1.21.44,5.08,5.08,0,0,0-1,.62,2.26,2.26,0,0,0-.54.65,1.12,1.12,0,0,0-.1.31c0,.13,0,.14-.15.11a1.9,1.9,0,0,0-1.83.58,2,2,0,0,0-.39.73A2.92,2.92,0,0,0,113.43,183.37Zm5.24-1.63a5.4,5.4,0,0,1-1.25-.35.72.72,0,0,1-.27-.15,1.67,1.67,0,0,1,.53-.63,3.14,3.14,0,0,1,.46-.28A6.2,6.2,0,0,1,119,180a13.71,13.71,0,0,1,1.44-.34,13.07,13.07,0,0,1,1.4-.18c.44,0,.79,0,1.23,0a14.91,14.91,0,0,1,1.65.11,7.66,7.66,0,0,1,1.64.38,2.89,2.89,0,0,1,1.19.74s0,0,0,0l-.12.1a3.79,3.79,0,0,1-.34.2,6.27,6.27,0,0,1-1.41.52l-.33.09-.19,0c-.37.08-.73.14-1.1.19a9.88,9.88,0,0,1-1.08.11l-.84.06h-.24c-.37,0-.74,0-1.11,0s-.66,0-1,0A10.45,10.45,0,0,1,118.67,181.74ZM115.14,183a.8.8,0,0,1,.64-.64l.23,0c.1.53.23,1,.35,1.56.15.67.36,1.33.57,2a3.48,3.48,0,0,0,.42.91l-.39-.29a5.6,5.6,0,0,1-1-1.08,5.33,5.33,0,0,1-.74-1.29A1.93,1.93,0,0,1,115.14,183Z"/><path class="cls-31" d="M113.43,183.37a3.7,3.7,0,0,0,.19.78,6,6,0,0,0,.45,1.08,5.67,5.67,0,0,0,1,1.21s.25.21.26.23a5.83,5.83,0,0,0,.74.57,4.7,4.7,0,0,0,1.64.75.39.39,0,0,1,.26.21c.07.14.16.27.24.41s.13.24.18.36a.94.94,0,0,0,.36.43,3.19,3.19,0,0,0,1,.36,10.34,10.34,0,0,0,2.83.21,14.33,14.33,0,0,0,1.47-.12,11.92,11.92,0,0,0,1.55-.34,4.43,4.43,0,0,0,1.16-.5.86.86,0,0,0,.35-.38,2.77,2.77,0,0,1,.1-.26l.31-.75c.15-.38.28-.78.4-1.17s.25-.78.33-1.17.17-.8.23-1.21c.1-.69.18-1.38.25-2.07,0-.33,0-.7.05-1a3,3,0,0,0-.09-.79,1.17,1.17,0,0,0-.28-.48,3.69,3.69,0,0,0-1.29-.84,6.81,6.81,0,0,0-1.41-.37l-.6-.11a14.82,14.82,0,0,0-6.35.49,8.75,8.75,0,0,0-1.21.44,5.08,5.08,0,0,0-1,.62,2.26,2.26,0,0,0-.54.65,1.12,1.12,0,0,0-.1.31c0,.13,0,.14-.15.11a1.9,1.9,0,0,0-1.83.58,2,2,0,0,0-.39.73A2.92,2.92,0,0,0,113.43,183.37Zm5.24-1.63a5.4,5.4,0,0,1-1.25-.35.72.72,0,0,1-.27-.15,1.67,1.67,0,0,1,.53-.63,3.14,3.14,0,0,1,.46-.28A6.2,6.2,0,0,1,119,180a13.71,13.71,0,0,1,1.44-.34,13.07,13.07,0,0,1,1.4-.18c.44,0,.79,0,1.23,0a14.91,14.91,0,0,1,1.65.11,7.66,7.66,0,0,1,1.64.38,2.89,2.89,0,0,1,1.19.74s0,0,0,0l-.12.1a3.79,3.79,0,0,1-.34.2,6.27,6.27,0,0,1-1.41.52l-.33.09-.19,0c-.37.08-.73.14-1.1.19a9.88,9.88,0,0,1-1.08.11l-.84.06h-.24c-.37,0-.74,0-1.11,0s-.66,0-1,0A10.45,10.45,0,0,1,118.67,181.74ZM115.14,183a.8.8,0,0,1,.64-.64l.23,0c.1.53.23,1,.35,1.56.15.67.36,1.33.57,2a3.48,3.48,0,0,0,.42.91l-.39-.29a5.6,5.6,0,0,1-1-1.08,5.33,5.33,0,0,1-.74-1.29A1.93,1.93,0,0,1,115.14,183Z"/><path class="cls-32" d="M117.14,181.24a1.67,1.67,0,0,1,.53-.63,5.35,5.35,0,0,1,.47-.29A6.77,6.77,0,0,1,119,180a13.71,13.71,0,0,1,1.44-.34c.47-.08.92-.13,1.4-.17a10.11,10.11,0,0,1,1.23,0,13.09,13.09,0,0,1,1.66.1,7.71,7.71,0,0,1,1.63.38,2.79,2.79,0,0,1,1.19.74l0,0-.12.1-.34.2a6.14,6.14,0,0,1-1.41.52l-.34.09-.19,0c-.36.08-.73.14-1.1.19s-.72.09-1.08.11-.56.05-.84.06h-1.35c-.33,0-.66,0-1-.05s-.76-.11-1.13-.17a5.71,5.71,0,0,1-1.24-.36A.69.69,0,0,1,117.14,181.24Z"/><path class="cls-33" d="M117.16,181.24a1.56,1.56,0,0,1,.53-.63,4.43,4.43,0,0,1,.46-.29A7.53,7.53,0,0,1,119,180a11.88,11.88,0,0,1,1.43-.34c.48-.08.93-.14,1.41-.18s.79,0,1.23,0a13.09,13.09,0,0,1,1.66.1,7.71,7.71,0,0,1,1.63.38,2.85,2.85,0,0,1,1.19.74l0,0a.4.4,0,0,1-.12.1l-.33.2a6.05,6.05,0,0,1-1.42.52l-.34.09-.18,0c-.37.08-.73.14-1.1.19s-.72.09-1.08.11-.56.05-.84.06h-1.35c-.33,0-.66,0-1-.05a10.63,10.63,0,0,1-1.13-.18,5.4,5.4,0,0,1-1.25-.35A.72.72,0,0,1,117.16,181.24Z"/><path class="cls-33" d="M117.16,181.24a1.56,1.56,0,0,1,.53-.63,4.43,4.43,0,0,1,.46-.29A7.53,7.53,0,0,1,119,180a11.88,11.88,0,0,1,1.43-.34c.48-.08.93-.14,1.41-.18s.79,0,1.23,0a13.09,13.09,0,0,1,1.66.1,7.71,7.71,0,0,1,1.63.38,2.85,2.85,0,0,1,1.19.74l0,0a.4.4,0,0,1-.12.1l-.33.2a6.05,6.05,0,0,1-1.42.52l-.34.09-.18,0c-.37.08-.73.14-1.1.19s-.72.09-1.08.11-.56.05-.84.06h-1.35c-.33,0-.66,0-1-.05a10.63,10.63,0,0,1-1.13-.18,5.4,5.4,0,0,1-1.25-.35A.72.72,0,0,1,117.16,181.24Z"/><path class="cls-9" d="M117.15,181.24a.72.72,0,0,0,.27.15,5.4,5.4,0,0,0,1.25.35,10.45,10.45,0,0,0,1.12.18c.33,0,.66,0,1,0s.74,0,1.11,0h.24l.84-.06a9.88,9.88,0,0,0,1.08-.11c.37-.05.73-.11,1.1-.19l.19,0,.33-.09a6.27,6.27,0,0,0,1.41-.52,3.79,3.79,0,0,0,.34-.2l.12-.1s0,0,0,0a2.89,2.89,0,0,0-1.19-.74,7.66,7.66,0,0,0-1.64-.38,14.91,14.91,0,0,0-1.65-.11c-.44,0-.79,0-1.23,0a13.07,13.07,0,0,0-1.4.18A13.71,13.71,0,0,0,119,180a6.2,6.2,0,0,0-.89.37,3.14,3.14,0,0,0-.46.28A1.67,1.67,0,0,0,117.15,181.24Z"/><path class="cls-34" d="M117.11,180.31a3.19,3.19,0,0,1,.32-.32,8,8,0,0,1,3.75-1.31,10.59,10.59,0,0,1,2.25-.12,8.59,8.59,0,0,1,3.75.87,2.53,2.53,0,0,1,.36.29.66.66,0,0,1,.07.89l-.14.12h0c-1.15-1.12-4.18-1.17-5.17-1.15s-4,.48-5,1.74h0l-.14-.1A.66.66,0,0,1,117.11,180.31Z"/><path class="cls-29" d="M115.59,184.28l.66,3.2-2,2.43A14.07,14.07,0,0,1,107.5,193a3.28,3.28,0,0,1-3.32-1.79l-.32-.61a3.86,3.86,0,0,1-.32-.88c-.39-1.65.17-2.59,1.56-3.56l4.83-4.24a57.79,57.79,0,0,1,5.87-.76C116.4,181.16,115.71,183.69,115.59,184.28Z"/></g></g><g id="Speech_Bubble_3" data-name="Speech Bubble 3"><g id="freepik--speech-bubbles--inject-120"><path class="cls-11" d="M358.57,137.35l3.51,33.05a3.33,3.33,0,0,1,0,.63,3.79,3.79,0,0,1-3.93,3.63l-7.53,0c1.63,4.69,8.51,11,8.51,11a32.44,32.44,0,0,1-19-11.07l-53.91-.32a5,5,0,0,1-4.82-4.31L278,136.86a3.18,3.18,0,0,1,0-.62,3.78,3.78,0,0,1,3.93-3.63l71.9.42A5,5,0,0,1,358.57,137.35Z"/><path class="cls-11" d="M360.68,186.34l-1.59-.22A33.33,33.33,0,0,1,340,175.05l-53.68-.32A5.45,5.45,0,0,1,281,170l-3.53-33.07a4.06,4.06,0,0,1,0-.7,4.29,4.29,0,0,1,4.45-4.11l71.88.42a5.46,5.46,0,0,1,5.3,4.75v0l3.52,33a4.06,4.06,0,0,1,0,.7,4.28,4.28,0,0,1-4.45,4.11l-6.77,0c1.94,4.44,8.05,10.07,8.11,10.13Zm-79-53.24a3.29,3.29,0,0,0-3.29,3.16,2.45,2.45,0,0,0,0,.54L282,169.87a4.45,4.45,0,0,0,4.33,3.86l54.14.33.15.18a32.26,32.26,0,0,0,17,10.54c-2.09-2.08-6.16-6.44-7.39-10l-.23-.66,8.23,0a3.3,3.3,0,0,0,3.43-3.15,3.25,3.25,0,0,0,0-.54l-3.52-33.06a4.47,4.47,0,0,0-4.33-3.88l-71.88-.42Z"/></g><line class="cls-7" x1="311.86" y1="141.93" x2="351.9" y2="141.93"/><rect class="cls-7" x="311.86" y="141.43" width="40.04" height="1"/><line class="cls-7" x1="291.49" y1="141.93" x2="305.95" y2="141.93"/><rect class="cls-7" x="291.48" y="141.43" width="14.47" height="1"/><line class="cls-7" x1="336.04" y1="150.58" x2="353.79" y2="150.58"/><rect class="cls-7" x="336.04" y="150.08" width="17.76" height="1"/><line class="cls-7" x1="306.46" y1="150.58" x2="329.7" y2="150.58"/><rect class="cls-7" x="306.46" y="150.08" width="23.25" height="1"/><line class="cls-7" x1="286.87" y1="150.58" x2="301.02" y2="150.58"/><rect class="cls-7" x="286.87" y="150.08" width="14.15" height="1"/><line class="cls-7" x1="327.39" y1="159.23" x2="354.79" y2="159.23"/><rect class="cls-7" x="327.39" y="158.73" width="27.4" height="1"/><line class="cls-7" x1="309.66" y1="159.23" x2="322.14" y2="159.23"/><rect class="cls-7" x="309.66" y="158.73" width="12.48" height="1"/><line class="cls-7" x1="298.72" y1="159.23" x2="309.66" y2="159.23"/><rect class="cls-7" x="298.72" y="158.73" width="10.95" height="1"/><line class="cls-7" x1="287.87" y1="159.23" x2="295.76" y2="159.23"/><rect class="cls-7" x="287.87" y="158.73" width="7.89" height="1"/><line class="cls-7" x1="288.67" y1="167.88" x2="300.39" y2="167.88"/><rect class="cls-7" x="288.67" y="167.38" width="11.72" height="1"/></g><g id="Speech_Bubble_2" data-name="Speech Bubble 2"><g id="freepik--speech-bubbles--inject-120-2" data-name="freepik--speech-bubbles--inject-120"><path class="cls-7" d="M260.8,95.5l71.89-.43a3.78,3.78,0,0,1,3.93,3.63,3.18,3.18,0,0,1,0,.62l-3.52,33.06a5,5,0,0,1-4.82,4.31l-53.91.33a32.46,32.46,0,0,1-18.95,11.06s6.89-6.31,8.51-11l-7.53,0a3.78,3.78,0,0,1-3.93-3.63,3.18,3.18,0,0,1,0-.62L256,99.81A5,5,0,0,1,260.8,95.5Z"/><path class="cls-11" d="M253.87,148.8l1.18-1.09c.07-.05,6.18-5.69,8.11-10.12l-6.78,0a4.29,4.29,0,0,1-4.44-4.11,4.22,4.22,0,0,1,0-.71l3.52-33A5.46,5.46,0,0,1,260.78,95h0l71.9-.43a4.31,4.31,0,0,1,4.43,4.11,4.22,4.22,0,0,1,0,.71l-3.52,33.05a5.46,5.46,0,0,1-5.3,4.75l-53.69.33a33.36,33.36,0,0,1-19.12,11.06Zm10.73-12.22-.23.67c-1.23,3.55-5.29,7.91-7.38,10a32.18,32.18,0,0,0,17-10.54l.15-.18,54.15-.33a4.46,4.46,0,0,0,4.33-3.87l3.52-33a3.41,3.41,0,0,0,0-.55,3.31,3.31,0,0,0-3.41-3.15L260.8,96a4.46,4.46,0,0,0-4.32,3.88l-3.51,33a3.44,3.44,0,0,0,0,.55,3.3,3.3,0,0,0,3.41,3.15Z"/></g><line class="cls-7" x1="303.4" y1="102.73" x2="270.98" y2="102.73"/><rect class="cls-11" x="270.98" y="102.23" width="32.42" height="1"/><line class="cls-7" x1="330.53" y1="102.73" x2="310.97" y2="102.73"/><rect class="cls-11" x="310.97" y="102.23" width="19.57" height="1"/><line class="cls-7" x1="279.23" y1="111.38" x2="261.47" y2="111.38"/><rect class="cls-11" x="261.47" y="110.88" width="17.76" height="1"/><line class="cls-7" x1="328.39" y1="111.38" x2="285.56" y2="111.38"/><rect class="cls-11" x="285.56" y="110.88" width="42.84" height="1"/><line class="cls-7" x1="305.6" y1="120.02" x2="260.47" y2="120.02"/><rect class="cls-11" x="260.47" y="119.52" width="45.13" height="1"/><line class="cls-7" x1="327.39" y1="120.02" x2="312.65" y2="120.02"/><rect class="cls-11" x="312.65" y="119.52" width="14.75" height="1"/><line class="cls-7" x1="271.46" y1="128.67" x2="259.75" y2="128.67"/><rect class="cls-11" x="259.75" y="128.17" width="11.72" height="1"/></g><g id="Table"><rect class="cls-11" x="267.03" y="223.39" width="11.2" height="14.98" rx="2.11" transform="matrix(-1, 0.01, -0.01, -1, 547.26, 459.37)"/><path class="cls-11" d="M263.71,232.81l0-2.81a4.19,4.19,0,0,1,4.15-4.22h.94l.1,11.18h-.94A4.19,4.19,0,0,1,263.71,232.81Zm1.85-2.83,0,2.82a2.31,2.31,0,0,0,1.38,2.09l-.06-7A2.33,2.33,0,0,0,265.56,230Z"/><g class="cls-35"><rect class="cls-7" x="267.03" y="223.39" width="11.2" height="14.98" rx="2.11" transform="matrix(-1, 0.01, -0.01, -1, 547.26, 459.37)"/><path class="cls-7" d="M263.71,232.81l0-2.81a4.19,4.19,0,0,1,4.15-4.22h.94l.1,11.18h-.94A4.19,4.19,0,0,1,263.71,232.81Zm1.85-2.83,0,2.82a2.31,2.31,0,0,0,1.38,2.09l-.06-7A2.33,2.33,0,0,0,265.56,230Z"/></g><path class="cls-11" d="M353.6,238.15h-21a.82.82,0,0,1-.82-.82h0a.82.82,0,0,1,.82-.82h21a.82.82,0,0,1,.82.82h0A.82.82,0,0,1,353.6,238.15Z"/><path class="cls-16" d="M353.6,238.15h-21a.82.82,0,0,1-.82-.82h0a.82.82,0,0,1,.82-.82h21a.82.82,0,0,1,.82.82h0A.82.82,0,0,1,353.6,238.15Z"/><path class="cls-9" d="M332.46,238.15l-43.69.07a.82.82,0,0,1-.81-.83h0a.82.82,0,0,1,.82-.81l43.69-.08a.82.82,0,0,1,.81.83h0A.82.82,0,0,1,332.46,238.15Z"/><path class="cls-11" d="M331.28,236.5l-40.25.18a2.91,2.91,0,0,1-2.82-2.64l-1.65-20.64a2.36,2.36,0,0,1,2.4-2.59l40.25-.19a2.91,2.91,0,0,1,2.82,2.64l1.65,20.64A2.36,2.36,0,0,1,331.28,236.5Z"/><path class="cls-16" d="M331.28,236.5l-40.25.18a2.91,2.91,0,0,1-2.82-2.64l-1.65-20.64a2.36,2.36,0,0,1,2.4-2.59l40.25-.19a2.91,2.91,0,0,1,2.82,2.64l1.65,20.64A2.36,2.36,0,0,1,331.28,236.5Z"/><path class="cls-11" d="M330.08,236.4l-40.25.18A2.9,2.9,0,0,1,287,234l-1.65-20.64a2.36,2.36,0,0,1,2.4-2.6l40.25-.18a2.9,2.9,0,0,1,2.82,2.63l1.66,20.64A2.37,2.37,0,0,1,330.08,236.4Z"/><path class="cls-36" d="M330.08,236.4l-40.25.18A2.9,2.9,0,0,1,287,234l-1.65-20.64a2.36,2.36,0,0,1,2.4-2.6l40.25-.18a2.9,2.9,0,0,1,2.82,2.63l1.66,20.64A2.37,2.37,0,0,1,330.08,236.4Z"/><path class="cls-7" d="M303.14,224.24a4.59,4.59,0,0,0,4.39,4.21,3.71,3.71,0,0,0,3.84-4A4.58,4.58,0,0,0,307,220.2,3.72,3.72,0,0,0,303.14,224.24Z"/><path class="cls-11" d="M367.53,227.4l.41.74a2.73,2.73,0,0,1,.35,1.33v4.2c0,2.56,2.8,4.65,6.25,4.65h.91a6.61,6.61,0,0,0,5.66-2.7,2,2,0,0,0,.79-.35l2.43-1.81a1.26,1.26,0,0,0,.57-1v-2.26c0-.78-.87-1.42-1.92-1.42H381.7c-.07-.15.07-.39.26-.63l.05,0a6,6,0,0,1,.66-.64l.05,0s-.11-.53-1.39-.26c-.37.08-.72.17-1,.26l-.14,0h0l-.1,0a610.48,610.48,0,0,0-6.4-.08c.08,0-.07,0,0,0a5.35,5.35,0,0,0-3.24.08H370c-.32-.09-.68-.18-1.05-.26C367.64,226.87,367.53,227.4,367.53,227.4Zm14.1,7.22c0-.05.05-3.37.06-4.78a.77.77,0,0,1,.85-.62h.53c.66,0,1.2.41,1.2.9v2.06c0,.69,0,.66-.68,1.15Z"/><path class="cls-31" d="M383,228.76H381.7c-.07-.15.07-.39.26-.63l.05,0a6.24,6.24,0,0,1,.67-.65l0,0s-.11-.54-1.39-.27l-1,.27c-.05,0-.09,0-.14,0h0l-.1,0a5.27,5.27,0,0,0-3.33-.06,84.06,84.06,0,0,0-6.31.06H370l-1.05-.27c-1.28-.27-1.39.27-1.39.27l.41.74a2.73,2.73,0,0,1,.35,1.33v4.2c0,2.56,2.8,4.65,6.25,4.65h.91a6.61,6.61,0,0,0,5.66-2.7,2,2,0,0,0,.79-.35l2.43-1.81a1.32,1.32,0,0,0,.57-1v-2.27C384.9,229.4,384,228.76,383,228.76Zm1.29,3.42c0,.69,0,.66-.68,1.15l-2,1.29c0-.06.05-3.36.06-4.78a.77.77,0,0,1,.85-.62h.53c.67,0,1.2.41,1.2.9Z"/><polygon class="cls-11" points="90.84 244.73 78.7 363.95 82.58 363.95 102.91 244.73 90.84 244.73"/><polygon class="cls-11" points="370.05 244.73 391.66 363.95 395.55 363.95 382.12 244.73 370.05 244.73"/><polygon class="cls-11" points="103.3 364.06 107.18 364.06 129.21 244.73 117.15 244.73 103.3 364.06"/><polygon class="cls-11" points="406.87 244.73 394.81 244.73 418.6 364.06 422.48 364.06 406.87 244.73"/><path class="cls-11" d="M431.44,242.14a3.8,3.8,0,0,0-3.91-3.68H70.18a3.69,3.69,0,1,0,0,7.37H427.53A3.8,3.8,0,0,0,431.44,242.14Z"/><g class="cls-37"><polygon class="cls-7" points="90.84 244.73 78.7 363.95 82.58 363.95 102.91 244.73 90.84 244.73"/><polygon class="cls-7" points="370.05 244.73 391.66 363.95 395.55 363.95 382.12 244.73 370.05 244.73"/><polygon class="cls-7" points="103.3 364.06 107.18 364.06 129.21 244.73 117.15 244.73 103.3 364.06"/><polygon class="cls-7" points="406.87 244.73 394.81 244.73 418.6 364.06 422.48 364.06 406.87 244.73"/><path class="cls-7" d="M431.44,242.14a3.8,3.8,0,0,0-3.91-3.68H70.18a3.69,3.69,0,1,0,0,7.37H427.53A3.8,3.8,0,0,0,431.44,242.14Z"/></g></g></g></svg>