<svg xmlns="http://www.w3.org/2000/svg" viewBox="0 0 365.5 269.5"><defs><style>.cls-1{fill:#263238;}.cls-16,.cls-2,.cls-21,.cls-24,.cls-25,.cls-29{fill:#fff;}.cls-10,.cls-2,.cls-5,.cls-7{opacity:0.2;}.cls-3{fill:#407bff;}.cls-15,.cls-21,.cls-4{opacity:0.1;}.cls-6{fill:#ffc3bd;}.cls-8{opacity:0.4;}.cls-9{fill:#e8bfbf;}.cls-10,.cls-17{isolation:isolate;}.cls-11,.cls-30{opacity:0.6;}.cls-12{fill:#ed893e;}.cls-13,.cls-17,.cls-27{opacity:0.3;}.cls-14{fill:#ffb573;}.cls-18{fill:#2e353a;}.cls-19{fill:#de5753;}.cls-20{fill:#ed847e;}.cls-22{fill:#b55b52;}.cls-23{fill:#e83f3f;}.cls-24,.cls-28{opacity:0.7;}.cls-25{opacity:0.9;}.cls-26{fill:none;}.cls-29{opacity:0.5;}</style></defs><g id="Layer_2" data-name="Layer 2"><g id="Character_3" data-name="Character 3"><path class="cls-1" d="M288.62,201.37h32.92a121.76,121.76,0,0,1-12.69,4.28V211h-7.54v-5.33A121.76,121.76,0,0,1,288.62,201.37Z"/><path class="cls-1" d="M335.91,187.69H324.66a72.63,72.63,0,0,0,0-23.54h11.25A72.63,72.63,0,0,1,335.91,187.69Z"/><rect class="cls-1" x="300.19" y="210.98" width="9.77" height="39.38"/><rect class="cls-2" x="300.19" y="210.98" width="9.77" height="39.38"/><path class="cls-3" d="M354.69,166.85H306.18a8.86,8.86,0,0,1-8.81-10.52c2.32-17.49,3.56-30,3.72-47.63A8.79,8.79,0,0,1,310,99.62h40.83a11,11,0,0,1,10.65,9.08c2.4,17.5,3.71,30,3.95,47.63A10.9,10.9,0,0,1,354.69,166.85Z"/><path class="cls-3" d="M356.85,156.33c-.24-17.66-1.55-30.13-4-47.63a11,11,0,0,0-10.65-9.08H310a8.79,8.79,0,0,0-8.93,9.08c-.16,17.66-1.4,30.14-3.72,47.63a8.86,8.86,0,0,0,8.81,10.52h39.9A10.9,10.9,0,0,0,356.85,156.33Z"/><path class="cls-4" d="M356.85,156.33c-.24-17.66-1.55-30.13-4-47.63a11,11,0,0,0-10.65-9.08H310a8.79,8.79,0,0,0-8.93,9.08c-.16,17.66-1.4,30.14-3.72,47.63a8.86,8.86,0,0,0,8.81,10.52h39.9A10.9,10.9,0,0,0,356.85,156.33Z"/><path class="cls-1" d="M334.24,255.86a1.45,1.45,0,0,1-1.76,1.42c-5.3-1.16-21.2-4.51-27.4-4.51s-22.1,3.35-27.4,4.51a1.45,1.45,0,0,1-1.76-1.42h0a3.8,3.8,0,0,1,3-3.71c6.21-1.33,20.39-4.24,26.16-4.24s19.95,2.91,26.16,4.24a3.8,3.8,0,0,1,3,3.71Z"/><path class="cls-1" d="M327.74,259.75a3.83,3.83,0,1,0,3.83-3.83,3.83,3.83,0,0,0-3.83,3.83Z"/><path class="cls-1" d="M279.57,259.75a3.83,3.83,0,1,1-3.83-3.83,3.83,3.83,0,0,1,3.83,3.83Z"/><path class="cls-1" d="M308.49,258.53a3.83,3.83,0,1,1-3.83-3.84,3.83,3.83,0,0,1,3.83,3.84Z"/><path class="cls-3" d="M319.85,187a397.59,397.59,0,0,1-58.25-2.06,6.31,6.31,0,0,0-7.19,6.38v.95a8.28,8.28,0,0,0,7.19,8.05,396.2,396.2,0,0,0,58.25,2Z"/><path class="cls-5" d="M319.85,187a397.59,397.59,0,0,1-58.25-2.06,6.31,6.31,0,0,0-7.19,6.38v.95a8.28,8.28,0,0,0,7.19,8.05,396.2,396.2,0,0,0,58.25,2Z"/><path class="cls-3" d="M348.93,200.23c-11.12,1-22.08,1.78-33.25,2.22a6.67,6.67,0,0,1-6.84-6.71V194a7,7,0,0,1,6.84-7c11.17-.45,22.13-1.18,33.25-2.23a6,6,0,0,1,6.82,6.05v1.7A7.86,7.86,0,0,1,348.93,200.23Z"/><polygon class="cls-6" points="243.96 232.3 236.2 232.88 242.91 210.81 249.38 220.27 243.96 232.3"/><g class="cls-7"><polygon points="243.07 210.51 240.27 219.91 247.86 223.68 249.54 219.97 243.07 210.51"/></g><path class="cls-3" d="M245,230.54a6.74,6.74,0,0,1-.28,3c-1.12,3.58-4.29,13-4.29,13l-.79-.23s1.2-4.76,1.51-7.25-.76-.64-2.85,1.44S232,244,226.83,242.62c-6.09-1.6-8.44-2.59-6.22-3.64s6.51-.9,6.51-.9a19.24,19.24,0,0,0,10.65-13.15c.57-2.26,1.5-2,2.62-.86a24.6,24.6,0,0,0,5.67,4.27A11.7,11.7,0,0,0,245,230.54Z"/><polygon class="cls-6" points="295.27 241.28 289.85 246.86 280.25 225.88 291.36 228.68 295.27 241.28"/><g class="cls-7"><polygon points="280.17 225.55 284.3 234.44 292.49 232.25 291.28 228.35 280.17 225.55"/></g><path class="cls-3" d="M294.92,239.25a6.64,6.64,0,0,1,1.78,2.44c1.54,3.42,5.43,12.59,5.43,12.59l-.75.36s-2.25-4.36-3.67-6.43-1,0-1.19,3-2.45,6.77-7.23,9.18c-5.62,2.84-8,3.66-7.08,1.4s4.29-5,4.29-5a19.28,19.28,0,0,0-.74-16.91c-1.08-2.07-.22-2.51,1.38-2.38a24.22,24.22,0,0,0,7.08-.56A11.35,11.35,0,0,0,294.92,239.25Z"/><path class="cls-3" d="M317.49,187.06h-39c6.36,4.54,13.86,42,13.86,42l-10.5,3.64s-3-6.46-8.64-21.8c-2.86-7.76-6.31-15.72-8.33-23.52v0a55.13,55.13,0,0,1-1.43-7.31q-.08-.56-.12-1.11c0-.24,0-.48,0-.71s0-.4,0-.6v-.15c0-.16,0-.32.07-.48l0-.12a4.21,4.21,0,0,1,.12-.48.14.14,0,0,1,0-.07,5.05,5.05,0,0,1,.18-.55l0-.1a5.05,5.05,0,0,1,.24-.53.31.31,0,0,1,.05-.1c.08-.16.17-.31.26-.46a8.59,8.59,0,0,1,.72-1l.09-.1.41-.45a11,11,0,0,1,1-.92.1.1,0,0,1,.05,0l.58-.45.62-.44.66-.42c.45-.27.93-.54,1.43-.79,0,0,0,0,.05,0l1.33-.63.46-.2s.05,0,.06,0h0c4.36,1.41,12.37,5.06,20.95,8.72,9.71,4.14,20.16,8.27,26.89,9.13A15.44,15.44,0,0,1,317.49,187.06Z"/><path class="cls-8" d="M317.49,187.06h-39c6.36,4.54,13.86,42,13.86,42l-10.5,3.64s-3-6.46-8.64-21.8c-2.86-7.76-6.31-15.72-8.33-23.52v0a55.13,55.13,0,0,1-1.43-7.31q-.08-.56-.12-1.11c0-.24,0-.48,0-.71s0-.4,0-.6v-.15c0-.16,0-.32.07-.48l0-.12a4.21,4.21,0,0,1,.12-.48.14.14,0,0,1,0-.07,5.05,5.05,0,0,1,.18-.55l0-.1a5.05,5.05,0,0,1,.24-.53.31.31,0,0,1,.05-.1c.08-.16.17-.31.26-.46a8.59,8.59,0,0,1,.72-1l.09-.1.41-.45a11,11,0,0,1,1-.92.1.1,0,0,1,.05,0l.58-.45.62-.44.66-.42c.45-.27.93-.54,1.43-.79,0,0,0,0,.05,0l1.33-.63.46-.2s.05,0,.06,0h0c4.36,1.41,12.37,5.06,20.95,8.72,9.71,4.14,20.16,8.27,26.89,9.13A15.44,15.44,0,0,1,317.49,187.06Z"/><path class="cls-3" d="M319.67,186.91c-6.73-.86-17.18-5-26.89-9.13-8.58-3.66-16.59-7.31-20.95-8.72,13-5.45,36.18-5.32,36.18-5.32s6-5.7,12.67-7.06a14,14,0,0,1,2.73-.29l.19.26C335.18,172.09,330.92,185.41,319.67,186.91Z"/><path class="cls-1" d="M275.51,135.68c5.67,5.18,16.81-7.08,18.6-8.54,3.85-3.13,15.14-13.68,14.54-17.34-1.76-10.77-19.45,4.49-24.55,15Z"/><path class="cls-1" d="M325.15,103.27c2.84.61,5.92-.42,7.92,1.69s2.83,5.07,3.13,8a53.81,53.81,0,0,1-.63,12.08q-.94,7.29-1.88,14.58a43.49,43.49,0,0,0,.46,12v0a1.91,1.91,0,0,1-1.1,2.08s-22.06.77-28.48.52c-3.41-.13-1.07-9.1-2.12-14.33-.23-1.16-2.51-5.95-2.85-7.18-1.58-5.79-.53-9.77.94-15.59,1.06-4.23,1.5-10.32,3.66-10.79C308,105.49,317.23,101.59,325.15,103.27Z"/><path class="cls-1" d="M328.3,107.41c.29-.44,8.05-7,9.47.57,2,10.51-2.1,20.85-2.1,20.85s-.94,11.37-4.24,12.51-6.44,1.41-7.56-.53a11.57,11.57,0,0,1-1.11-4.86S323.16,115.26,328.3,107.41Z"/><path class="cls-9" d="M322.93,88.85c-.81,4.84-1.48,13.68,2,16.79a45.41,45.41,0,0,0-14,12.14,7.3,7.3,0,0,1-2.57-8.16,7.16,7.16,0,0,1,3.56-4.3c3.28-1.8,3-5.18,2.07-8.36Z"/><path class="cls-10" d="M321.82,97.06l-3.15,1.21a10.54,10.54,0,0,1-4.23.69h0a6.85,6.85,0,0,1,0,3,6,6,0,0,0,6.26-2A10.27,10.27,0,0,0,321.82,97.06Z"/><path class="cls-3" d="M334.32,153.77l.93,2.92c.12.23-.14.47-.52.48l-33.24,1c-.3,0-.55-.13-.57-.32l-.38-2.94c0-.2.22-.38.54-.39l32.66-1A.59.59,0,0,1,334.32,153.77Z"/><path class="cls-3" d="M264.37,174.58a7.57,7.57,0,0,1,.72-1A8.59,8.59,0,0,0,264.37,174.58Z"/><path class="cls-3" d="M266.58,172.09a11,11,0,0,0-1,.92A8.75,8.75,0,0,1,266.58,172.09Z"/><path class="cls-11" d="M264.37,174.58a7.57,7.57,0,0,1,.72-1A8.59,8.59,0,0,0,264.37,174.58Z"/><path class="cls-11" d="M266.58,172.09a11,11,0,0,0-1,.92A8.75,8.75,0,0,1,266.58,172.09Z"/><path class="cls-9" d="M278.2,132.27a13.57,13.57,0,0,1-4.19-6.7,14,14,0,0,1-.18-2.79,155.68,155.68,0,0,1,1.68-16.37l4.7-1.56s1.46,8.06,1.78,12.5c.06.87.16,1.89.27,3,.21,2,.46,4.15.68,6Z"/><path class="cls-1" d="M275.51,135.68c-1.44-1.32-1.69-2.92-2.43-6.32-.71-3.22.09-7.14.75-6.58a.71.71,0,0,1,.18.28c1.14,2.69,5.58.33,6.84-1a9.54,9.54,0,0,0,1.41-1.73,1.43,1.43,0,0,0,0-1.63c1.36-.57,2.46,4.8,1.81,6.12l-.34,1a13.68,13.68,0,0,1-2.46,4.43l-2.47,3Z"/><path class="cls-9" d="M280.33,105.54l.56-8.2a33,33,0,0,1-4.53,1.75c-2.29.78-5.36-.59-4.67.89a62.74,62.74,0,0,0,3.82,6.43Z"/><path class="cls-9" d="M280.89,97.34l-3.5-8.21-4.59,2.81c-1.26,2.75-1.11,8-1.11,8S278.05,100.27,280.89,97.34Z"/><path class="cls-1" d="M304.69,75.06c-3.51,6.63-2.65,15,1.07,21.55,6.36-4.32,15.62-.88,22.17-4.85,4.39-2.66,6.45-8.4,5.33-13.4-1.21-5.4-7.07-11.72-12.75-12.27C314.14,65.47,307.64,69.47,304.69,75.06Z"/><path class="cls-9" d="M326.27,77.68a10.18,10.18,0,0,0-13.16-5.9c-7.43,2.78-8.82,13.88-7.44,20.7,1.51,7.6,10.61,10.06,16.49,4.38,3.94-3.79,4.06-7,4.73-14.49A10.25,10.25,0,0,0,326.27,77.68Z"/><path class="cls-12" d="M310.13,89.84a2.6,2.6,0,0,1-2.16-.47,16.36,16.36,0,0,0,2.3-3.86Z"/><path class="cls-1" d="M315.83,90.54a.18.18,0,1,0-.29-.21,4.81,4.81,0,0,1-4,1.8.18.18,0,0,0-.18.17h0a.18.18,0,0,0,.16.18,6.47,6.47,0,0,0,.88,0A5.05,5.05,0,0,0,315.83,90.54Z"/><path class="cls-1" d="M315.58,68.88a7.63,7.63,0,0,0-1.8,2.77c8,4,12.11,14.32,12.49,23.32,3-2.46,8.37-5.07,11-8.27,2.91-3.59,1.43-8.86-1.93-12a71.76,71.76,0,0,0-9.7-6.8A8.21,8.21,0,0,0,315.58,68.88Z"/><path class="cls-9" d="M329,87.5a2.46,2.46,0,0,0-2.37-2.56c-1.88,0-3.13,2.31-3.4,3.94-.28,1.8.8,3.35,2.59,2.61a5.54,5.54,0,0,0,2.94-3A2.44,2.44,0,0,0,329,87.5Z"/><path class="cls-1" d="M315.28,83.45c0,.75-.37,1.37-.87,1.39s-.9-.58-.91-1.35.36-1.37.85-1.39S315.25,82.69,315.28,83.45Z"/><path class="cls-1" d="M308.27,84.22c0,.75-.37,1.38-.86,1.39s-.9-.58-.92-1.34.37-1.38.86-1.4S308.26,83.46,308.27,84.22Z"/><path class="cls-1" d="M307.56,82.91l-1.82-.47S306.71,83.83,307.56,82.91Z"/><path class="cls-1" d="M317.4,80.57a.56.56,0,0,0,.17-.09.37.37,0,0,0,0-.52h0a4.27,4.27,0,0,0-3.72-1.37.38.38,0,0,0-.29.43.37.37,0,0,0,.42.3,3.57,3.57,0,0,1,3.06,1.16A.37.37,0,0,0,317.4,80.57Z"/><path class="cls-1" d="M305.59,81.84a.44.44,0,0,0,.15-.12,3.62,3.62,0,0,1,2.86-1.6.38.38,0,0,0,.39-.35h0a.39.39,0,0,0-.36-.39,4.41,4.41,0,0,0-3.5,1.91.38.38,0,0,0,.07.52.35.35,0,0,0,.39,0Z"/><path class="cls-1" d="M314.57,82.14l-1.82-.47S313.71,83.06,314.57,82.14Z"/><path class="cls-1" d="M303.65,85.61c-.23,4.64,1.91,11.64,5.19,14.91-3.06,1.35-7.17-2-9.48-4.38a11.8,11.8,0,0,1-2.95-9.23A19.93,19.93,0,0,1,300,77.68c3-4.56,7.51-7.69,12.45-10,1-.47,2.53-.67,2.85.37.22.72-.39,1.41-.95,1.91C308.92,74.81,304.82,78.12,303.65,85.61Z"/><path class="cls-1" d="M321.8,98.54l-.07,0a.28.28,0,0,1-.12-.37c5.69-11-4.71-22.91-8-26.3a.28.28,0,0,1,0-.39.27.27,0,0,1,.39,0c3.39,3.46,14,15.62,8.13,26.94A.29.29,0,0,1,321.8,98.54Z"/><polygon class="cls-3" points="326.02 90.59 324.79 94.67 325.67 95.84 326.52 94.7 326.02 90.59"/><path class="cls-9" d="M325.5,101c0-.27-.06-.61-.09-1a3.4,3.4,0,0,1,2.78-3.64h0a1.44,1.44,0,0,0,1.09-.93c.62-1.79.86-2.34,1.45-4.1,1.62-.39,3.52.21,5.2.39a14.63,14.63,0,0,1,.09,6.11,2.62,2.62,0,0,1-.51,1.25,21.8,21.8,0,0,1-5,3.07C329.08,102.55,327,101.09,325.5,101Z"/><path class="cls-9" d="M330.35,102.15s4.41,28.44-.13,32.77c-2.67,2.55-5,1.14-6.42-.45a5.63,5.63,0,0,1-1.39-4.38L325.5,101S328.56,99.17,330.35,102.15Z"/><path class="cls-3" d="M332.17,184.75a18.61,18.61,0,0,1-4,1.55c-.35.09-.71.18-1.07.25a24.14,24.14,0,0,1-5.13.53,15,15,0,0,1-1.71-.1l-.62-.07-.64-.09c-.63-.1-1.28-.22-2-.36s-1.5-.34-2.29-.55l-.77-.21q-1.47-.4-3-.9l-1.05-.34c-2-.65-4-1.4-6.14-2.2l-.83-.32c-2.68-1-5.41-2.16-8.11-3.29l-2.06-.87c-8.58-3.66-16.59-7.31-20.95-8.72h0s0,0-.06,0l-.46.2-1.33.63s0,0-.05,0c-.5.25-1,.52-1.43.79l-.66.42-.62.44-.58.45a.1.1,0,0,0-.05,0,11,11,0,0,0-1,.92l-.41.45-.09.1a8.59,8.59,0,0,0-.72,1c-.09.15-.18.3-.26.46a.31.31,0,0,0-.05.1,5.05,5.05,0,0,0-.24.53l0,.1a5.05,5.05,0,0,0-.18.55.14.14,0,0,0,0,.07,4.21,4.21,0,0,0-.12.48l0,.12c0,.16-.05.32-.07.48v.15q0,.3,0,.6c0,.23,0,.47,0,.71s.07.74.12,1.11a55.13,55.13,0,0,0,1.43,7.31c-1.41,3.49-2.84,6.93-4.24,10.21l-1.38,3.22c-1.59,3.7-3.11,7.13-4.45,10.14q-.3.65-.57,1.26l-1.56,3.45c-.17.35-.32.7-.47,1l-1.8,3.9c-.07.14-.14.28-.2.42s-.12.26-.18.38-.11.23-.16.34c-.41.87-.27.59-.27.59l-9.54-5.5s7.13-25.25,11.77-48.56a20.6,20.6,0,0,1,17.84-16.49c18.26-2.08,43.42,5.06,43.42,5.06h1.7l3.95-.06,1.91,0H321l1.6,0h2.48c3.18,0,6.44-.06,9.05,0C342.87,171.73,339.51,180.8,332.17,184.75Z"/><g class="cls-13"><path d="M332.17,184.75a18.61,18.61,0,0,1-4,1.55c-.35.09-.71.18-1.07.25a24.14,24.14,0,0,1-5.13.53,15,15,0,0,1-1.71-.1l-.62-.07-.64-.09c-.63-.1-1.28-.22-2-.36s-1.5-.34-2.29-.55l-.77-.21q-1.47-.4-3-.9l-1.05-.34c-2-.65-4-1.4-6.14-2.2l-.83-.32c-2.68-1-5.41-2.16-8.11-3.29l-2.06-.87c-8.58-3.66-16.59-7.31-20.95-8.72h0s0,0-.06,0l-.46.2-1.33.63s0,0-.05,0c-.5.25-1,.52-1.43.79l-.66.42-.62.44-.58.45a.1.1,0,0,0-.05,0,11,11,0,0,0-1,.92l-.41.45-.09.1a8.59,8.59,0,0,0-.72,1c-.09.15-.18.3-.26.46a.31.31,0,0,0-.05.1,5.05,5.05,0,0,0-.24.53l0,.1a5.05,5.05,0,0,0-.18.55.14.14,0,0,0,0,.07,4.21,4.21,0,0,0-.12.48l0,.12c0,.16-.05.32-.07.48v.15q0,.3,0,.6c0,.23,0,.47,0,.71s.07.74.12,1.11a55.13,55.13,0,0,0,1.43,7.31c-1.41,3.49-2.84,6.93-4.24,10.21l-1.38,3.22c-1.59,3.7-3.11,7.13-4.45,10.14q-.3.65-.57,1.26l-1.56,3.45c-.17.35-.32.7-.47,1l-1.8,3.9c-.07.14-.14.28-.2.42s-.12.26-.18.38-.11.23-.16.34c-.41.87-.27.59-.27.59l-9.54-5.5s7.13-25.25,11.77-48.56a20.6,20.6,0,0,1,17.84-16.49c18.26-2.08,43.42,5.06,43.42,5.06h1.7l3.95-.06,1.91,0H321l1.6,0h2.48c3.18,0,6.44-.06,9.05,0C342.87,171.73,339.51,180.8,332.17,184.75Z"/></g></g><g id="Character_2" data-name="Character 2"><rect class="cls-1" x="165.24" y="214.82" width="9.37" height="39.11"/><rect class="cls-2" x="165.24" y="214.82" width="9.37" height="39.11"/><rect class="cls-1" x="166.58" y="190.04" width="6.68" height="24.97"/><polygon class="cls-10" points="173.26 194.67 166.58 197.11 166.58 190.04 173.26 190.04 173.26 194.67"/><path class="cls-1" d="M196.83,259.75a3.83,3.83,0,1,0,3.83-3.83,3.82,3.82,0,0,0-3.83,3.83Z"/><path class="cls-1" d="M140.57,259.75a3.83,3.83,0,1,1-3.83-3.83,3.83,3.83,0,0,1,3.83,3.83Z"/><path class="cls-1" d="M173.75,258.53a3.83,3.83,0,1,1-3.83-3.84,3.84,3.84,0,0,1,3.83,3.84Z"/><path class="cls-1" d="M128.39,254.61a1.88,1.88,0,0,0,1.89,1.5l39.95-.55,37.41.85a1.86,1.86,0,0,0,.41-3.69l-20.43-4a35.42,35.42,0,0,0-6.42-.6h-22a35.51,35.51,0,0,0-6.42.6l-23,3.68A1.86,1.86,0,0,0,128.39,254.61Z"/><path class="cls-1" d="M127.78,189.94v.1h1.32A9.42,9.42,0,0,1,127.78,189.94Z"/><path class="cls-3" d="M181.25,113.54a.62.62,0,0,1,0,.19v68.4H120V113a11.67,11.67,0,0,1,.1-1.56l-.1,0,.58-9.63a11.44,11.44,0,0,1,3.18-7.26l6.14-6.42,3.15-16a5.33,5.33,0,0,1,5.22-4.3h14.15a5.34,5.34,0,0,1,5,3.6l5.92,17.26,11.3,7a11.5,11.5,0,0,1,5.33,8.1l1.47,9.82Z"/><path class="cls-4" d="M181.25,113.54a.62.62,0,0,1,0,.19v68.4h-53.1V113a10.23,10.23,0,0,1,.11-1.56l-.11,0,.58-9.63a11.49,11.49,0,0,1,3.18-7.26l6.13-6.42,3.16-16a5.33,5.33,0,0,1,5.22-4.3h5.93a5.34,5.34,0,0,1,5,3.6l5.92,17.26,11.3,7a11.5,11.5,0,0,1,5.33,8.1l1.47,9.82Z"/><path class="cls-1" d="M186.58,193.35H153.67a121.22,121.22,0,0,0,12.68,4.28V203h7.54v-5.33A121.76,121.76,0,0,0,186.58,193.35Z"/><path class="cls-3" d="M155.36,178.93a398.89,398.89,0,0,0,58.24-2.05,6.29,6.29,0,0,1,7.19,6.37v1a8.26,8.26,0,0,1-7.19,8,397.5,397.5,0,0,1-58.24,2.06Z"/><path class="cls-5" d="M155.36,178.93a398.89,398.89,0,0,0,58.24-2.05,6.29,6.29,0,0,1,7.19,6.37v1a8.26,8.26,0,0,1-7.19,8,397.5,397.5,0,0,1-58.24,2.06Z"/><path class="cls-3" d="M126.27,192.21c11.12,1,22.09,1.78,33.25,2.23a6.69,6.69,0,0,0,6.85-6.72V186a7,7,0,0,0-6.85-7c-11.16-.45-22.13-1.18-33.25-2.22a6,6,0,0,0-6.81,6v1.7A7.84,7.84,0,0,0,126.27,192.21Z"/><path class="cls-14" d="M217.75,96.57l.94,3.13-1.76,2.6a14.15,14.15,0,0,1-6.47,3.67,3.29,3.29,0,0,1-3.47-1.49l-.37-.59a4,4,0,0,1-.39-.84c-.54-1.61-.06-2.59,1.24-3.68l4.44-4.65a54.86,54.86,0,0,1,5.78-1.27C218.28,93.39,217.82,96,217.75,96.57Z"/><path class="cls-1" d="M189.62,116.46s13.24-13.67,15.77-15l.91-.7,4.16,5.26c-.58.59-20.13,34.46-27.54,21.82-1.38-2.37-2.66-4.72-3.83-7.1-.6-1.23-4.31-8.73-4.86-10l-.57-1.25c-2.69-6-3.68-13,1.87-17.11h0c2.07-.91,5.48,1.56,6.29,4.78Z"/><g class="cls-15"><path class="cls-16" d="M189.62,116.46s13.24-13.67,15.77-15l.91-.7,4.16,5.26c-.58.59-20.13,34.46-27.54,21.82-1.38-2.37-2.66-4.72-3.83-7.1-.6-1.23-4.31-8.73-4.86-10l-.57-1.25c-2.69-6-3.68-13,1.87-17.11h0c2.07-.91,5.48,1.56,6.29,4.78Z"/></g><g id="character-2--inject-102"><polygon class="cls-14" points="234.17 237.56 236.75 254.25 229.72 254.25 224.74 237.56 234.17 237.56"/><path class="cls-3" d="M237,253.13l-7.26.17a.52.52,0,0,0-.59.51h0a9.49,9.49,0,0,0-.39,5.25c.28,1.35.67,2.66,1.09,2.67,3.27,0,12,.08,20.66,0,3.64.08,3.64-3.72.83-3.72a21.39,21.39,0,0,1-12.87-4.37A2.56,2.56,0,0,0,237,253.13Z"/><polygon class="cls-5" points="235.41 245.61 234.17 237.56 224.74 237.56 227.67 247.37 235.41 245.61"/><polygon class="cls-14" points="178.6 236.16 173.14 250.13 165.43 250.13 168.95 236.37 178.6 236.16"/><polygon class="cls-5" points="167.37 242.55 168.86 234.95 178.6 236.16 176.11 242.76 167.37 242.55"/><path class="cls-3" d="M173.35,248.92l-6.48-3a.56.56,0,0,0-.79,0h0l-4.85,4.3a1.41,1.41,0,0,0,.27,1.95c2.52,1.92,4.24,3.6,7.39,6.07,1.93,1.52,5.55,4.68,8.23,6.78s4.56-.46,3.59-1.56a33.15,33.15,0,0,1-6.56-13.35A2.42,2.42,0,0,0,173.35,248.92Z"/></g><path class="cls-3" d="M185.13,157.52c-8.28-22.36-2.83-42.92-3.87-54.3a13,13,0,0,0-10.49-11.56c-5.65-1.09-12.64-2.32-19.31-3.22a13.8,13.8,0,0,0-1.93-.12,13.06,13.06,0,0,0-12.88,13.24c.58,33.73,11.38,56,11.38,56l17.46-.08Z"/><path class="cls-14" d="M166.21,79c-1.19,4.61-1.57,10.35,4.88,12.74,1.79,2.85,2.66,5.86-4.23,4.79A21.18,21.18,0,0,1,153,88.67c4.12-3.6,3.37-14.68,2.32-20.93Z"/><path class="cls-1" d="M189.47,154.26s40-1.08,40.87,17c1.27,26,5.66,70.52,5.66,70.52l-10.78,2.36s-15.37-43.55-16-63.88c-16.08-3.2-40.25,1.65-45.1-8.91a28.38,28.38,0,0,1-1.83-17.12Z"/><g class="cls-15"><path d="M189.47,154.26s40-1.08,40.87,17c1.27,26,5.66,70.52,5.66,70.52l-10.78,2.36s-15.37-43.55-16-63.88c-16.08-3.2-40.25,1.65-45.1-8.91a28.38,28.38,0,0,1-1.83-17.12Z"/></g><path class="cls-1" d="M174.06,152.28s27.1,3.81,25.82,21.91c-1.39,19.81-22.15,65.74-22.15,65.74H167.25s7-41.68,10.13-61.86c-14.63,0-23.77,1.9-28.63-8.68a28.37,28.37,0,0,1-1.83-17.12Z"/><path class="cls-1" d="M176.87,92c2.31,2,6,5.1,6.66,23.92.19,6-.74,12-.58,18,.18,6.93,1.86,11.81,4.24,18.32,0,1.55-2.34,2.43-4.33,2.83-4.13-9-6.71-17.63-6.56-27.55.57-35.51-10.51-38.82-10.1-40.09Z"/><path class="cls-17" d="M161.17,82.39a5.78,5.78,0,0,0,4.38,1.06,20.89,20.89,0,0,1,.24-3.35l-7.15-5.88a16.43,16.43,0,0,0-.31,2.31A6.57,6.57,0,0,0,161.17,82.39Z"/><path class="cls-14" d="M171.87,51.72c7.57,4.27,7.65,16.36,5.32,23.35a10.49,10.49,0,0,1-18.36,3.08c-3.69-4.68-3.16-9.4-3-17.51S164.3,47.45,171.87,51.72Z"/><path class="cls-10" d="M170.63,72.13a28.26,28.26,0,0,0,7,1.41,11.32,11.32,0,0,1-4.13,6.7,10.48,10.48,0,0,1-14.67-2.09c-3-3.83-4-6.42-3.08-13.4A133.67,133.67,0,0,0,170.63,72.13Z"/><path class="cls-14" d="M156.88,67.11a2.32,2.32,0,0,0-1-1.9,5.34,5.34,0,0,1-1.5-1.61,4,4,0,0,1-.18-2q.22-2.86.44-5.73c.35-4.42,7.18-1.83,7,1.86-.14,2.52-1.92,2.57-3.4,4.08C156.54,63.58,157.17,65.06,156.88,67.11Z"/><path class="cls-10" d="M156.88,67.11a2.32,2.32,0,0,0-1-1.9,5.34,5.34,0,0,1-1.5-1.61,4,4,0,0,1-.18-2q.22-2.86.44-5.73c.35-4.42,7.18-1.83,7,1.86-.14,2.52-1.92,2.57-3.4,4.08C156.54,63.58,157.17,65.06,156.88,67.11Z"/><path class="cls-14" d="M154.62,63.88c2.28.52,3.24,3.77,3.17,5.86,0,2.37-1.75,3.92-3.72,2.49a7.3,7.3,0,0,1-2.84-4.56C150.83,65.43,152.35,63.37,154.62,63.88Z"/><path class="cls-1" d="M166.64,61.32a4.59,4.59,0,0,1,3.38-.87h0a.38.38,0,0,0,.43-.31.42.42,0,0,0-.33-.46c-1.21-.18-3.23.18-4,1.09h0a.39.39,0,0,0,0,.55.59.59,0,0,0,.17.1A.36.36,0,0,0,166.64,61.32Z"/><path class="cls-1" d="M177.83,63l0,0a.37.37,0,0,0,.1-.51,4.07,4.07,0,0,0-3-2h0a.36.36,0,0,0-.36.36.4.4,0,0,0,.37.42,3.23,3.23,0,0,1,2.33,1.64.41.41,0,0,0,.31.2A.34.34,0,0,0,177.83,63Z"/><path class="cls-18" d="M170.57,74.88a33.15,33.15,0,0,0-2.29,3.32c-.18-.07-.36-.14-.54-.23-2.43-1-3.12-2.52-3.15-3.82a4.9,4.9,0,0,1,.39-1.92,5.09,5.09,0,0,1,.53-1c.87,1.5,3,2.69,4.24,3.27C170.24,74.75,170.57,74.88,170.57,74.88Z"/><path class="cls-16" d="M169.75,74.5l-.35.48a.72.72,0,0,1-.89.24c-1.8-.85-3-1.75-3.43-2.71a.73.73,0,0,1,0-.58,4.41,4.41,0,0,1,.4-.7C166.38,72.73,168.55,73.92,169.75,74.5Z"/><path class="cls-19" d="M167.74,78c-2.43-1-3.12-2.52-3.15-3.82A7.15,7.15,0,0,1,167,76,3.46,3.46,0,0,1,167.74,78Z"/><path class="cls-1" d="M174.9,65.29c.42.08.66.68.53,1.33s-.58,1.11-1,1-.66-.68-.53-1.33S174.47,65.21,174.9,65.29Z"/><path class="cls-1" d="M166.76,63.37c.42.07.66.68.54,1.32s-.58,1.12-1,1-.66-.67-.54-1.32S166.34,63.29,166.76,63.37Z"/><path class="cls-20" d="M170.9,71.86s1.8,1.18,3.26.5c-1.21-2.71-1-2.1-1.42-6.7Z"/><path class="cls-1" d="M174.81,156.52s-9.84,3.81-12.08,4.56a28.42,28.42,0,0,1-8.11,1.86,9.94,9.94,0,0,1-7.66-2.86c-2.35-2.51-3.08-6.32-3.69-9.88q-2.72-15.72-5.42-31.44c-.89-5.17-3.13-12.94-2.94-15.9.35-5.44,3.82-11.86,12.64-15.41,3.43-1.37,6.81-.84,9.7,2.61,1.73,2.07,6.76,7,8,15.76,1,7,2.53,16.07,2.43,23.18C167.55,138.33,171.27,150.12,174.81,156.52Z"/><path class="cls-1" d="M135.38,100c-1,9.11,4,32.07,5,33.45,4.12,13.32,15.47,6.14,17.11,5.53,2.87-1.06,5.78-3.12,8.5-4.5,5.28-2.62,10.28-4.73,15.19-8L178.43,121c-5.38,1.84-20.62,5.77-23.13,6.39-1.1.28-5.34,2.51-5.29-.43-.61-1-1.44-20-3.26-26.71a5.58,5.58,0,0,0-1.06-2.07l-.16-.21a5.83,5.83,0,0,0-10.15,2Z"/><path class="cls-21" d="M135.38,100c-1,9.11,4,32.07,5,33.45,4.12,13.32,15.47,6.14,17.11,5.53,2.87-1.06,5.78-3.12,8.5-4.5,5.28-2.62,10.28-4.73,15.19-8L178.43,121c-5.38,1.84-20.62,5.77-23.13,6.39-1.1.28-5.34,2.51-5.29-.43-.61-1-1.44-20-3.26-26.71a5.58,5.58,0,0,0-1.06-2.07l-.16-.21a5.83,5.83,0,0,0-10.15,2Z"/><path class="cls-14" d="M176.39,122.82l-.58,3.12c1.38,3.6,9.31,2.65,9.31,2.65v-9.22l-7,1.63A2.32,2.32,0,0,0,176.39,122.82Z"/><polygon class="cls-14" points="185.13 119.37 185.09 128.61 192.11 128.78 193.72 120.66 185.13 119.37"/><path class="cls-1" d="M181,57.12a2.12,2.12,0,0,1-.91,2.24,3.21,3.21,0,0,1-2.06.1l-6.9-1.2c-4-.69-7.91-1.38-11.82-2.32-1.75-.42-4.3-.94-4.41-2.74-.53-8.65,13.6-6.94,16.61-5.89C181.42,50.79,180.82,56.27,181,57.12Z"/></g><g id="Character_1" data-name="Character 1"><rect class="cls-1" x="45.78" y="214.82" width="9.37" height="39.11"/><rect class="cls-2" x="45.78" y="214.82" width="9.37" height="39.11"/><rect class="cls-1" x="47.12" y="190.04" width="6.68" height="24.97"/><polygon class="cls-10" points="53.8 194.67 47.12 197.11 47.12 190.04 53.8 190.04 53.8 194.67"/><path class="cls-1" d="M77.37,259.75a3.83,3.83,0,1,0,3.83-3.83,3.83,3.83,0,0,0-3.83,3.83Z"/><path class="cls-1" d="M21.11,259.75a3.83,3.83,0,1,1-3.83-3.83,3.82,3.82,0,0,1,3.83,3.83Z"/><path class="cls-1" d="M54.29,258.53a3.83,3.83,0,1,1-3.83-3.84,3.83,3.83,0,0,1,3.83,3.84Z"/><path class="cls-1" d="M8.94,254.61a1.86,1.86,0,0,0,1.88,1.5l40-.55,37.41.85a1.86,1.86,0,0,0,.42-3.69l-20.43-4a35.62,35.62,0,0,0-6.43-.6h-22a35.34,35.34,0,0,0-6.42.6l-23,3.68A1.85,1.85,0,0,0,8.94,254.61Z"/><path class="cls-1" d="M8.32,189.94v.1H9.64A9.65,9.65,0,0,1,8.32,189.94Z"/><path class="cls-3" d="M61.8,113.54a1.21,1.21,0,0,1,0,.19v68.4H.5V113a11.67,11.67,0,0,1,.1-1.56l-.1,0,.58-9.63A11.44,11.44,0,0,1,4.26,94.6l6.13-6.42,3.16-16a5.33,5.33,0,0,1,5.22-4.3H32.91a5.34,5.34,0,0,1,5,3.6L43.87,88.7l11.29,7a11.48,11.48,0,0,1,5.34,8.1L62,113.57Z"/><path class="cls-4" d="M61.8,113.54a1.21,1.21,0,0,1,0,.19v68.4H8.72V113a11.67,11.67,0,0,1,.1-1.56l-.1,0,.58-9.63a11.44,11.44,0,0,1,3.18-7.26l6.13-6.42,3.16-16A5.33,5.33,0,0,1,27,67.84h5.92a5.34,5.34,0,0,1,5,3.6L43.87,88.7l11.29,7a11.48,11.48,0,0,1,5.34,8.1L62,113.57Z"/><path class="cls-1" d="M67.12,193.35H34.21a121.76,121.76,0,0,0,12.69,4.28V203h7.54v-5.33A121.22,121.22,0,0,0,67.12,193.35Z"/><path class="cls-3" d="M35.9,178.93a399,399,0,0,0,58.25-2.05,6.3,6.3,0,0,1,7.19,6.37v1a8.27,8.27,0,0,1-7.19,8,397.64,397.64,0,0,1-58.25,2.06Z"/><path class="cls-5" d="M35.9,178.93a399,399,0,0,0,58.25-2.05,6.3,6.3,0,0,1,7.19,6.37v1a8.27,8.27,0,0,1-7.19,8,397.64,397.64,0,0,1-58.25,2.06Z"/><path class="cls-3" d="M6.82,192.21c11.12,1,22.08,1.78,33.24,2.23a6.68,6.68,0,0,0,6.85-6.72V186a7,7,0,0,0-6.85-7c-11.16-.45-22.12-1.18-33.24-2.22a6,6,0,0,0-6.82,6v1.7A7.85,7.85,0,0,0,6.82,192.21Z"/><polygon class="cls-22" points="101.09 236.37 101.02 253.18 109.41 253 111.15 237.14 101.09 236.37"/><path class="cls-3" d="M110.89,252.82a.22.22,0,0,1-.16-.16.2.2,0,0,1,.1-.2c.13-.07,3-1.66,4.33-1.27a1,1,0,0,1,.6.46.72.72,0,0,1,0,.84,3.51,3.51,0,0,1-2.39.59A14.8,14.8,0,0,1,110.89,252.82Zm.62-.25c1.51.2,3.56.21,3.94-.31.06-.07.11-.18,0-.42a.54.54,0,0,0-.38-.28,1.49,1.49,0,0,0-.36-.05A8.93,8.93,0,0,0,111.51,252.57Z"/><path class="cls-3" d="M110.79,252.81a.21.21,0,0,1-.09-.18c0-.1.26-2.29,1.3-3.13a1.43,1.43,0,0,1,1.07-.31c.53.06.69.33.71.55.16.91-1.81,2.65-2.78,3.07h-.08A.19.19,0,0,1,110.79,252.81Zm2.15-3.26a1,1,0,0,0-.67.24,4.46,4.46,0,0,0-1.1,2.47c1-.58,2.3-1.94,2.26-2.49,0-.05,0-.19-.38-.23Z"/><path class="cls-1" d="M110.07,251.67l-8.86-.1a.73.73,0,0,0-.7.55l-1.68,7.19a1.17,1.17,0,0,0,.87,1.43l.25,0c3.19,0,6-.17,10-.12,4.7.06,3.5.61,9,.75,3.33.08,4-3.69,2.57-3.9-6.44-.88-7.09-2.83-9.55-5.17A2.87,2.87,0,0,0,110.07,251.67Z"/><polygon class="cls-4" points="101.8 246.13 110.69 245.53 111.24 234.62 101.15 234.44 101.8 246.13"/><path class="cls-8" d="M98.52,172.43c0,.15.07.3.11.45a43.57,43.57,0,0,0-.95-6.15c-2.86-11.13-32.66-13-44.86-13.28l-14.65,1.61s-1.37,11.73,2.13,19.16S98.52,172.43,98.52,172.43Z"/><polygon class="cls-22" points="81.19 239.38 81.94 256.44 90.21 256.14 91.19 238.08 81.19 239.38"/><path class="cls-3" d="M91.51,253.83a.2.2,0,0,1-.16-.15.19.19,0,0,1,.07-.2c.12-.08,2.8-1.94,4.19-1.68a1,1,0,0,1,.64.39.74.74,0,0,1,.08.84,3.47,3.47,0,0,1-2.32.82A14.91,14.91,0,0,1,91.51,253.83Zm.6-.31c1.52.06,3.56-.13,3.89-.69,0-.07.09-.19-.07-.42a.54.54,0,0,0-.4-.23,1.53,1.53,0,0,0-.37,0A9,9,0,0,0,92.11,253.52Z"/><path class="cls-3" d="M91.41,253.83a.21.21,0,0,1-.1-.17c0-.1,0-2.3,1-3.24a1.43,1.43,0,0,1,1-.41c.53,0,.72.26.76.47.25.9-1.55,2.82-2.48,3.33a.11.11,0,0,1-.08,0A.19.19,0,0,1,91.41,253.83Zm1.83-3.45a1,1,0,0,0-.64.3,4.55,4.55,0,0,0-.86,2.57c1-.68,2.11-2.16,2-2.71,0,0,0-.18-.4-.18l-.11,0Z"/><path class="cls-1" d="M90.59,252.77l-8.83.75a.71.71,0,0,0-.64.62l-1,7.32a1.19,1.19,0,0,0,1,1.34h.26c3.17-.33,6-.75,9.95-1.08,4.68-.4,3.54.26,9-.13,3.32-.24,3.6-4.06,2.18-4.12-6.5-.26-7.33-2.15-10-4.24A2.84,2.84,0,0,0,90.59,252.77Z"/><polygon class="cls-4" points="90.61 248.33 91.08 239.72 81.23 239.94 81.63 248.96 90.61 248.33"/><path class="cls-3" d="M61.31,152.49s52-4,55.6,10-4.39,80.15-4.39,80.15l-12.85,1.09s-1.69-39.05-1.93-71.3c0,0-54.73,9.22-58.22,1.79s-2.13-19.16-2.13-19.16Z"/><path class="cls-1" d="M61.31,152.49s52-4,55.6,10-4.39,80.15-4.39,80.15l-12.85,1.09s-1.69-39.05-1.93-71.3c0,0-54.73,9.22-58.22,1.79s-2.13-19.16-2.13-19.16Z"/><path class="cls-4" d="M61.31,152.49s52-4,55.6,10-4.39,80.15-4.39,80.15l-12.85,1.09s-1.69-39.05-1.93-71.3c0,0-54.73,9.22-58.22,1.79s-2.13-19.16-2.13-19.16Z"/><path class="cls-1" d="M48.18,154.53s52.42-2,53.13,12.43c.57,11.31-9,78.47-9,78.47l-12,.93s-2.19-40.36-.7-67.91c0,0-45.23,5.19-53.19-1.17-7.59-6.08-1.68-22.84-1.68-22.84Z"/><g id="_Group_" data-name="&lt;Group&gt;"><path class="cls-22" d="M97.25,143.79v-.2a5.61,5.61,0,0,1,4.61-4.56l5.58-.91s9.28,4.6,7.17,5.61H104.35Z"/><path class="cls-3" d="M104.79,138.56l-7.54,5.23L75.32,129.43l-9.6-9.63S47.54,91.92,56.5,90.28C60.59,89.53,74.9,107.94,84,123l0,0C95,131.84,104.79,138.56,104.79,138.56Z"/><g class="cls-13"><path d="M104.79,138.56l-7.54,5.23L75.32,129.43l-9.6-9.63S47.54,91.92,56.5,90.28C60.59,89.53,74.9,107.94,84,123l0,0C95,131.84,104.79,138.56,104.79,138.56Z"/></g><path class="cls-3" d="M65.71,153.5h0a74.27,74.27,0,0,1-23.48,2.36l-17-1c-.41-3.5-3-11.17-6.62-30.95-4.48-31.63.82-33.28,3.55-33.76h.09c2.52-.42,5.68-.88,8.79-1.11a170.83,170.83,0,0,1,17.82-.54,50.9,50.9,0,0,1,5.9.76A7.48,7.48,0,0,1,60.66,94C63.46,102,64.42,121,65.71,153.5Z"/><path class="cls-8" d="M65.71,153.5h0a74.27,74.27,0,0,1-23.48,2.36l-17-1c-.41-3.5-3-11.17-6.62-30.95-4.48-31.63.82-33.28,3.55-33.76h.09c2.52-.42,5.68-.88,8.79-1.11a170.83,170.83,0,0,1,17.82-.54,50.9,50.9,0,0,1,5.9.76A7.48,7.48,0,0,1,60.66,94C63.46,102,64.42,121,65.71,153.5Z"/><path class="cls-22" d="M42.61,93.49C33.8,94.24,30.43,89,30.43,89c3.75-4,2-14.39.46-20.1l4.88,3.81,6.66,5.19a23.7,23.7,0,0,0-.34,2.65,11,11,0,0,0,0,1.91v.13c.29,2.67,1.77,4.88,6,5.74C48.07,88.37,50.13,92.82,42.61,93.49Z"/><path class="cls-10" d="M42.43,77.94a23.7,23.7,0,0,0-.34,2.65,11,11,0,0,0,0,1.91v.13c-2.43-.43-5.71-2.88-6.14-5.35a11.33,11.33,0,0,1-.17-2.47Z"/><path class="cls-16" d="M28.6,88.44l2.69-1.09A26.92,26.92,0,0,0,42,93.51a10.38,10.38,0,0,0-3.67,4.8C28.85,95.4,28.6,88.44,28.6,88.44Z"/><path class="cls-16" d="M48,87.87l-2.56-.45s-.86,5.31-3.45,6.13c4.61,1.63,5.43,3.85,5.43,3.85C53.94,95.09,48,87.87,48,87.87Z"/><path class="cls-1" d="M46.4,52.08c1.32,1.56,1.72,5.36,3.05,6.91a29.86,29.86,0,0,0,1.75-4.85,2.4,2.4,0,0,0-.76-2.28C49.51,51.15,47.5,51.68,46.4,52.08Z"/><path class="cls-22" d="M29.64,57.63A10.27,10.27,0,0,1,42,50.05c8.1,1.74,11.53,12.85,11.31,20a10.14,10.14,0,0,1-16,8.16c-4.69-3.23-5.52-7.73-7.57-15.25A10.25,10.25,0,0,1,29.64,57.63Z"/><path class="cls-1" d="M49.54,70.6a37.34,37.34,0,0,0-7.93,0,4.53,4.53,0,0,0,5.06,3.17,2.91,2.91,0,0,0,2.86-2.9A2.53,2.53,0,0,0,49.54,70.6Z"/><path class="cls-23" d="M45.24,72.33a4.9,4.9,0,0,1,3.29.73,3.14,3.14,0,0,1-1.85.7A4.89,4.89,0,0,1,43.4,73,3,3,0,0,1,45.24,72.33Z"/><path class="cls-16" d="M49.27,70.57a1.32,1.32,0,0,1-.88,1,28,28,0,0,1-5.18-.15,1.62,1.62,0,0,1-1.34-.87A43.54,43.54,0,0,1,49.27,70.57Z"/><path class="cls-10" d="M47.91,68.38a3.59,3.59,0,0,0,2.82-1.07,23.36,23.36,0,0,1-4.09-4.78Z"/><path class="cls-1" d="M45,53.19a18.64,18.64,0,0,0-1.05-1.71,3,3,0,0,0-3.09-.72,5,5,0,0,0-2.54,2.09,16.32,16.32,0,0,0-1.62,3.46,3.37,3.37,0,0,1-1,2.83l0,0a3.31,3.31,0,0,1-2.85.75c-.38,1.14,2.08,4.45,2.55,4.88a3.91,3.91,0,0,0,1.55.9,3.35,3.35,0,0,1-1.69.31l-.54-.06c-2-.34-9.72-5.17-5.36-13.18a11.51,11.51,0,0,1,15.78-4.08C50.35,52.11,45.34,53.75,45,53.19Z"/><path class="cls-1" d="M32.67,67.34A83.71,83.71,0,0,1,32.51,78c-2.71-2.16-5.3-7-6.54-10.27a14.14,14.14,0,0,1,.38-11.35,11.3,11.3,0,0,1,2.93-3.59,10.32,10.32,0,0,1,6.46-2.39c0,3,0,5.9-.12,8.79a3.31,3.31,0,0,1-2.85.75c-.38,1.14.65,3.37,1.22,4.43a5.28,5.28,0,0,0,1.14,1.49c0,.4-.09.81-.14,1.21-.11.92-.24,1.85-.38,2.77Z"/><path class="cls-22" d="M29.84,64.77c1.93-.32,4,2.06,4.87,3.81.93,2,.31,3.81-1.75,3.36a7.28,7.28,0,0,1-4-2.81C27.67,67.41,27.92,65.09,29.84,64.77Z"/><path class="cls-1" d="M42.17,62.46c.41-.06.86.44,1,1s-.12,1.12-.52,1.2-.8-.39-1-1S41.76,62.53,42.17,62.46Z"/><path class="cls-1" d="M49.12,60.88c.41-.06.84.38,1,1s-.1,1.18-.51,1.25-.84-.38-1-1S48.71,61,49.12,60.88Z"/><path class="cls-1" d="M47.56,58.49a.41.41,0,0,0,.35.08,3.12,3.12,0,0,1,2.72.34.35.35,0,0,0,.51,0h0a.38.38,0,0,0-.06-.52h0a3.83,3.83,0,0,0-3.4-.47.37.37,0,0,0-.24.46A.5.5,0,0,0,47.56,58.49Z"/><path class="cls-1" d="M40,61.56a.41.41,0,0,0,.32-.15A3.17,3.17,0,0,1,42.7,60a.36.36,0,0,0,.37-.35h0a.39.39,0,0,0-.37-.38h0a3.88,3.88,0,0,0-3,1.72.39.39,0,0,0,.09.52A.66.66,0,0,0,40,61.56Z"/><path class="cls-3" d="M26.58,110.28l1-2.08c1.29-2.73,6.71-13.6,9.35-14.75l1-.62,3.68,5.61c-.64.54-7.57,18.44-9.22,22.19a12,12,0,0,0-.65,1.76c-1.14,4.1-8.12,10.39-12.78-1.41-1.17-2.49-2.24-4.94-3.19-7.41-.5-1.29-.94-2.5-1.39-3.78-.07-.22-.24-.68-.45-1.3-2.16-6.17-2.52-13.24,3.37-16.87l4-1.34Z"/><g class="cls-13"><path d="M26.58,110.28l1-2.08c1.29-2.73,6.71-13.6,9.35-14.75l1-.62,3.68,5.61c-.64.54-7.57,18.44-9.22,22.19a12,12,0,0,0-.65,1.76c-1.14,4.1-8.12,10.39-12.78-1.41-1.17-2.49-2.24-4.94-3.19-7.41-.5-1.29-.94-2.5-1.39-3.78-.07-.22-.24-.68-.45-1.3-2.16-6.17-2.52-13.24,3.37-16.87l4-1.34Z"/></g><path class="cls-3" d="M47.49,88.8a4,4,0,0,0,.18.78,7,7,0,0,0,.46,1.09,5.11,5.11,0,0,0,1,1.21s.24.2.25.22a5.11,5.11,0,0,0,.75.57,4.53,4.53,0,0,0,1.64.75.37.37,0,0,1,.25.21c.07.15.16.28.24.42a3,3,0,0,1,.19.35.85.85,0,0,0,.36.43,2.91,2.91,0,0,0,1,.37,10.75,10.75,0,0,0,2.83.2,14.13,14.13,0,0,0,1.46-.12,11.71,11.71,0,0,0,1.56-.34,4.24,4.24,0,0,0,1.16-.5.79.79,0,0,0,.35-.37c0-.1.05-.18.09-.27.11-.25.21-.5.31-.75s.29-.78.41-1.17a11.72,11.72,0,0,0,.32-1.16c.08-.41.17-.81.23-1.22.11-.68.19-1.37.26-2.07,0-.32,0-.7,0-1a2.56,2.56,0,0,0-.08-.78,1.22,1.22,0,0,0-.28-.48,3.79,3.79,0,0,0-1.29-.84,5.75,5.75,0,0,0-1.41-.37c-.21,0-.4-.09-.6-.11a15,15,0,0,0-6.36.48,9.25,9.25,0,0,0-1.21.44,4.9,4.9,0,0,0-1,.63,1.9,1.9,0,0,0-.54.65,1,1,0,0,0-.1.31c0,.12,0,.13-.16.11A1.91,1.91,0,0,0,48,87a2,2,0,0,0-.38.73A2.55,2.55,0,0,0,47.49,88.8Zm5.23-1.62a6.73,6.73,0,0,1-1.24-.35,1,1,0,0,1-.28-.16,1.76,1.76,0,0,1,.53-.63,4.48,4.48,0,0,1,.47-.28,4.61,4.61,0,0,1,.89-.36,11.47,11.47,0,0,1,1.43-.35c.47-.08.92-.13,1.4-.17s.8,0,1.24,0a11.43,11.43,0,0,1,1.65.11,7.64,7.64,0,0,1,1.64.37,2.78,2.78,0,0,1,1.18.75l0,0-.12.09a2.33,2.33,0,0,1-.34.2,6.68,6.68,0,0,1-1.41.53l-.34.08-.19,0a10.36,10.36,0,0,1-1.09.19,9.88,9.88,0,0,1-1.08.11l-.84.06H54.83c-.32,0-.65,0-1,0A11.06,11.06,0,0,1,52.72,87.18Zm-3.53,1.28a.79.79,0,0,1,.64-.63l.24,0c.1.54.23,1,.34,1.56.16.68.36,1.33.57,2a3.72,3.72,0,0,0,.42.92S51.09,92,51,92A6.59,6.59,0,0,1,49.3,89.6,1.92,1.92,0,0,1,49.19,88.46Z"/><path class="cls-24" d="M47.49,88.8a4,4,0,0,0,.18.78,7,7,0,0,0,.46,1.09,5.11,5.11,0,0,0,1,1.21s.24.2.25.22a5.11,5.11,0,0,0,.75.57,4.53,4.53,0,0,0,1.64.75.37.37,0,0,1,.25.21c.07.15.16.28.24.42a3,3,0,0,1,.19.35.85.85,0,0,0,.36.43,2.91,2.91,0,0,0,1,.37,10.75,10.75,0,0,0,2.83.2,14.13,14.13,0,0,0,1.46-.12,11.71,11.71,0,0,0,1.56-.34,4.24,4.24,0,0,0,1.16-.5.79.79,0,0,0,.35-.37c0-.1.05-.18.09-.27.11-.25.21-.5.31-.75s.29-.78.41-1.17a11.72,11.72,0,0,0,.32-1.16c.08-.41.17-.81.23-1.22.11-.68.19-1.37.26-2.07,0-.32,0-.7,0-1a2.56,2.56,0,0,0-.08-.78,1.22,1.22,0,0,0-.28-.48,3.79,3.79,0,0,0-1.29-.84,5.75,5.75,0,0,0-1.41-.37c-.21,0-.4-.09-.6-.11a15,15,0,0,0-6.36.48,9.25,9.25,0,0,0-1.21.44,4.9,4.9,0,0,0-1,.63,1.9,1.9,0,0,0-.54.65,1,1,0,0,0-.1.31c0,.12,0,.13-.16.11A1.91,1.91,0,0,0,48,87a2,2,0,0,0-.38.73A2.55,2.55,0,0,0,47.49,88.8Zm5.23-1.62a6.73,6.73,0,0,1-1.24-.35,1,1,0,0,1-.28-.16,1.76,1.76,0,0,1,.53-.63,4.48,4.48,0,0,1,.47-.28,4.61,4.61,0,0,1,.89-.36,11.47,11.47,0,0,1,1.43-.35c.47-.08.92-.13,1.4-.17s.8,0,1.24,0a11.43,11.43,0,0,1,1.65.11,7.64,7.64,0,0,1,1.64.37,2.78,2.78,0,0,1,1.18.75l0,0-.12.09a2.33,2.33,0,0,1-.34.2,6.68,6.68,0,0,1-1.41.53l-.34.08-.19,0a10.36,10.36,0,0,1-1.09.19,9.88,9.88,0,0,1-1.08.11l-.84.06H54.83c-.32,0-.65,0-1,0A11.06,11.06,0,0,1,52.72,87.18Zm-3.53,1.28a.79.79,0,0,1,.64-.63l.24,0c.1.54.23,1,.34,1.56.16.68.36,1.33.57,2a3.72,3.72,0,0,0,.42.92S51.09,92,51,92A6.59,6.59,0,0,1,49.3,89.6,1.92,1.92,0,0,1,49.19,88.46Z"/><path class="cls-25" d="M51.2,86.67a1.64,1.64,0,0,1,.53-.63,4.34,4.34,0,0,1,.46-.28,4.88,4.88,0,0,1,.89-.36,11.92,11.92,0,0,1,1.43-.35c.48-.08.93-.13,1.41-.17s.79,0,1.23,0A12.94,12.94,0,0,1,58.8,85a7.11,7.11,0,0,1,1.64.38,2.66,2.66,0,0,1,1.18.74l0,0-.12.09a2.8,2.8,0,0,1-.34.21,6.8,6.8,0,0,1-1.41.52l-.34.08-.18,0c-.37.08-.73.15-1.1.2s-.72.09-1.08.11l-.84.05h-.24c-.37,0-.74,0-1.11,0s-.66,0-1,0-.75-.11-1.13-.18a6,6,0,0,1-1.24-.35A.74.74,0,0,1,51.2,86.67Z"/><path class="cls-26" d="M51.22,86.67a1.59,1.59,0,0,1,.52-.63,4.48,4.48,0,0,1,.47-.28,4.88,4.88,0,0,1,.89-.36,11.47,11.47,0,0,1,1.43-.35c.47-.08.92-.13,1.4-.17s.8,0,1.24,0a13.06,13.06,0,0,1,1.65.11,7.64,7.64,0,0,1,1.64.37,2.78,2.78,0,0,1,1.18.75l0,0-.12.09a2.33,2.33,0,0,1-.34.2,6.48,6.48,0,0,1-1.41.53L59.4,87l-.19,0c-.36.08-.73.15-1.09.2a9.85,9.85,0,0,1-1.08.1l-.84.06H56c-.37,0-.73,0-1.1,0l-1,0c-.38,0-.75-.11-1.13-.18a5.49,5.49,0,0,1-1.24-.36A.65.65,0,0,1,51.22,86.67Z"/><path class="cls-26" d="M51.22,86.67a1.59,1.59,0,0,1,.52-.63,4.48,4.48,0,0,1,.47-.28,4.88,4.88,0,0,1,.89-.36,11.47,11.47,0,0,1,1.43-.35c.47-.08.92-.13,1.4-.17s.8,0,1.24,0a13.06,13.06,0,0,1,1.65.11,7.64,7.64,0,0,1,1.64.37,2.78,2.78,0,0,1,1.18.75l0,0-.12.09a2.33,2.33,0,0,1-.34.2,6.48,6.48,0,0,1-1.41.53L59.4,87l-.19,0c-.36.08-.73.15-1.09.2a9.85,9.85,0,0,1-1.08.1l-.84.06H56c-.37,0-.73,0-1.1,0l-1,0c-.38,0-.75-.11-1.13-.18a5.49,5.49,0,0,1-1.24-.36A.65.65,0,0,1,51.22,86.67Z"/><path class="cls-1" d="M51.2,86.67a1,1,0,0,0,.28.16,6.73,6.73,0,0,0,1.24.35,11.06,11.06,0,0,0,1.13.18c.33,0,.66,0,1,0h1.36l.84-.06a9.88,9.88,0,0,0,1.08-.11A10.36,10.36,0,0,0,59.2,87l.19,0,.34-.08a6.68,6.68,0,0,0,1.41-.53,2.33,2.33,0,0,0,.34-.2l.12-.09,0,0a2.78,2.78,0,0,0-1.18-.75A7.64,7.64,0,0,0,58.81,85a11.43,11.43,0,0,0-1.65-.11c-.44,0-.8,0-1.24,0s-.93.09-1.4.17a11.47,11.47,0,0,0-1.43.35,4.61,4.61,0,0,0-.89.36,4.48,4.48,0,0,0-.47.28A1.76,1.76,0,0,0,51.2,86.67Z"/><path class="cls-27" d="M51.17,85.75a2,2,0,0,1,.32-.33,8.07,8.07,0,0,1,3.74-1.31A12.19,12.19,0,0,1,57.49,84a8.94,8.94,0,0,1,3.75.87,2.53,2.53,0,0,1,.36.29.66.66,0,0,1,.06.9l-.13.11h0C60.37,85,57.35,85,56.36,85s-4,.48-5,1.73h0l-.15-.1A.65.65,0,0,1,51.17,85.75Z"/><path class="cls-22" d="M49.65,89.71l.66,3.21-2,2.43a14.18,14.18,0,0,1-6.77,3.09,3.31,3.31,0,0,1-3.33-1.79L37.91,96a4.51,4.51,0,0,1-.31-.87c-.39-1.66.17-2.59,1.56-3.56L44,87.35a57.58,57.58,0,0,1,5.87-.75C50.46,86.59,49.77,89.12,49.65,89.71Z"/></g></g><g id="Speech_Bubble_3" data-name="Speech Bubble 3"><g id="freepik--speech-bubbles--inject-120"><path class="cls-3" d="M292.62,42.79l3.52,33.05a4.22,4.22,0,0,1,0,.62,3.78,3.78,0,0,1-3.93,3.63l-7.53,0c1.62,4.69,8.51,11,8.51,11a32.51,32.51,0,0,1-19-11.07l-53.92-.33a5,5,0,0,1-4.81-4.31L212,42.3a3.26,3.26,0,0,1,0-.62A3.79,3.79,0,0,1,215.92,38l71.89.43A5,5,0,0,1,292.62,42.79Z"/><path class="cls-3" d="M294.74,91.77l-1.59-.22A33.36,33.36,0,0,1,274,80.49l-53.68-.33A5.46,5.46,0,0,1,215,75.42l-3.52-33.07a4,4,0,0,1,0-.7,4.21,4.21,0,0,1,1.37-3,4.25,4.25,0,0,1,3.08-1.14l71.88.43a5.47,5.47,0,0,1,5.3,4.75h0l3.52,33.06a5.16,5.16,0,0,1,0,.69,4.28,4.28,0,0,1-4.45,4.11l-6.77,0c1.93,4.43,8,10.07,8.11,10.13Zm-79-53.23a3.28,3.28,0,0,0-3.29,3.15,3.17,3.17,0,0,0,0,.54L216,75.3a4.44,4.44,0,0,0,4.33,3.86l54.14.33.15.18a32.14,32.14,0,0,0,17,10.54c-2.09-2.08-6.15-6.44-7.38-10l-.23-.67,8.23,0a3.31,3.31,0,0,0,3.43-3.15,3.26,3.26,0,0,0,0-.54l-3.51-33.06A4.46,4.46,0,0,0,287.8,39l-71.88-.43Z"/></g><line class="cls-16" x1="245.92" y1="47.36" x2="285.96" y2="47.36"/><rect class="cls-16" x="245.92" y="46.86" width="40.04" height="1"/><line class="cls-16" x1="225.54" y1="47.36" x2="240.01" y2="47.36"/><rect class="cls-16" x="225.54" y="46.86" width="14.47" height="1"/><line class="cls-16" x1="270.09" y1="56.01" x2="287.85" y2="56.01"/><rect class="cls-16" x="270.09" y="55.51" width="17.76" height="1"/><line class="cls-16" x1="240.51" y1="56.01" x2="263.76" y2="56.01"/><rect class="cls-16" x="240.51" y="55.51" width="23.25" height="1"/><line class="cls-16" x1="220.92" y1="56.01" x2="235.08" y2="56.01"/><rect class="cls-16" x="220.92" y="55.51" width="14.15" height="1"/><line class="cls-16" x1="261.45" y1="64.66" x2="288.85" y2="64.66"/><rect class="cls-16" x="261.45" y="64.16" width="27.4" height="1"/><line class="cls-16" x1="243.72" y1="64.66" x2="256.19" y2="64.66"/><rect class="cls-16" x="243.72" y="64.16" width="12.48" height="1"/><line class="cls-16" x1="232.77" y1="64.66" x2="243.72" y2="64.66"/><rect class="cls-16" x="232.77" y="64.16" width="10.95" height="1"/><line class="cls-16" x1="221.92" y1="64.66" x2="229.82" y2="64.66"/><rect class="cls-16" x="221.92" y="64.16" width="7.89" height="1"/><line class="cls-16" x1="222.73" y1="73.31" x2="234.45" y2="73.31"/><rect class="cls-16" x="222.73" y="72.81" width="11.72" height="1"/></g><g id="Speech_Bubble_2" data-name="Speech Bubble 2"><g id="freepik--speech-bubbles--inject-120-2" data-name="freepik--speech-bubbles--inject-120"><path class="cls-16" d="M194.85.93,266.75.5a3.79,3.79,0,0,1,3.93,3.64,4.36,4.36,0,0,1,0,.62l-3.52,33.06a5,5,0,0,1-4.82,4.31l-53.91.32a32.51,32.51,0,0,1-19,11.07s6.88-6.31,8.5-11l-7.52,0a3.79,3.79,0,0,1-3.93-3.64,3.22,3.22,0,0,1,0-.62l3.51-33A5,5,0,0,1,194.85.93Z"/><path class="cls-3" d="M187.93,54.23l1.18-1.08c.06-.06,6.17-5.69,8.11-10.13l-6.79,0A4.28,4.28,0,0,1,186,38.94a4.1,4.1,0,0,1,0-.7l3.51-33.05a5.47,5.47,0,0,1,5.3-4.76h0L266.74,0a4.33,4.33,0,0,1,4.44,4.12,4.1,4.1,0,0,1,0,.7l-3.53,33.05a5.46,5.46,0,0,1-5.3,4.76L208.63,43A33.29,33.29,0,0,1,189.52,54ZM198.66,42l-.23.67c-1.23,3.56-5.3,7.91-7.39,10a32.33,32.33,0,0,0,17-10.54l.15-.19,54.15-.32a4.47,4.47,0,0,0,4.32-3.88l3.52-33a3.44,3.44,0,0,0,0-.55A3.32,3.32,0,0,0,266.77,1l-71.91.43a4.46,4.46,0,0,0-4.32,3.88l-3.52,33a3.41,3.41,0,0,0,0,.55,3.31,3.31,0,0,0,3.41,3.16Z"/></g><line class="cls-16" x1="237.45" y1="8.16" x2="205.03" y2="8.16"/><rect class="cls-3" x="205.03" y="7.66" width="32.42" height="1"/><line class="cls-16" x1="264.59" y1="8.16" x2="245.02" y2="8.16"/><rect class="cls-3" x="245.02" y="7.66" width="19.57" height="1"/><line class="cls-16" x1="213.28" y1="16.81" x2="195.52" y2="16.81"/><rect class="cls-3" x="195.52" y="16.31" width="17.76" height="1"/><line class="cls-16" x1="262.45" y1="16.81" x2="219.61" y2="16.81"/><rect class="cls-3" x="219.61" y="16.31" width="42.84" height="1"/><line class="cls-16" x1="239.65" y1="25.46" x2="194.52" y2="25.46"/><rect class="cls-3" x="194.52" y="24.96" width="45.13" height="1"/><line class="cls-16" x1="261.45" y1="25.46" x2="246.7" y2="25.46"/><rect class="cls-3" x="246.7" y="24.96" width="14.75" height="1"/><line class="cls-16" x1="205.52" y1="34.11" x2="193.8" y2="34.11"/><rect class="cls-3" x="193.8" y="33.61" width="11.72" height="1"/></g><g id="Speech_Bubble_1" data-name="Speech Bubble 1"><g id="freepik--speech-bubbles--inject-120-3" data-name="freepik--speech-bubbles--inject-120"><path class="cls-1" d="M67.85,12l71.89-.43a3.79,3.79,0,0,1,3.93,3.64,3.26,3.26,0,0,1,0,.62l-3.52,33.06a5,5,0,0,1-4.82,4.3l-53.91.33a32.51,32.51,0,0,1-19,11.07s6.88-6.32,8.51-11l-7.53.05A3.79,3.79,0,0,1,59.49,50a3.22,3.22,0,0,1,0-.62l3.51-33A5,5,0,0,1,67.85,12Z"/></g><line class="cls-16" x1="102.39" y1="19.53" x2="134.81" y2="19.53"/><rect class="cls-3" x="102.39" y="19.03" width="32.42" height="1"/><line class="cls-16" x1="75.26" y1="19.53" x2="94.83" y2="19.53"/><rect class="cls-3" x="75.26" y="19.03" width="19.57" height="1"/><line class="cls-16" x1="117.06" y1="28.18" x2="134.81" y2="28.18"/><rect class="cls-3" x="117.06" y="27.68" width="17.76" height="1"/><line class="cls-16" x1="67.89" y1="28.18" x2="110.72" y2="28.18"/><rect class="cls-3" x="67.89" y="27.68" width="42.84" height="1"/><line class="cls-16" x1="89.68" y1="36.83" x2="134.81" y2="36.83"/><rect class="cls-3" x="89.68" y="36.33" width="45.13" height="1"/><line class="cls-16" x1="67.89" y1="36.83" x2="82.63" y2="36.83"/><rect class="cls-3" x="67.89" y="36.33" width="14.75" height="1"/><line class="cls-16" x1="67.89" y1="45.48" x2="78.8" y2="45.48"/><rect class="cls-3" x="67.89" y="44.98" width="10.92" height="1"/></g><g id="Table"><rect class="cls-3" x="201.09" y="128.82" width="11.2" height="14.98" rx="2.11" transform="matrix(-1, 0.01, -0.01, -1, 414.55, 270.82)"/><path class="cls-3" d="M197.76,138.25l0-2.82a4.19,4.19,0,0,1,4.15-4.22h.94l.09,11.19H202A4.19,4.19,0,0,1,197.76,138.25Zm1.86-2.84,0,2.82a2.28,2.28,0,0,0,1.37,2.09l-.06-7A2.32,2.32,0,0,0,199.62,135.41Z"/><g class="cls-28"><rect class="cls-16" x="201.09" y="128.82" width="11.2" height="14.98" rx="2.11" transform="matrix(-1, 0.01, -0.01, -1, 414.55, 270.82)"/><path class="cls-16" d="M197.76,138.25l0-2.82a4.19,4.19,0,0,1,4.15-4.22h.94l.09,11.19H202A4.19,4.19,0,0,1,197.76,138.25Zm1.86-2.84,0,2.82a2.28,2.28,0,0,0,1.37,2.09l-.06-7A2.32,2.32,0,0,0,199.62,135.41Z"/></g><path class="cls-3" d="M287.66,143.59l-21,0a.82.82,0,0,1-.82-.82h0a.82.82,0,0,1,.82-.82l21,0a.82.82,0,0,1,.82.82h0A.82.82,0,0,1,287.66,143.59Z"/><path class="cls-8" d="M287.66,143.59l-21,0a.82.82,0,0,1-.82-.82h0a.82.82,0,0,1,.82-.82l21,0a.82.82,0,0,1,.82.82h0A.82.82,0,0,1,287.66,143.59Z"/><path class="cls-1" d="M266.51,143.58l-43.68.07a.82.82,0,0,1-.82-.82h0a.83.83,0,0,1,.83-.82l43.69-.07a.82.82,0,0,1,.81.82h0A.83.83,0,0,1,266.51,143.58Z"/><path class="cls-3" d="M265.34,141.93l-40.25.18a2.92,2.92,0,0,1-2.83-2.63l-1.65-20.64a2.37,2.37,0,0,1,2.41-2.6l40.25-.18a2.92,2.92,0,0,1,2.82,2.63l1.65,20.64A2.37,2.37,0,0,1,265.34,141.93Z"/><path class="cls-8" d="M265.34,141.93l-40.25.18a2.92,2.92,0,0,1-2.83-2.63l-1.65-20.64a2.37,2.37,0,0,1,2.41-2.6l40.25-.18a2.92,2.92,0,0,1,2.82,2.63l1.65,20.64A2.37,2.37,0,0,1,265.34,141.93Z"/><path class="cls-3" d="M264.14,141.83l-40.25.19a2.92,2.92,0,0,1-2.82-2.64l-1.66-20.64a2.37,2.37,0,0,1,2.41-2.6l40.25-.18a2.91,2.91,0,0,1,2.82,2.63l1.65,20.65A2.36,2.36,0,0,1,264.14,141.83Z"/><path class="cls-29" d="M264.14,141.83l-40.25.19a2.92,2.92,0,0,1-2.82-2.64l-1.66-20.64a2.37,2.37,0,0,1,2.41-2.6l40.25-.18a2.91,2.91,0,0,1,2.82,2.63l1.65,20.65A2.36,2.36,0,0,1,264.14,141.83Z"/><path class="cls-16" d="M237.2,129.67a4.58,4.58,0,0,0,4.39,4.21,3.71,3.71,0,0,0,3.84-4,4.58,4.58,0,0,0-4.39-4.2A3.71,3.71,0,0,0,237.2,129.67Z"/><path class="cls-3" d="M301.59,132.83l.41.74a2.73,2.73,0,0,1,.35,1.33v4.2c0,2.56,2.8,4.66,6.25,4.66h.91a6.62,6.62,0,0,0,5.66-2.71,2,2,0,0,0,.79-.35l2.43-1.81a1.27,1.27,0,0,0,.56-1v-2.27c0-.78-.86-1.42-1.91-1.42h-1.28c-.07-.15.07-.39.26-.63l.05-.05a6,6,0,0,1,.66-.64l0,0s-.11-.53-1.39-.26c-.37.08-.72.17-1.05.26l-.14,0h0l-.1,0a5.24,5.24,0,0,0-3.32-.05,5.3,5.3,0,0,0-3.08,0c.08,0-.07,0,0,0a5.32,5.32,0,0,0-3.23.08H304c-.32-.09-.68-.18-1-.26C301.69,132.3,301.59,132.83,301.59,132.83Zm14.1,7.22c0-.05.05-3.36.06-4.78a.77.77,0,0,1,.85-.62h.53c.66,0,1.2.41,1.2.9v2.07c0,.68,0,.65-.68,1.14Z"/><path class="cls-24" d="M317,134.19h-1.28c-.08-.15.07-.39.26-.63l.05-.05a6,6,0,0,1,.66-.64l0,0s-.11-.53-1.39-.26c-.38.08-.72.17-1.05.26l-.13,0h0l-.11,0a5.24,5.24,0,0,0-3.32-.05,91.46,91.46,0,0,0-6.31.05H304c-.32-.09-.68-.18-1-.26-1.28-.27-1.4.26-1.4.26l.42.74a2.83,2.83,0,0,1,.34,1.33v4.2c0,2.56,2.81,4.66,6.25,4.66h.91a6.61,6.61,0,0,0,5.66-2.71,2.15,2.15,0,0,0,.8-.34l2.43-1.82a1.27,1.27,0,0,0,.56-1v-2.27C319,134.84,318.09,134.19,317,134.19Zm1.29,3.43c0,.68,0,.65-.68,1.14l-2,1.29c0-.05.06-3.36.06-4.78a.79.79,0,0,1,.86-.62h.53c.66,0,1.2.41,1.2.9Z"/><polygon class="cls-3" points="24.89 150.16 12.75 269.38 16.63 269.38 36.96 150.16 24.89 150.16"/><polygon class="cls-3" points="304.11 150.16 325.72 269.38 329.6 269.38 316.17 150.16 304.11 150.16"/><polygon class="cls-3" points="37.36 269.5 41.24 269.5 63.27 150.16 51.2 150.16 37.36 269.5"/><polygon class="cls-3" points="340.93 150.16 328.86 150.16 352.65 269.5 356.54 269.5 340.93 150.16"/><path class="cls-3" d="M365.5,147.58a3.8,3.8,0,0,0-3.91-3.69H4.23a3.69,3.69,0,1,0,0,7.37H361.59A3.8,3.8,0,0,0,365.5,147.58Z"/><g class="cls-30"><polygon class="cls-16" points="24.89 150.16 12.75 269.38 16.63 269.38 36.96 150.16 24.89 150.16"/><polygon class="cls-16" points="304.11 150.16 325.72 269.38 329.6 269.38 316.17 150.16 304.11 150.16"/><polygon class="cls-16" points="37.36 269.5 41.24 269.5 63.27 150.16 51.2 150.16 37.36 269.5"/><polygon class="cls-16" points="340.93 150.16 328.86 150.16 352.65 269.5 356.54 269.5 340.93 150.16"/><path class="cls-16" d="M365.5,147.58a3.8,3.8,0,0,0-3.91-3.69H4.23a3.69,3.69,0,1,0,0,7.37H361.59A3.8,3.8,0,0,0,365.5,147.58Z"/></g></g></g></svg>